<svg width="75" height="82" viewBox="0 0 75 82" fill="none" xmlns="http://www.w3.org/2000/svg">
<g clip-path="url(#clip0_2402_87300)">
<mask id="mask0_2402_87300" style="mask-type:luminance" maskUnits="userSpaceOnUse" x="0" y="0" width="75" height="82">
<path d="M74.8565 0.67627H0.855469V81.6763H74.8565V0.67627Z" fill="white"/>
</mask>
<g mask="url(#mask0_2402_87300)">
<path d="M10.3874 71.8909C10.2663 71.5091 9.91266 70.6507 9.81635 70.017C9.60377 68.6135 10.3454 67.6891 11.0265 67.4774C11.7908 67.2664 12.0894 67.6462 12.3852 68.5291C12.7677 69.8734 12.8103 71.635 12.6817 74.1569C12.5145 77.6018 10.7726 81.762 6.4426 81.6756C2.70491 81.5946 1.05106 79.1993 0.879069 75.5448C0.79789 73.822 0.922411 72.0999 1.64339 69.6644C2.0259 68.3603 2.36713 67.896 3.55385 67.6462C4.48673 67.4774 4.4028 68.4426 4.19159 69.5807C3.72653 72.0999 3.51051 73.3162 3.6825 76.1744C3.84899 79.1993 5.25311 80.3762 6.78176 80.3762C9.07473 80.4197 10.0929 78.5295 10.5194 75.7959C10.8559 73.6123 10.602 72.5621 10.3874 71.8909ZM59.2765 74.8743C60.1695 74.8743 60.4254 75.9191 60.2121 76.5522C59.9989 77.1811 59.2359 77.8985 58.0478 78.1075C57.7919 77.4758 57.6639 74.8743 59.2765 74.8743ZM42.6788 76.2983C42.6788 75.587 42.2942 74.9982 41.8312 74.9982C41.4446 74.9982 40.5564 75.4168 40.5564 76.7618C40.5564 77.8155 40.9348 78.3151 41.1082 78.5295C42.3362 78.1497 42.6788 77.1389 42.6788 76.2983ZM29.4713 67.73C29.4115 67.0561 28.8776 66.5973 28.1553 66.5973C27.3497 66.5973 26.5909 67.4339 26.6714 68.4848C26.7229 69.1778 27.1357 69.7475 27.9468 69.7475C28.8776 69.7482 29.5567 68.6979 29.4713 67.73ZM36.3764 70.1974C36.3028 69.0226 36.0152 68.4923 35.3775 68.5359C34.532 68.5862 34.1412 71.2184 34.3139 73.9853C34.424 75.7905 34.6957 76.0689 34.9489 76.0512C35.4167 76.0233 36.5388 72.7982 36.3764 70.1974ZM64.5421 74.6197C64.0158 76.7795 62.4205 79.9569 60.0401 79.9569C59.4891 79.9569 58.5122 79.7452 58.5122 79.1993C58.5122 78.6105 62.2512 78.5295 62.2512 75.7129C62.2512 74.664 61.275 73.1917 59.8303 73.1917C57.9198 73.1917 56.0562 75.2521 56.0562 78.1082C56.0562 80.6689 57.6639 81.5095 59.2772 81.5095C62.0806 81.5095 63.7792 79.2394 64.6701 77.3506C65.0966 78.6112 65.347 81.5095 66.4127 81.5095C66.8358 81.5095 67.1351 81.2992 67.6448 80.1665C68.9155 77.3499 70.1483 74.1153 71.8476 74.1153C72.4826 74.1153 72.1021 75.2521 73.6301 75.2521C74.3504 75.2521 74.8581 74.664 74.8581 73.9887C74.8581 73.0215 73.9679 72.268 72.6105 72.268C68.6183 72.268 67.7721 78.1919 67.1344 78.1919C66.0722 78.1919 66.412 73.4442 65.6463 73.4442C64.9666 73.4435 64.6329 74.2447 64.5421 74.6197ZM30.5762 79.6601C31.2126 79.6601 32.3071 79.4559 33.1684 78.0912C32.6759 77.0089 32.3243 74.8219 32.2755 74.0255C32.0223 69.953 33.608 66.1222 35.3438 66.016C36.6165 65.9398 37.6347 67.1317 37.7516 69.0627C38.0646 74.1371 36.3564 76.2554 35.5013 78.083C35.6458 78.7916 36.8607 79.9977 38.0069 79.9977C38.43 79.9977 38.9418 79.7874 39.0704 79.6172C38.9851 79.3252 38.8985 78.9474 38.8985 78.3995C38.8985 75.459 40.8096 72.9793 42.4662 72.9793C43.7823 72.9793 44.5466 74.7014 44.5466 75.8381C44.5466 77.1804 43.3991 78.2749 41.7019 79.3252C42.0005 79.6172 42.5495 79.8296 43.0186 79.8296C45.4409 79.8296 46.7082 76.9299 47.6465 74.2821C47.8158 73.7771 48.115 73.0644 48.7081 73.0644C49.7269 73.0644 50.1535 79.7023 51.8472 79.7023C52.5716 79.7023 53.1647 78.2307 53.1647 77.0994C53.1647 76.2581 52.8675 76.1737 52.8675 74.9553C52.8675 73.6123 53.5898 72.479 54.5688 72.479C55.1625 72.479 55.3771 73.0644 55.3771 73.7771C55.3771 76.4664 53.4213 81.4666 50.538 81.4666C48.3689 81.4666 48.5381 77.7692 47.7745 77.7692C46.9214 77.7692 45.7326 81.5081 41.5333 81.5081C40.8509 81.5081 40.1306 81.1726 39.5376 80.4987C38.5201 81.1726 37.6684 81.4666 36.6915 81.4666C35.1222 81.4666 34.4412 79.8698 33.8062 79.8698C33.0405 79.8698 32.1936 81.5081 29.6433 81.5081C27.6056 81.5081 27.2657 78.8222 26.5455 78.8222C25.907 78.8222 24.9308 81.5081 23.87 81.5081C22.084 81.5081 21.7057 76.8462 20.1316 76.8462C18.9009 76.8462 15.0104 81.581 13.9544 81.4727C13.53 81.4292 13.3511 81.1154 13.3958 80.6947C13.4557 80.1134 13.9613 78.5574 14.1663 77.8216C14.5096 76.544 14.8247 75.1438 15.0008 74.6973C15.1756 74.2467 15.6468 73.9254 16.0252 73.9602C16.2157 73.9779 16.2728 74.3298 16.332 74.6204C16.5467 75.6591 16.8459 76.7182 17.1837 76.7182C17.7802 76.7182 19.7498 72.9786 20.8959 72.9786C22.2994 72.9786 22.4672 78.8617 24.377 78.8617C25.0154 78.8617 25.4839 78.1068 25.907 77.1797C25.9504 75.623 26.3748 73.4013 27.6483 73.4013C28.5405 73.4013 28.9657 75.3739 28.3266 77.0987C28.3252 79.1557 29.6826 79.6601 30.5762 79.6601Z" fill="#A4A4A4"/>
</g>
<path d="M60.15 13.782C59.8349 13.782 59.3836 13.782 59.1352 13.2926C58.9316 12.891 59.0004 12.2437 58.6172 11.9544C59.0004 12.0653 59.4056 12.0653 59.7207 12.0653C60.7361 12.0653 61.7061 11.3744 62.4505 11.3744C62.941 11.3744 63.0992 11.6869 63.0992 11.9979C63.0999 12.9801 61.098 13.782 60.15 13.782ZM60.6453 16.3011C62.9864 16.3011 65.1301 14.4511 65.1301 12.8243C65.1301 12.0653 64.7682 11.4418 63.8443 11.3302C64.0018 11.531 64.0693 11.6869 64.0693 12.0435C64.0693 13.2701 62.1808 14.6301 60.1279 14.6301C59.3836 14.6301 59.1579 15.142 59.1579 15.4095C59.1579 16.0343 59.7675 16.3011 60.6453 16.3011ZM60.4657 17.2378C60.7595 19.3546 64.0018 22.2087 64.8804 22.1413C65.4679 22.0923 65.6929 19.3771 65.6929 17.2378C65.6929 16.0119 65.761 15.0528 65.1067 14.8295C64.0686 16.9035 61.3456 17.3269 60.4657 17.2378Z" fill="#A4A4A4"/>
<path d="M9.75322 31.2589C10.5182 31.2589 10.3607 26.6215 11.5997 26.6215C11.8935 26.6215 11.9836 26.9115 11.9836 27.2681C11.9836 28.3157 11.4649 29.8547 11.4649 30.7008C11.4649 31.1248 11.5777 31.2589 11.7806 31.2589C12.3221 31.2589 13.268 26.1532 14.1912 26.1532C14.4843 26.1532 14.6192 26.4432 14.6192 26.7331C14.6192 27.8031 13.246 30.8791 13.246 31.7483C13.246 31.8824 13.29 31.9934 13.4035 31.9934C13.967 31.9934 15.0932 29.5865 15.453 28.3831C15.6559 27.7582 15.9263 27.4233 16.1746 27.4233C16.3996 27.4233 16.6032 27.6691 16.6032 28.1823C16.6032 29.3857 15.4757 32.2166 14.4843 34.1123C13.7193 35.5832 12.525 37.6994 12.525 38.8811C12.525 39.4835 12.6358 40.107 13.515 40.8652C12.073 40.7761 11.4876 40.6427 10.9475 39.5284C8.53622 44.2761 15.3855 43.8085 13.0423 48.0198C12.6138 47.2636 9.23518 46.4828 9.23518 42.0694C9.23518 38.2576 12.6138 36.0284 12.6138 34.4465C12.6138 34.1348 12.5023 33.8673 12.2092 33.6222C11.4649 32.9967 11.4422 32.4855 10.8567 32.4855C10.4295 32.4855 9.90938 33.4657 10.4508 34.3349C10.6317 34.6248 10.7893 34.8032 10.7893 35.0707C10.7893 35.6942 9.79725 37.3652 9.09965 37.3652C8.40069 37.3652 7.86133 35.6513 7.86133 32.8857C7.86133 30.4326 8.42339 27.9597 9.12236 27.9597C9.32462 27.9597 9.39204 28.0931 9.39204 28.2721C9.39204 28.5621 9.3026 29.1407 9.3026 30.1215C9.3026 31.1691 9.55027 31.2589 9.75322 31.2589Z" fill="#A4A4A4"/>
<path d="M15.497 37.7892C16.4443 37.7892 17.232 37.097 17.232 35.5614V33.2866C17.232 32.4174 17.3001 31.4372 17.8863 30.745C17.8182 31.0356 17.8182 31.3474 17.8182 31.6373C17.8182 33.5548 18.8989 34.8705 18.8989 36.7199C18.8989 37.4101 18.696 37.7899 18.1566 37.7899C17.6379 37.7899 17.6833 37.3216 17.5698 37.3216C17.4804 37.3216 17.3448 37.6109 17.3448 37.9233C17.3448 38.3916 17.6826 39.1268 18.6286 39.1268C19.4404 39.1268 20.0926 38.3916 20.0926 37.5667C20.0926 35.5621 18.5158 33.3315 18.5158 31.1922C18.5158 30.2556 18.7634 29.6321 18.9664 29.1406C18.9664 33.5773 22.7735 36.8091 22.7735 38.6585C22.7735 39.0825 22.4584 39.4174 21.9851 39.4174C21.4671 39.4174 21.2187 39.0151 21.2187 38.7027C21.2187 38.5468 21.196 38.5026 21.1286 38.5026C20.9945 38.5026 20.5886 38.9484 20.5886 39.529C20.5886 40.2635 21.196 41.1565 22.3229 41.1565C23.606 41.1565 24.3049 40.0852 24.3049 39.1268C24.3049 36.7873 19.6867 33.2424 19.6867 29.4537C19.6867 28.8064 19.7981 27.7589 20.2728 26.957C17.2988 28.8507 16.3755 31.3705 16.3755 33.5772C16.3755 35.4947 16.3081 36.4517 15.3167 36.4517C14.798 36.4517 14.6632 35.9848 14.4822 35.9848C14.3474 35.9848 14.2793 36.3857 14.2793 36.4967C14.2807 37.3209 14.8895 37.7892 15.497 37.7892Z" fill="#A4A4A4"/>
<path d="M49.6297 12.6901C49.9159 12.5002 51.1858 12.8011 52.828 11.9979C53.0303 11.8883 53.2332 11.8434 53.4134 11.8434C54.2032 11.8434 54.0003 12.7344 54.7219 12.7344C55.284 12.7344 56.0071 12.2661 56.4357 12.2661C57.1071 12.2661 58.0764 14.3619 58.0764 15.3427C58.0764 16.4794 56.3448 17.171 54.2933 17.171C51.2987 17.171 49.4941 14.5851 49.4941 12.9127C49.4948 12.7793 49.5629 12.7344 49.6297 12.6901ZM54.5417 15.5211C55.5337 15.5211 56.2774 15.0752 56.2774 14.807C56.2774 14.7192 56.1426 14.6518 55.8488 14.6518C55.5557 14.6518 54.9696 14.6301 53.8647 14.451C52.9167 14.2952 52.1958 13.9385 51.9254 13.9385C51.8353 13.9385 51.7899 13.9827 51.7899 14.0494C51.7899 14.6301 52.8727 15.5211 54.5417 15.5211Z" fill="#A4A4A4"/>
<path d="M15.9712 46.1928C15.2282 46.3719 14.0332 47.529 14.0332 49.3593C14.0332 51.5422 16.3991 54.9095 20.2964 54.9095C23.5848 54.9095 24.3966 52.6579 24.3966 51.1406C24.3966 47.7754 22.3025 45.4121 19.5768 45.4121C18.0894 45.4121 16.7596 46.4821 16.7596 48.064C16.7596 49.537 17.8865 51.743 20.5668 51.743C21.8285 51.743 22.5715 50.85 22.5715 49.8276C22.5715 48.8236 21.6482 47.4426 20.2957 47.4426C19.8905 47.4426 19.5981 47.7073 19.5981 48.1328C19.5981 48.6664 20.3404 49.2028 21.265 49.2028C21.4893 49.2028 21.6702 49.1579 21.761 49.1129C21.8051 49.1817 21.8285 49.2919 21.8285 49.3811C21.8285 49.8943 21.3325 50.2068 20.5668 50.2068C19.4179 50.2068 18.3137 49.36 18.3137 48.0198C18.3137 47.2193 19.0127 46.64 20.026 46.64C22.0307 46.64 23.2243 48.4003 23.2243 50.1625C23.2243 51.7437 22.3472 52.6592 20.5441 52.6592C16.9391 52.6585 15.1835 49.4478 15.9712 46.1928Z" fill="#A4A4A4"/>
<path d="M41.6883 59.2535C42.769 59.2535 42.7126 59.1644 43.0511 59.1644C43.3882 59.1644 43.4116 59.3652 43.4116 59.4993C43.4116 59.99 42.3067 60.5918 40.3467 60.5918C39.1978 60.5918 38.4989 59.9894 38.2966 59.3209C37.1704 60.0343 35.4588 60.6809 33.7685 60.6809C29.1509 60.6809 27.9793 58.6954 26.5366 58.0508C25.4325 57.56 23.7428 58.5191 21.377 55.9108C21.6927 55.9782 22.1213 55.9999 22.4591 55.9999C24.5306 55.9999 25.6347 54.9987 25.6347 53.3923C25.6347 53.1908 25.612 52.9703 25.5893 52.7701C26.2209 53.0152 27.6635 54.0838 28.002 55.9782C28.046 56.2014 28.9693 56.4015 29.5554 56.4015C30.3672 56.4015 31.4033 56.0666 31.5608 54.7529C34.2645 54.5304 36.0903 52.9485 36.4735 50.9398C37.4408 51.2522 38.545 52.1215 38.8153 52.5687C39.1985 52.4353 39.6485 52.3679 40.1665 52.3679C40.8875 52.3679 41.6993 52.502 42.6672 52.7919C42.7126 52.502 42.7574 52.1453 43.2087 52.1453C43.8842 52.1453 43.704 52.8811 43.9296 53.3024C44.0425 53.5257 44.6066 53.6591 44.6066 54.1056C44.6066 54.5304 44.244 54.6869 44.0191 54.6869C43.9289 54.6869 43.8161 54.6645 43.748 54.6427C43.2981 54.7985 43.2747 58.0066 41.3828 58.0066C39.9869 58.0066 38.7025 56.8698 38.1384 55.4445C37.9809 55.0211 37.6431 54.7529 37.3273 54.7529C36.9675 54.7529 36.7645 54.8203 36.3373 55.2886C35.121 56.6023 33.0929 57.7391 30.5922 57.7391C29.8258 57.7391 29.2176 57.671 29.0594 57.671C28.9686 57.671 28.9686 57.6934 28.9686 57.7152C28.9686 57.8718 29.7343 58.4742 31.4019 58.4742C35.3673 58.4742 36.3366 56.2668 36.9668 56.2668C37.0583 56.2668 37.3266 56.2668 37.4841 56.6241C38.4094 58.7628 40.4265 59.2535 41.6883 59.2535ZM39.9415 54.7985C39.9415 55.2893 40.3474 55.6909 40.8434 55.6909C41.3395 55.6909 41.7447 55.2893 41.7447 54.7985C41.7447 54.3071 41.3395 53.9055 40.8434 53.9055C40.3474 53.9055 39.9415 54.3071 39.9415 54.7985Z" fill="#A4A4A4"/>
<path d="M57.7847 43.6736C57.469 43.6736 57.1312 43.9193 57.1312 44.5224C57.1312 45.1888 57.6499 45.6135 57.9423 45.7463C58.1005 45.8368 58.3489 45.926 58.5945 45.926C59.2487 45.926 59.7681 45.7463 59.7681 45.2106C59.7674 44.5224 58.752 43.6736 57.7847 43.6736ZM55.3542 45.0547C54.8809 45.0547 52.2639 48.5098 50.5777 48.5098C50.1725 48.5098 49.834 47.7522 49.834 47.175C49.834 46.8626 50.0362 46.6393 50.7593 46.4821C54.6332 45.6128 53.776 42.7363 57.0851 42.7363C58.9095 42.7363 60.9404 43.9643 60.9404 46.7271C60.9404 49.6697 56.7074 53.3242 56.0758 53.3242C55.5571 53.3242 54.9937 52.5891 54.9937 52.099C54.9937 51.9431 55.0618 51.7423 55.5124 51.564C57.6726 50.7159 58.9102 48.7548 58.9102 47.7508C58.9102 47.5276 58.7981 47.307 58.505 47.307C58.1225 47.307 56.4824 51.0058 54.6552 51.0058C53.3914 51.0058 52.1063 49.8718 52.1063 49.3354C52.1063 48.4424 55.7601 46.7945 55.7601 45.5448C55.7594 45.0758 55.5344 45.0547 55.3542 45.0547Z" fill="#A4A4A4"/>
<path d="M10.7667 15.8335C10.7667 15.8335 10.1138 16.3229 9.30273 16.3229C8.33477 16.3229 7.56839 15.6103 7.56839 14.607C7.56839 13.9154 7.92888 13.2027 8.762 12.8454C8.73998 12.9795 8.73998 13.0904 8.73998 13.2245C8.73929 14.496 9.46027 15.4537 10.7667 15.8335ZM15.5879 20.1136C15.0926 20.6922 14.5739 21.6737 14.5739 22.6763C14.5739 23.8798 15.3182 24.8824 16.4671 24.8824C17.5706 24.8824 18.0893 23.9465 18.0893 22.9888C18.0893 21.4954 16.7148 20.4464 15.5879 20.1136ZM8.10912 21.0046C8.06647 21.0733 8.04101 21.1611 8.04101 21.2503C8.04101 21.4511 8.26666 21.6737 8.46824 21.6737C8.64848 21.6737 8.76131 21.6295 8.85143 21.6295C9.39148 21.6295 10.0003 22.0079 10.8788 22.0079C11.3962 22.0079 12.005 21.8514 12.7707 21.4736C14.3929 20.6704 15.0245 18.6869 15.0245 18.352C15.0245 17.928 14.6805 17.9838 14.3929 17.5937C14.1054 17.2051 14.2154 16.8613 14.0325 16.6796C13.9286 16.5755 13.6052 16.5687 13.1986 16.5237C13.0631 16.5094 12.8829 16.5013 12.7026 16.5013C11.9603 16.5013 11.079 16.5918 10.0898 17.2153C8.13595 18.4494 8.42352 20.492 8.10912 21.0046ZM13.403 18.2404C13.5591 18.4507 13.9898 18.7094 13.9898 18.8652C13.9898 19.1763 13.8082 19.5786 13.4484 19.5786C12.6593 19.5786 12.0291 18.3969 12.0291 17.7272C12.0291 17.3045 12.2775 17.2602 12.6146 17.2602C12.7721 17.2602 12.8402 17.2827 12.9524 17.3494C13.1546 17.461 13.1546 17.9062 13.403 18.2404ZM11.3295 20.9604C10.5865 20.9604 9.77536 20.0469 9.77536 19.2212C9.77536 18.7761 10.1131 18.2179 10.3608 18.2179C10.4509 18.2179 10.4963 18.2853 10.5184 18.4419C10.6532 19.5337 11.3749 20.1585 12.0511 20.4696C12.1185 20.5138 12.164 20.5363 12.164 20.5805C12.164 20.7371 11.7354 20.9604 11.3295 20.9604ZM13.2454 15.3428C13.3576 14.9854 13.4477 14.5409 13.4477 14.0495C13.4477 12.9801 12.951 11.3527 11.4196 11.3527C10.5417 11.3527 9.90951 12.0435 9.90951 12.8685C9.90951 14.6301 11.69 15.3428 13.2454 15.3428ZM7.41016 24.2589C7.41016 25.9524 7.92888 26.7556 8.85212 26.7556C9.5731 26.7556 10.5417 26.2424 11.69 25.2615C10.8121 25.4623 10.1352 25.5964 9.52769 25.5964C8.71659 25.5964 8.08642 25.284 7.41016 24.2589ZM8.19925 22.2747C8.17723 22.387 8.17723 22.498 8.17723 22.6089C8.17723 23.6565 8.73929 24.2364 9.48298 24.2364C10.0444 24.2364 10.6993 23.9022 11.2834 23.1657C11.0371 23.21 10.7433 23.2324 10.473 23.2324C9.64052 23.2324 8.73929 23.0105 8.19925 22.2747ZM13.7187 21.963C13.1993 22.0964 12.1185 22.7206 12.1185 23.8348C12.1185 24.6367 12.7487 25.1506 13.5378 25.1506C13.9437 25.1506 14.2361 25.0607 14.4163 24.9273C13.7862 24.3256 13.5605 23.6565 13.5605 22.9888C13.5605 22.5198 13.6279 22.2305 13.7187 21.963ZM14.5292 15.8553C14.5292 16.3454 14.9344 16.7477 15.4297 16.7477C15.9257 16.7477 16.3316 16.3461 16.3316 15.8553C16.3316 15.3652 15.9257 14.9629 15.4297 14.9629C14.9344 14.9629 14.5292 15.3652 14.5292 15.8553ZM15.7001 17.8612C15.7001 18.352 16.1066 18.7536 16.6034 18.7536C17.098 18.7536 17.5039 18.352 17.5039 17.8612C17.5039 17.3718 17.098 16.9702 16.6034 16.9702C16.106 16.9702 15.7001 17.3718 15.7001 17.8612Z" fill="#A4A4A4"/>
<path d="M50.849 28.8058C50.849 28.3606 51.2549 27.9815 51.7 27.9815C52.1967 27.9815 52.5799 28.3606 52.5799 28.8058C52.5799 29.3183 52.196 29.6757 51.7 29.6757C51.2549 29.6757 50.849 29.3183 50.849 28.8058ZM42.9388 21.9405C42.9388 22.4306 43.3454 22.8322 43.8394 22.8322C44.3368 22.8322 44.7427 22.4306 44.7427 21.9405C44.7427 21.4511 44.3361 21.0495 43.8394 21.0495C43.3454 21.0495 42.9388 21.4511 42.9388 21.9405ZM42.1738 25.0832C42.1738 25.7748 42.7579 26.3533 43.4576 26.3533C44.1552 26.3533 44.7427 25.7748 44.7427 25.0832C44.7427 24.393 44.1552 23.8124 43.4576 23.8124C42.7579 23.8124 42.1738 24.393 42.1738 25.0832ZM45.013 23.6565C45.013 24.4155 45.6219 25.0165 46.3835 25.0165C47.1492 25.0165 47.7601 24.4155 47.7601 23.6565C47.7601 22.8989 47.1492 22.2972 46.3835 22.2972C45.6219 22.2972 45.013 22.8989 45.013 23.6565ZM45.1265 20.7589C45.1265 21.2279 45.5097 21.6077 45.9782 21.6077C46.4516 21.6077 46.8348 21.2279 46.8348 20.7589C46.8348 20.2919 46.4509 19.9128 45.9782 19.9128C45.5097 19.9128 45.1265 20.2919 45.1265 20.7589ZM49.2027 18.6202C49.2027 19.0872 49.5859 19.4663 50.0599 19.4663C50.5332 19.4663 50.9171 19.0872 50.9171 18.6202C50.9171 18.1512 50.5332 17.7721 50.0599 17.7721C49.5859 17.7721 49.2027 18.1512 49.2027 18.6202ZM47.5117 21.362C47.5117 22.1413 48.1653 22.7873 48.9544 22.7873C49.7441 22.7873 50.3984 22.1413 50.3984 21.362C50.3984 20.5805 49.7448 19.9353 48.9544 19.9353C48.1653 19.9353 47.5117 20.5805 47.5117 21.362ZM45.1933 26.5773C45.1933 27.068 45.5992 27.4683 46.0911 27.4683C46.5871 27.4683 46.9937 27.068 46.9937 26.5773C46.9937 26.0865 46.5871 25.6856 46.0911 25.6856C45.5992 25.6856 45.1933 26.0865 45.1933 26.5773ZM48.1433 24.7932C48.1433 25.284 48.5485 25.6856 49.0459 25.6856C49.5412 25.6856 49.9471 25.284 49.9471 24.7932C49.9471 24.3038 49.5412 23.9022 49.0459 23.9022C48.5485 23.9022 48.1433 24.3038 48.1433 24.7932ZM47.3094 27.9366C47.3094 28.7833 48.0077 29.4749 48.8649 29.4749C49.7214 29.4749 50.4218 28.7833 50.4218 27.9366C50.4218 27.0898 49.7214 26.3983 48.8649 26.3983C48.0077 26.3983 47.3094 27.0898 47.3094 27.9366ZM50.5552 26.0409C50.5552 26.6215 51.0292 27.0898 51.6113 27.0898C52.1974 27.0898 52.6707 26.6215 52.6707 26.0409C52.6707 25.4623 52.1974 24.994 51.6113 24.994C51.0292 24.994 50.5552 25.4623 50.5552 26.0409ZM50.4878 23.2324C50.4878 23.7464 50.9171 24.1697 51.4296 24.1697C51.949 24.1697 52.3776 23.7464 52.3776 23.2324C52.3776 22.7206 51.949 22.2972 51.4296 22.2972C50.9171 22.2972 50.4878 22.7206 50.4878 23.2324Z" fill="#A4A4A4"/>
<path d="M52.782 52.4795C52.1958 52.926 50.8254 53.9273 48.5476 53.9273C47.3306 53.9273 46.7891 53.5481 46.6089 53.5481C46.3832 53.5481 46.1356 53.7707 45.8872 54.0614C45.352 54.6862 44.6523 55.8454 44.6523 57.1149C44.6523 58.0059 45.352 58.8962 46.6536 58.8962C50.8708 58.8962 54.0223 56.2892 54.0223 54.173C54.0223 52.9703 53.3014 52.4795 52.782 52.4795ZM51.6104 52.2344C51.7927 52.0806 51.8353 51.8335 51.8353 51.5871V51.0746C51.8353 50.4273 50.8481 50.0502 49.4949 50.0502C47.8486 50.0502 46.9694 50.7839 46.9694 51.097V52.1221C46.9694 52.5469 47.9621 52.9703 49.1798 52.9703C50.1491 52.9703 51.0284 52.7252 51.6104 52.2344ZM51.4287 54.4412C51.5423 54.4412 51.6764 54.5072 51.6764 54.9095C51.6764 55.3989 51.4521 56.0449 50.6445 56.5567C50.081 56.9372 49.314 57.2496 48.1871 57.2694C48.3673 56.7364 48.5029 56.1776 48.5029 55.6453C48.5029 55.4663 48.4808 55.3322 48.4581 55.1321H48.7512C50.5323 55.1327 51.2994 54.4412 51.4287 54.4412Z" fill="#A4A4A4"/>
<path d="M42.8247 27.202C43.0724 29.0957 45.6433 28.1373 45.6433 30.4325C45.6433 30.7674 45.5532 31.2588 45.5532 31.6815C45.5532 32.1723 45.5972 32.5957 45.977 32.5957C46.3595 32.5957 46.4503 32.3289 46.4503 31.9715C46.4503 31.6141 46.3595 31.169 46.3595 30.9239C46.3595 30.1432 46.9236 29.9656 47.2628 29.9656C48.1193 29.9656 48.7728 30.8348 50.0586 30.8348C49.7649 32.2615 46.7887 31.8823 46.7887 33.4431C46.7887 34.2238 47.5778 34.4008 48.0966 34.4008C48.5699 34.4008 48.7281 34.3341 48.7281 33.9339C48.7281 33.7099 48.6827 33.4649 48.6827 33.309C48.6827 33.2192 48.7508 33.13 48.8636 33.13C49.361 33.13 51.7895 34.9583 51.7895 35.5164C51.7895 36.0283 49.2241 36.5408 48.4804 36.5408C48.2548 36.5408 48.2094 36.385 48.2094 36.2958C48.2094 36.1399 48.5926 35.6716 48.5926 35.4048C48.5926 35.204 48.2548 35.0699 47.3522 35.0699C46.9236 35.0699 46.6078 35.1148 46.6078 35.4497C46.6078 36.0501 47.5999 36.7866 47.5999 37.3427C47.5999 37.7892 47.3295 38.0567 46.6078 38.0567C45.999 38.0567 45.0785 37.5877 45.0785 36.8084C45.0785 36.1842 45.7286 35.5614 45.7286 35.1815C45.7286 35.0699 45.6426 34.8916 45.3722 34.8916C44.5371 34.8916 44.3121 37.0752 41.3594 37.3209C41.8327 36.8975 42.2372 36.4292 42.2372 35.4722C42.2372 35.0039 42.1258 34.6241 42.1258 34.1122C42.1258 33.4431 42.4402 33.1082 42.8908 33.1082C43.7239 33.1082 44.1298 34.2667 44.6726 34.2667C44.9663 34.2667 45.2814 34.0006 45.2814 33.599C45.2814 31.9048 41.9909 32.1498 41.9909 29.7648C41.9916 29.1181 42.2159 28.3156 42.8247 27.202ZM53.5707 33.7331C53.5707 34.2892 53.7523 34.9358 54.3157 34.9358C54.789 34.9358 55.1942 34.2238 55.1942 33.4431C55.1942 32.5514 55.0367 31.8599 55.0367 31.5025C55.0367 31.3473 55.1048 31.2806 55.1942 31.2806C55.5327 31.3031 55.8478 32.2165 56.2097 32.2165C56.6156 32.2165 57.2203 31.4801 57.4673 31.4801C57.5354 31.4801 57.5574 31.5699 57.5574 31.5917C57.5574 31.9266 57.0387 32.6631 57.0387 32.9523C57.0387 33.1974 58.3465 33.2416 58.3465 33.4649C58.3465 33.7998 56.9754 33.7998 56.3225 34.0897C55.6916 34.3566 55.3064 34.6908 55.3064 35.1373C55.3064 35.5831 55.7577 35.6716 56.3892 35.6716C57.8945 35.6716 58.9539 34.8698 59.2917 34.8698C59.3591 34.8698 59.4039 34.9134 59.4039 34.9807C59.4039 35.204 58.6382 35.9391 58.6382 36.274C58.6382 36.6525 60.0361 37.097 60.0134 37.3209C59.9914 37.3876 59.9006 37.4094 59.743 37.4094C59.494 37.4094 59.1115 37.3427 58.8177 37.3427C58.6375 37.3427 58.4799 37.3645 58.4111 37.4536C58.255 37.6326 58.4565 38.8143 58.1428 38.8143C57.8491 38.8143 57.0827 36.1842 55.3518 36.1842C55.1034 36.1842 54.9232 36.385 54.9232 36.7192C54.9232 37.6102 55.8024 38.6353 56.6369 39.126C57.0146 39.3718 57.6468 39.6168 57.6468 39.7516C57.6468 40.0177 56.2083 39.7734 56.2083 40.2185C56.2083 40.6201 56.3885 41.2232 56.3885 41.5785C56.3885 41.6901 56.3658 41.8229 56.231 41.8229C55.9606 41.8229 55.3057 40.5977 54.9906 40.5977C54.7202 40.5977 54.1341 41.3328 53.8857 41.3328C53.8183 41.3328 53.7736 41.2661 53.7736 41.2001C53.7736 40.6868 54.6081 39.5283 54.6081 38.3909C54.6081 37.8559 54.54 36.6967 53.8857 36.6967C53.345 36.6967 52.7355 37.5435 52.4651 38.3909C52.3082 38.881 52.4204 40.776 52.0592 40.776C51.7214 40.776 51.8115 39.5059 51.3596 39.5059C51.0273 39.5059 50.3056 40.1069 50.0572 40.1069C50.0118 40.1069 49.9664 40.0844 49.9664 40.0402C49.9664 39.7734 50.6207 38.9035 50.6207 38.7251C50.6207 38.3909 49.1326 38.3467 49.1326 38.0792C49.1326 37.9226 49.7188 37.8117 50.2595 37.7218C51.4056 37.521 53.096 36.6967 53.096 35.5382C53.096 34.2456 51.8336 33.6875 51.0039 33.1525C50.5753 32.885 50.102 32.6631 50.102 32.4847C50.102 32.3057 50.6427 32.3057 50.8683 32.3057C51.2061 32.3057 51.5405 32.2832 51.5405 32.0164C51.5405 31.8149 51.4951 31.4147 51.4951 31.1023C51.4951 30.879 51.5171 30.7007 51.6086 30.7007C51.9464 30.7007 52.4197 31.7925 52.646 31.7925C53.0058 31.7925 53.5019 30.9008 53.841 30.9008C53.9525 30.9008 53.9986 30.9682 53.9986 31.1683C53.9999 31.9933 53.5707 32.9292 53.5707 33.7331Z" fill="#A4A4A4"/>
<path d="M43.4792 39.9062C44.5167 40.0402 44.765 40.3962 44.765 40.6869C44.765 41.1777 44.3137 41.3328 43.8845 41.3328C43.5701 41.3328 43.2089 41.2661 42.8257 41.2661C42.329 41.2661 41.8343 41.3778 41.4291 41.8461C41.7215 41.8903 42.1501 42.0918 42.1501 42.5383C42.1501 43.8309 38.5232 42.7595 38.5232 46.0826C38.5232 47.8428 40.371 49.7609 43.1635 49.7609C44.6075 49.7609 45.5314 49.2926 45.5314 48.7563C45.5314 48.3336 44.7657 48.6222 44.7657 48.2655C44.7657 48.1096 45.0361 47.819 45.0361 47.5726C45.0361 47.465 44.946 47.2629 44.7657 47.2629C44.3585 47.2629 43.5921 47.9075 42.0373 47.9075C40.8203 47.9075 39.626 47.2186 39.626 46.2813C39.626 46.0812 39.7168 45.9689 39.8516 45.9689C39.9872 45.9689 40.1667 46.0588 40.325 46.0588C40.4605 46.0588 40.4825 45.9689 40.4825 45.7245C40.4825 45.4788 40.4825 44.7873 40.9097 44.7873C41.339 44.7873 42.1501 46.348 45.2611 46.348C46.2937 46.348 48.3005 46.1486 49.0448 45.4788C49.0221 47.9313 47.0821 51.1631 43.0286 51.1631C38.8156 51.1631 36.5625 47.819 36.5625 44.7423C36.5625 41.3328 39.3776 38.2351 43.2316 38.2351C44.2216 38.2351 45.0574 38.5686 45.0574 38.9927C45.0567 39.5733 43.5914 39.216 43.4792 39.9062ZM50.3967 41.0892C50.5542 41.3328 50.6223 41.5786 50.6223 41.8011C50.6223 42.426 50.1937 43.0053 50.1937 43.6526C50.1937 44.3877 50.7579 44.9887 51.6102 44.9887C52.5342 44.9887 53.1657 44.255 53.1657 43.3844C53.1657 42.2027 52.0835 41.2001 50.3967 41.0892ZM42.9378 42.5152C43.1621 42.7371 43.2309 42.9603 43.2309 43.1836C43.2309 43.5178 43.0733 43.8752 43.0733 44.2543C43.0733 44.7873 43.4792 45.2562 44.064 45.2562C44.6962 45.2562 45.1255 44.7648 45.1255 44.1876C45.1255 43.3401 44.2436 42.5152 42.9378 42.5152ZM45.9325 38.7252C48.2998 39.171 49.5849 40.9326 49.5849 42.5826C49.5849 43.72 48.8639 44.7655 47.6008 44.7655C46.4505 44.7655 45.6209 43.9861 45.6209 42.7378C45.6209 41.8018 46.3597 40.821 46.3597 39.8619C46.3597 39.4835 46.2476 39.1043 45.9325 38.7252ZM47.1048 41.6902C47.1048 42.0019 47.3304 42.2477 47.6462 42.2477C48.006 42.2477 48.2324 41.9352 48.2324 41.5786C48.2324 41.1109 47.8038 40.4643 47.3979 40.4643C47.2169 40.4643 47.285 40.7318 47.2403 41.0218C47.2169 41.2437 47.1048 41.5112 47.1048 41.6902Z" fill="#A4A4A4"/>
<path d="M22.2353 18.7536C23.001 18.7536 23.8788 14.6518 23.8788 13.9603C23.8788 13.7819 23.8121 13.6478 23.6546 13.6478C22.9556 13.6478 21.9876 17.5494 21.9876 18.4193C21.987 18.5752 22.0317 18.7536 22.2353 18.7536ZM27.7548 19.9794C28.3169 19.9794 28.9477 17.8387 28.9477 16.5012C28.9477 16.2112 28.903 15.9002 28.7668 15.9002C28.2935 15.9002 27.5051 18.1069 27.5051 19.3103C27.5058 19.7786 27.6193 19.9794 27.7548 19.9794ZM24.0804 17.9953C24.3281 17.9953 24.6439 17.7264 25.2314 17.0818C25.2754 16.7919 25.2754 16.5237 25.2754 16.1895C25.2754 15.7443 25.0952 15.2535 24.8255 15.2535C24.1485 15.2535 23.8114 17.0369 23.8114 17.5059C23.8121 17.772 23.9463 17.9953 24.0804 17.9953ZM27.168 17.0818C27.168 16.702 27.0772 16.6128 26.9877 16.6128C26.7621 16.6128 26.5151 16.881 26.1546 17.4827C26.1993 18.2852 26.3349 18.6419 26.5598 18.6419C26.8075 18.6419 27.168 17.8612 27.168 17.0818ZM28.903 14.451C30.3904 14.451 31.0653 15.7218 31.0653 17.1485C31.0653 17.772 30.8864 18.6868 30.5933 18.6868C30.3003 18.6868 30.3457 18.1736 30.3003 17.7053C30.2555 17.1036 30.142 16.9702 29.9391 16.9702C29.5559 16.9702 29.3089 17.8612 29.3089 18.6868C29.3089 19.1987 29.399 19.7786 29.8035 19.7786C30.0292 19.7786 30.2321 19.667 30.3677 19.5336C30.2776 20.558 29.5105 21.4511 28.4297 21.4511C26.447 21.4511 25.7033 19.1545 25.479 17.8169C24.2847 19.0653 23.1813 19.9794 21.1979 19.9794C19.3514 19.9794 18.5176 18.6419 18.5176 17.3718C18.5176 16.992 18.6524 16.0118 19.1264 16.0118C19.6892 16.0118 19.1938 17.8387 20.2973 17.8387C20.5684 17.8387 21.0623 17.6155 21.3341 16.881C21.4916 16.4345 21.5817 15.9676 21.5817 15.5653C21.5817 14.9629 21.4469 14.5851 20.9963 14.5851C20.6124 14.5851 20.1391 14.8737 19.9816 15.0303C20.523 13.4252 21.8294 12.601 23.2693 12.601C25.0511 12.601 25.9964 14.1611 25.9964 15.9002C25.9964 16.1445 25.9737 16.412 25.9283 16.6578C26.6947 15.4094 27.7548 14.451 28.903 14.451Z" fill="#A4A4A4"/>
<path d="M24.6901 20.4464C23.7214 20.4464 23.6767 21.6076 23.6767 23.9464C22.955 22.4088 21.7621 20.7588 20.3649 20.7588C19.4189 20.7588 19.0591 21.3837 19.0591 22.4748C19.0591 22.6981 19.0811 23.033 19.1265 23.2324C19.2394 22.8546 19.5999 22.6981 20.0498 22.6981C21.0198 22.6981 22.1907 23.4332 22.9564 24.4372C22.0786 24.2813 21.2221 24.1248 20.5018 24.1248C20.0505 24.1248 19.6453 24.1697 19.3075 24.3256C18.6539 24.6148 17.7754 25.5739 17.7754 27.0231C17.7754 27.2463 17.7981 27.4907 17.8435 27.7582C18.6319 26.0191 20.7267 25.239 22.0786 25.239C22.3496 25.239 22.5512 25.2615 22.7094 25.2839C22.0105 25.9074 21.8536 26.9999 21.8075 27.7357C21.7862 28.0924 21.65 28.1155 21.4016 28.1155C21.4016 28.85 21.9885 29.9432 21.9885 30.4999C21.9885 30.7007 21.8756 30.8791 21.7635 30.924C21.7635 31.9048 22.7535 32.6182 22.7535 33.2417C22.7535 33.3976 22.7094 33.5317 22.6406 33.599C22.7094 34.0006 23.7992 34.6752 23.9402 35.0135C24.1136 35.4246 24.3083 35.494 24.4211 35.494C24.8043 35.494 25.4111 35.0475 25.4111 34.6459C25.4111 34.5125 25.2982 34.3566 25.2095 34.2892C24.7809 33.9782 24.5552 33.3091 24.375 32.8639C24.2168 32.8639 24.0131 32.7979 23.9416 32.5352C23.8184 32.0737 23.8122 31.214 23.632 30.7007C23.3389 30.634 23.2034 30.5224 23.2034 29.9207C23.2034 29.6307 23.3843 28.4933 23.3843 28.0917C23.2495 28.0917 23.0692 28.0026 23.0692 27.735C23.0692 27.0224 23.7909 26.4649 23.9925 25.5515C25.2769 26.4867 25.5913 27.4451 25.5913 28.2932C25.5913 28.7377 25.5239 29.1617 25.4338 29.564C26.3804 29.095 27.7996 28.4042 27.7996 26.9999C27.7996 26.1743 27.4165 25.2608 24.8703 24.9041C25.6587 24.6142 26.6508 24.459 27.4839 24.459C28.9265 24.459 29.7596 24.9041 29.9392 25.9068C30.2323 25.4616 30.4579 24.9484 30.4579 24.4808C30.4579 23.3876 29.5333 22.6756 28.3624 22.6756C26.9879 22.6756 25.7715 23.3876 24.4644 24.2582C25.0519 23.0547 25.4551 22.3414 26.1774 22.3414C26.2896 22.3414 26.4024 22.3639 26.5152 22.3863C26.2449 21.4062 25.2315 20.4464 24.6901 20.4464Z" fill="#A4A4A4"/>
<path d="M62.6491 36.5184C63.7773 36.5184 64.6785 37.9669 64.6785 39.6618C64.6785 41.4669 63.8213 43.4293 62.2934 44.7655C62.2707 41.7569 58.5488 42.7153 58.5488 40.5317C58.5488 39.5958 59.2265 38.9709 60.0383 38.9709C60.7599 38.9709 61.3234 39.1717 61.7293 39.574C61.3234 39.1942 61.1204 38.6585 61.1204 38.1466C61.1204 37.2978 61.6618 36.5184 62.6491 36.5184Z" fill="#A4A4A4"/>
<path d="M42.5327 15.3427C43.1195 15.9002 43.6362 16.1445 44.2678 16.1445C44.5168 16.1445 44.8106 16.0785 44.9688 16.0785C45.1717 16.0785 45.3059 16.167 45.3059 16.3229C45.3059 16.5686 45.0802 16.9702 44.8106 17.1935C45.0802 17.3044 45.374 17.3493 45.6898 17.3493C46.9694 17.3493 48.4347 16.5461 48.4347 14.5409C48.7065 14.8962 48.864 15.6327 48.864 15.9676C48.864 18.3969 47.0595 19.3328 45.396 19.3328C44.3138 19.3328 43.7717 18.9755 43.6355 18.9755C43.2083 18.9755 43.231 19.8236 42.9379 19.8011C42.4192 19.7119 41.9473 18.5752 41.9473 17.3718C41.948 16.6578 42.1282 15.9002 42.5327 15.3427ZM45.9333 13.7152C45.7531 13.4253 45.0802 13.2701 44.7658 13.2701C43.7724 13.2701 43.0962 13.9603 42.9613 14.5851C42.8712 14.3619 42.8038 14.0944 42.8038 13.8269C42.8038 12.846 43.48 11.6426 45.127 11.6426C46.5648 11.6426 47.1283 12.4002 47.3319 12.4002C47.5569 12.4002 47.7825 12.1769 47.9635 12.1769C48.2111 12.1769 48.2111 12.556 48.2111 12.8242C48.2111 13.7152 47.8045 15.2535 46.7905 15.811C46.6096 15.4319 46.2491 15.0078 45.6671 14.741C45.5095 14.6743 45.4421 14.5409 45.4421 14.4068C45.4414 14.1611 45.6664 13.8486 45.9333 13.7152Z" fill="#A4A4A4"/>
<path d="M26.8735 8.85591C26.8735 9.63596 29.6893 13.4477 30.2307 13.4477C30.682 13.4477 31.0191 12.6677 31.0191 11.9979C31.0191 11.8209 30.9737 11.6433 30.8849 11.5085C30.479 10.951 27.6178 8.72182 26.9863 8.72182C26.9182 8.72182 26.8735 8.7892 26.8735 8.85591ZM10.3143 6.56C10.3143 7.00652 8.60263 8.49924 7.99516 8.49924C7.7702 8.49924 7.7014 8.23241 7.7014 7.98737C7.7014 7.54221 7.90435 6.91735 8.15271 6.71587C8.4444 6.44837 9.12066 6.31632 9.6387 6.31632C9.95378 6.31632 10.3143 6.38166 10.3143 6.56ZM30.8849 7.85328C30.8849 6.51508 27.2298 4.08576 27.1892 3.03888C27.1851 2.94291 27.2381 2.84761 27.3199 2.76253C27.946 2.10908 30.5458 1.63261 30.5458 1.07582C30.5458 0.787218 30.0044 0.787218 29.734 0.787218C27.6392 0.787218 24.575 1.54481 24.575 2.27993C24.575 3.03888 27.3234 4.88895 27.3234 5.80309C27.3234 6.04813 27.1658 6.1373 26.9175 6.1373C26.1525 6.1373 24.4849 5.22248 23.6965 5.22248C23.336 5.22248 23.1998 5.46752 23.1998 5.82555C23.1998 6.89489 24.4842 8.92329 24.4842 9.52365C24.4842 9.59103 24.4615 9.6802 24.3713 9.6802C23.9654 9.6802 22.0522 7.45236 21.3753 7.45236C21.1283 7.45236 21.1049 7.78589 21.1049 8.27666V9.03424C21.1049 9.54679 21.0822 9.85922 20.8359 9.85922C20.2484 9.85922 19.9787 8.23241 19.416 8.23241C18.8298 8.23241 18.717 11.1294 18.1549 11.1294C17.5007 11.1294 18.0641 7.94176 17.4333 7.94176C16.735 7.94176 15.9459 10.06 15.4499 10.06C15.2703 10.06 15.2256 9.881 15.2256 9.72513C15.2256 9.07917 15.6074 8.03161 15.6074 7.40812C15.6074 7.09501 15.5173 6.91735 15.2483 6.91735C14.5487 6.91735 13.0173 8.03161 12.4318 8.03161C12.3417 8.03161 12.2289 7.98737 12.2289 7.89752C12.2289 7.36387 14.6842 5.669 14.6842 4.91141C14.6842 4.17492 11.3036 4.66637 11.3036 3.81825C11.3036 3.10559 13.7162 2.36978 13.7162 1.63397C13.7162 0.987336 10.8543 0.69873 9.75083 0.69873C8.42101 0.69873 7.70072 0.853243 7.70072 1.23238C7.70072 1.81231 10.7202 1.99133 10.7202 2.50319C10.7202 2.99396 7.58789 4.30902 7.58789 5.0666C7.58789 5.73571 12.0032 5.11085 12.0032 5.80309C12.0032 6.56 8.15202 9.83608 8.15202 10.9286C8.15202 11.1743 8.33226 11.2859 8.57924 11.2859C9.75083 11.2859 12.7909 9.07917 13.6254 9.07917C13.9185 9.07917 13.9412 9.43516 13.9412 9.74759C13.9412 10.3275 13.7389 11.2185 13.7389 11.8658C13.7389 12.3777 13.8738 12.7344 14.3237 12.7344C15.1589 12.7344 15.9232 11.3302 16.488 11.3302C17.2083 11.3302 16.7804 15.4537 17.8619 15.4537C18.7851 15.4537 19.1676 10.9959 19.7538 10.9959C20.3399 10.9959 20.8139 12.2885 21.354 12.2885C22.0288 12.2885 21.7138 10.0376 22.4354 10.0376C23.2231 10.0376 25.4762 12.7126 26.4903 12.7126C26.8053 12.7126 26.9175 12.4669 26.9175 12.1544C26.9175 10.9728 25.2512 8.29912 25.2512 7.45236C25.2512 7.22978 25.318 7.1624 25.5656 7.1624C26.4442 7.1624 29.0137 8.36582 30.2293 8.36582C30.638 8.36582 30.8849 8.14324 30.8849 7.85328ZM28.5411 3.4398C28.5411 3.84071 29.9603 4.71061 30.6146 4.71061C30.9971 4.71061 31.1099 4.19739 31.1099 3.66238C31.1099 2.99396 30.8182 2.9715 30.2314 2.9715C29.4877 2.9715 28.5411 3.17229 28.5411 3.4398ZM23.2465 1.16567C23.2465 1.03158 22.571 0.897487 21.6477 0.897487C20.183 0.897487 20.386 2.10296 19.2598 2.10296C18.0882 2.10296 18.3799 0.853243 16.8932 0.853243C15.992 0.853243 15.1596 1.0098 15.1596 1.20992C15.1596 1.4781 16.2177 1.36647 16.2177 2.10296C16.2177 2.88233 13.9419 3.10559 13.9419 3.57389C13.9419 3.72976 14.1214 3.79647 14.3471 3.79647C14.8438 3.79647 15.6308 3.57389 16.1949 3.57389C16.5107 3.57389 16.8038 3.63992 16.8038 3.92988C16.8038 4.48735 15.5861 5.49066 15.5861 5.9365C15.5861 6.0706 15.6982 6.11552 15.8111 6.11552C16.2624 6.11552 17.0288 4.97812 17.749 4.97812C18.9433 4.97812 18.1556 7.49661 18.8078 7.49661C19.4834 7.49661 19.191 5.02168 20.1597 5.02168C20.9494 5.02168 21.5342 6.73834 22.0749 6.73834C22.2105 6.73834 22.3226 6.62739 22.3226 6.47083C22.3226 6.00389 21.647 5.04414 21.647 4.42065C21.647 4.04151 21.9174 3.8625 22.2779 3.8625C22.7952 3.8625 23.4942 4.17492 23.876 4.17492C24.0109 4.17492 24.1464 4.13068 24.1464 3.97481C24.1464 3.4398 22.143 2.86055 22.143 2.16966C22.1437 1.4781 23.2465 1.4781 23.2465 1.16567Z" fill="#A4A4A4"/>
<path d="M63.1898 4.77795C63.1898 6.76074 61.7292 8.2766 59.0902 8.69998C59.384 8.72176 59.6543 8.72176 59.9254 8.72176C63.0095 8.72176 64.1378 7.34068 64.1378 6.18217C64.1378 5.53485 63.7766 4.95628 63.1898 4.77795ZM59.384 7.02825C59.384 5.44569 55.5568 5.04409 55.5568 4.6881C55.5568 4.39881 57.6936 3.90737 58.7978 3.8849C57.1082 1.74555 54.7003 1.96881 54.7003 1.58968C54.7003 1.36642 56.5035 0.919895 58.1683 0.919895C59.5649 0.919895 60.872 1.23232 60.872 2.27988C60.872 2.86049 60.3987 3.46289 60.3987 4.35321C60.3987 4.84397 60.645 5.26735 61.3006 5.26735C62.001 5.26735 62.1571 4.53222 62.1571 3.75081C62.1571 3.10553 62.045 2.61477 62.045 2.30234C62.045 1.36642 62.6937 0.74292 63.6184 0.74292C64.3847 0.74292 64.5657 1.07577 65.6932 1.07577C65.0837 1.4338 64.8587 2.08044 64.8587 2.39151C64.8587 3.32879 65.469 3.97475 65.469 5.89221C65.469 9.41264 62.1351 10.661 58.0555 10.661C56.9341 10.661 55.7378 10.5718 54.5648 10.3942C54.3853 10.3717 54.3398 10.3275 54.3398 10.2158C54.3398 9.92587 55.9414 9.76932 55.9414 8.34399C55.9414 7.78584 55.7605 7.25151 55.7605 7.05139C55.7605 6.93976 55.8506 6.87238 55.9414 6.87238C56.2792 6.87238 56.9568 8.16497 58.2144 8.16497C58.5488 8.16497 59.384 8.05334 59.384 7.02825ZM63.0549 2.1029C63.0549 2.41397 63.3026 2.65901 63.6184 2.65901C63.9341 2.65901 64.1825 2.41397 64.1825 2.1029C64.1825 1.79047 63.9341 1.54475 63.6184 1.54475C63.3026 1.54475 63.0549 1.79047 63.0549 2.1029Z" fill="#A4A4A4"/>
<path d="M61.0527 22.698C61.0527 22.2304 59.8571 22.1861 59.7449 20.8704C59.7215 20.6703 59.6541 20.3143 59.4058 20.3143C59.0006 20.3143 59.3156 21.5402 58.865 21.5402C57.829 21.5402 57.4912 19.5336 57.108 19.5336C57.0172 19.5336 56.9098 19.6003 56.9098 19.8678C56.9098 20.1135 56.9552 20.2694 56.9552 20.558C56.9552 20.8486 56.8865 21.0494 56.6168 21.0494C56.0079 21.0494 55.4665 19.6445 54.9478 19.6445C54.835 19.6445 54.7228 19.7119 54.7228 19.8235C54.7228 20.091 55.1727 20.5804 55.1727 20.8262C55.1727 21.3618 53.7074 21.0712 53.7074 21.5177C53.7074 21.7185 53.9097 21.7845 54.1807 21.7845C54.6547 21.7845 55.3991 21.5851 55.7823 21.5851C56.0079 21.5851 56.3457 21.6294 56.3457 21.918C56.3457 22.2304 55.5339 22.6313 55.5339 22.9213C55.5339 23.0554 55.6688 23.1214 55.7816 23.1214C56.3904 23.1214 57.4678 22.0745 58.2342 22.0745C58.369 22.0745 58.7068 22.1412 58.7068 22.342C58.7068 22.6313 57.9411 23.1432 57.9411 23.5672C57.9411 23.6789 58.0099 23.8123 58.1447 23.8123C58.5479 23.8123 59.0893 22.7654 59.8564 22.7654C60.1494 22.7654 60.578 22.877 60.8044 22.877C60.9853 22.877 61.0527 22.7654 61.0527 22.698ZM61.6389 33.5091C62.0001 32.3955 62.4514 31.6141 63.1895 30.4107C62.4514 30.0329 60.4886 29.2291 60.4886 27.914C60.4886 26.3757 62.4266 25.1723 62.8284 25.1723C63.0093 25.1723 63.054 25.3288 63.054 25.6188C63.054 26.4206 62.6708 27.7132 62.6708 28.4048C62.6708 29.0283 63.0767 29.6313 63.4372 29.6313C63.8204 29.6313 64.8799 28.2938 64.8799 26.9781C64.8799 24.6148 62.7829 23.9021 62.1342 23.9021C61.5254 23.9021 60.4205 24.8823 57.8283 24.8823C52.9857 24.8823 51.8809 20.136 51.8809 18.0619C51.8809 17.9728 51.9022 17.9503 51.9249 17.9503C52.0377 17.9503 52.5124 18.5309 54.0445 18.5309C54.8336 18.5309 55.5553 18.3295 56.7055 18.3295C59.4044 18.3295 60.6001 20.1809 62.269 22.5421C63.2783 23.1656 65.6916 24.1696 65.6916 27.0005C65.6916 29.4972 63.0086 30.879 62.3592 33.554C63.3911 33.4431 64.0006 31.6141 65.0601 31.6141C65.6015 31.6141 65.8492 32.0382 65.8492 32.708C65.8492 33.6875 65.2851 35.1598 64.2029 36.0732C64.2249 35.984 64.2249 35.8717 64.2249 35.7383C64.2249 35.1148 63.9779 34.2238 63.2549 34.2238C62.1328 34.2238 61.7723 35.4273 61.1415 36.4292C60.4872 34.1564 59.608 32.1049 58.0312 30.8565C56.4358 29.5864 53.684 30.2766 53.684 27.9589C53.684 27.3341 54.0906 26.4431 54.0906 25.7297C54.0906 25.4847 54.0452 25.2614 53.909 25.0831C56.074 25.8863 55.3069 27.3116 56.6388 28.7832C57.4678 29.7205 59.7669 30.6115 61.0968 34.4675C61.1188 34.3566 61.1415 34.0673 61.1415 33.8665C61.1415 30.5673 56.7275 27.3341 56.3443 25.9965C58.9084 26.2865 59.359 26.9114 60.5767 30.2548C60.8264 30.9464 61.6389 32.663 61.6389 33.5091Z" fill="#A4A4A4"/>
<path d="M49.3151 9.92593C47.7362 9.92593 46.6995 9.14656 46.6995 8.74428C46.6995 8.54348 46.8343 8.41075 47.0159 8.41075C47.5113 8.41075 48.5934 9.16766 48.9532 9.16766C49.0447 9.16766 49.1114 9.12409 49.1114 8.99C49.1114 8.5884 48.7283 7.91998 48.7283 7.58646C48.7283 7.49661 48.7964 7.43058 48.9312 7.43058C49.5394 7.43058 50.4413 7.67562 50.916 7.67562C51.0735 7.67562 51.1182 7.58646 51.1182 7.49661C51.1182 7.00652 49.6522 6.04814 49.6522 5.75817C49.6522 5.49066 51.4739 5.08839 51.4739 4.66637C51.4739 4.21985 48.9972 4.53228 48.9972 4.10822C48.9972 3.79647 49.4713 3.26146 49.4713 3.01642C49.4713 2.90479 49.3804 2.86055 49.2236 2.86055C49.0206 2.86055 47.9385 3.28393 47.4872 3.28393C47.2622 3.28393 46.9912 3.23968 46.9912 2.92657C46.9912 2.41403 47.8704 1.85724 49.2463 1.85724C51.4732 1.85724 52.8044 3.37309 52.8044 5.91404C52.8058 9.12409 50.5328 9.92593 49.3151 9.92593ZM44.9232 5.69146C44.9232 5.44574 44.0426 4.97812 44.0426 4.71061C44.0426 4.66637 44.0866 4.64391 44.1547 4.64391C44.4037 4.64391 44.8323 4.73308 45.1715 4.73308C45.4646 4.73308 45.5093 3.48472 45.7308 3.48472C45.8884 3.48472 46.158 4.66637 46.4078 4.66637C46.7001 4.66637 47.2409 4.33148 47.4665 4.33148C47.5113 4.33148 47.5567 4.35326 47.5567 4.39887C47.5567 4.55474 46.9932 5.15577 46.9932 5.33411C46.9932 5.53491 48.2563 5.78063 48.2563 5.95897C48.2563 6.18223 46.9705 6.15977 46.9705 6.36056C46.9705 6.51508 47.4445 7.13993 47.4445 7.34073C47.4445 7.38566 47.4211 7.40812 47.3764 7.40812C47.1955 7.40812 46.4972 7.09501 46.2943 7.09501C46.0459 7.09501 45.6448 8.00915 45.4419 8.00915C45.3745 8.00915 45.3297 7.91998 45.3297 7.80835L45.2843 6.91735C45.2843 6.82819 45.2403 6.73834 45.1268 6.73834C44.8557 6.73834 44.337 6.71588 44.1781 6.71588C44.0653 6.71588 44.0205 6.69409 44.0205 6.64917C44.0199 6.47083 44.9232 5.84734 44.9232 5.69146ZM44.2675 9.34531C44.6294 9.34531 44.6968 10.2159 44.7656 10.7278C44.8103 10.9959 44.8557 11.0177 44.9686 11.0177C45.2396 11.0177 45.6668 9.99263 45.9565 9.99263C46.3837 9.99263 47.5346 11.1743 49.4506 11.1743C52.1749 11.1743 54.7451 9.27861 54.7451 5.93651C54.7451 2.70399 52.4439 0.809001 49.2697 0.809001C47.7603 0.809001 46.6541 1.54481 46.0679 1.54481C45.7122 1.56727 45.1715 0.67627 44.8998 0.67627C44.7876 0.67627 44.6748 0.897488 44.6748 1.2773C44.6748 1.52303 44.6748 2.3024 44.4037 2.3024C43.8616 2.3024 41.7675 0.765438 41.7675 1.32155C41.7675 1.83477 43.1627 3.39556 43.1627 3.79647C43.1627 4.19739 41.7895 4.5772 41.7895 4.84403C41.7895 5.33411 43.2535 5.42328 43.2535 6.04814C43.2535 6.67163 41.7207 7.1624 41.7207 7.6307C41.7207 8.00915 43.2535 7.74233 43.2535 8.20995C43.2535 8.67757 42.1273 10.2384 42.1273 10.6828C42.1273 10.7951 42.1493 10.7951 42.2387 10.7951C42.6673 10.7951 43.9518 9.34531 44.2675 9.34531Z" fill="#A4A4A4"/>
<path d="M34.0621 48.4887C34.0621 48.6895 33.994 48.9127 33.8138 49.1346C33.5675 48.6895 32.8678 48.4662 32.552 48.4669C30.2316 48.4669 31.1101 51.7886 28.632 51.7886C27.596 51.7886 27.5052 51.6545 27.1234 51.6545C26.9651 51.6545 26.875 51.7219 26.875 51.8553C26.875 52.4359 27.7088 53.8612 30.0293 53.8612C32.3498 53.8612 34.5808 52.4577 34.5808 50.7172C34.5808 50.4272 34.5134 50.1175 34.3779 49.8051C34.468 49.671 34.6943 49.5818 34.8966 49.5818C35.2564 49.5818 35.4594 49.9848 35.7971 49.9848C36.1583 49.9848 36.4287 49.7159 36.4287 49.3599C36.4287 49.0686 36.2711 48.8692 36.0015 48.7337C36.1817 48.601 36.3166 48.3777 36.3166 48.1327C36.3166 47.7522 36.0455 47.3976 35.5942 47.3976C35.3912 47.3976 35.2571 47.4656 35.0996 47.6181C35.0555 47.2192 34.8292 46.8401 34.4006 46.8401C34.0628 46.8401 33.8138 47.0844 33.8138 47.4649C33.8138 47.8189 34.0621 48.1102 34.0621 48.4887Z" fill="#A4A4A4"/>
<path d="M21.7152 44.3441C23.5177 44.7872 24.4189 45.7463 24.5985 46.8837C24.7787 47.9755 25.0037 48.8685 25.4316 49.313C25.995 49.9386 27.0992 50.4926 28.0685 50.4926C28.8796 50.4926 29.5318 50.2278 29.5318 49.4914C29.5318 48.6882 28.4283 46.883 26.8061 46.883C26.6486 46.883 26.4456 46.9062 26.22 46.9062C26.017 46.9062 25.724 46.8619 25.5444 46.7054C25.1846 46.3923 25.0711 44.7205 24.3955 43.7179C23.6525 42.603 22.8414 42.2905 21.7379 42.2905C20.9502 42.2905 20.0703 42.7132 20.0703 43.3381C20.0703 43.7193 20.2733 43.9861 21.7152 44.3441ZM28.0011 49.3362C27.3242 49.3362 26.3108 48.6215 26.3108 48.2199C26.3108 47.885 26.6266 47.7066 26.8729 47.7066C27.437 47.7066 28.4497 48.3996 28.4497 48.9788C28.4503 49.1347 28.3375 49.3362 28.0011 49.3362Z" fill="#A4A4A4"/>
<path d="M25.9281 31.9716C25.9281 30.5449 29.3535 29.7873 29.3535 28.0257C29.3535 27.7357 29.2406 27.2239 29.0377 26.8447C30.2306 27.4907 31.1098 28.5838 31.1098 29.4748C31.1098 31.0132 29.4883 31.7265 29.4883 32.6856C29.4883 33.7998 31.2226 33.9782 31.2226 35.3599C31.2226 36.496 29.5777 37.8117 29.5777 39.2827C29.5777 40.4194 30.3895 41.3546 31.6272 41.5112C31.222 41.6003 30.8622 41.667 30.479 41.667C28.2025 41.667 25.86 39.8177 25.86 37.6102C25.86 36.5184 26.3333 35.5614 27.0529 34.8699C27.6852 35.4049 28.3153 35.7609 28.7212 35.7609C29.081 35.7609 29.2399 35.5832 29.2399 35.3157C29.2406 34.49 25.9281 33.7331 25.9281 31.9716ZM33.1152 43.2285C32.3426 43.5784 32.0344 43.5185 32.0344 44.2992C32.0344 44.5885 31.9663 44.9656 31.9663 45.1671C31.9663 45.4346 32.011 45.5911 32.3261 45.5911C33.1379 45.5911 34.4223 44.2318 34.4223 43.072C34.4223 42.7588 34.2414 42.6275 34.0385 42.6275C33.8582 42.6275 33.6566 42.9828 33.1152 43.2285ZM33.0251 41.6228C33.0251 40.6202 30.9296 40.5977 30.9296 39.0819C30.9296 38.702 31.1766 38.0568 31.6733 37.3645C31.8769 38.5237 32.3481 39.1261 33.3636 39.5059C35.3676 40.2404 35.6387 41.3546 35.6387 42.5376C35.6387 44.5443 34.2194 47.0403 30.5698 47.0403C27.6404 47.0403 25.5449 44.4537 25.5449 42.2694C25.5449 41.667 25.7025 40.9993 26.0857 40.9993C26.4241 40.9993 26.5363 41.2661 26.8066 41.533C27.8214 42.5376 28.9249 42.8038 30.5244 42.8038C31.9663 42.8045 33.0251 42.2252 33.0251 41.6228Z" fill="#A4A4A4"/>
<path d="M17.0706 42.1061C17.1256 42.5717 16.7892 42.9916 16.3193 43.0461C15.8488 43.1005 15.4222 42.767 15.3686 42.3021C15.3135 41.8358 15.6499 41.4145 16.1205 41.3601C16.5911 41.3056 17.0162 41.6398 17.0706 42.1061ZM12.8603 42.9828C12.9559 43.7438 13.6734 44.321 14.4832 44.2318C14.7755 44.1998 15.0466 44.1209 15.2275 44.0092C15.4078 44.7219 16.0125 45.1807 16.8298 45.0745C17.6595 44.9676 18.2236 44.321 18.1342 43.496C18.1108 43.2741 18.0661 43.1387 17.9993 42.9828C17.9993 42.9828 18.1087 42.9712 18.1913 42.9562C19.0051 42.8038 19.5534 42.1578 19.4853 41.3778C19.3959 40.5752 18.668 39.9797 17.9106 40.0722C17.6168 40.1076 17.3458 40.2186 17.1648 40.3744C16.9612 39.7067 16.3262 39.1261 15.4594 39.2677C14.6758 39.3963 14.1578 40.0539 14.2362 40.8877C14.2493 41.0231 14.2809 41.1776 14.349 41.3328C14.349 41.3328 14.2162 41.3526 14.1247 41.3655C13.467 41.4622 12.7536 42.117 12.8603 42.9828Z" fill="#A4A4A4"/>
</g>
<defs>
<clipPath id="clip0_2402_87300">
<rect width="74" height="81" fill="white" transform="translate(0.857422 0.67627)"/>
</clipPath>
</defs>
</svg>
