<svg width="116" height="30" viewBox="0 0 116 30" fill="none" xmlns="http://www.w3.org/2000/svg">
<path d="M32.793 4.68286H38.9678L43.6407 18.4816H43.6954L48.113 4.68286H54.2926V24.7473H50.1827V10.5294H50.1256L45.2354 24.7473H41.851L36.96 10.6681H36.9005V24.7473H32.793" fill="#A7A1A3"/>
<path d="M65.0774 26.5754C64.2115 28.9074 62.8397 29.8629 60.1016 29.8629C59.2904 29.8629 58.4776 29.8055 57.6695 29.7219V26.4344C58.4229 26.4894 59.2047 26.6025 59.9913 26.5754C61.3592 26.4344 61.808 25.0014 61.3592 23.849L56.2676 10.2177H60.521L63.792 20.1662H63.8483L67.0075 10.2177H71.1158" fill="#A7A1A3"/>
<path d="M72.8242 24.7476H76.7938V4.68311H72.8242V24.7476Z" fill="#A7A1A3"/>
<path d="M88.5956 17.6383C87.924 18.2281 86.5236 18.2568 85.2961 18.4815C84.0662 18.7357 82.9458 19.1549 82.9458 20.6174C82.9458 22.1053 84.0924 22.4711 85.3778 22.4711C88.4823 22.4711 88.5956 19.9989 88.5956 19.1286V17.6383ZM79.4242 14.6871C79.6463 10.9486 82.9735 9.82483 86.2191 9.82483C89.1 9.82483 92.5629 10.4712 92.5629 13.9571V21.5156C92.5629 22.8385 92.7056 24.1559 93.068 24.7473H89.0413C88.9049 24.2994 88.7907 23.8204 88.763 23.3438C87.5045 24.6636 85.6585 25.1402 83.8965 25.1402C81.1568 25.1402 78.9746 23.763 78.9746 20.7871C78.9746 17.4972 81.4384 16.7114 83.8965 16.3735C86.3309 16.0077 88.5956 16.093 88.5956 14.4608C88.5956 12.7481 87.4181 12.4947 86.0225 12.4947C84.5103 12.4947 83.5326 13.1147 83.3938 14.6871" fill="#A7A1A3"/>
<path d="M95.3086 10.2177H99.0807V12.2428H99.1656C100.172 10.613 101.907 9.82483 103.583 9.82483C107.806 9.82483 108.864 12.2133 108.864 15.8117V24.7473H104.897V16.5409C104.897 14.154 104.196 12.9729 102.352 12.9729C100.198 12.9729 99.2766 14.1811 99.2766 17.1306V24.7473H95.3086" fill="#A7A1A3"/>
<path d="M3.95508 4.67017V5.07343C3.99393 5.07343 4.00583 5.07582 4.05261 5.07582H4.05499C4.60293 5.07582 5.04858 5.62972 5.04858 6.09754L5.05651 22.9032C5.05651 24.1744 6.10401 25.1387 7.40368 25.1387H7.41954C8.66053 25.1387 9.78257 24.1552 9.78257 22.9032V6.41393C9.78257 5.84968 10.2258 5.39302 10.7762 5.39302H10.7801C11.3257 5.39302 11.7745 5.84968 11.7697 6.41393L11.7824 22.9032C11.7824 24.1911 12.8902 25.1387 14.1344 25.1387H14.1407C15.442 25.1387 16.499 24.1911 16.499 22.9032V6.41393C16.499 5.94532 16.9454 5.39302 17.4934 5.39302H17.4957C18.0453 5.39302 18.4869 5.84968 18.4869 6.41393V22.9032C18.4869 24.1744 19.5487 25.1387 20.846 25.1387H20.8539C22.1512 25.1387 23.2083 24.1911 23.2083 22.9032V6.09754C23.2083 5.53408 23.6539 5.07582 24.2026 5.07582H24.2066C24.2391 5.07582 24.2637 5.07024 24.3573 5.07024V4.67017" fill="#A7A1A3"/>
<path d="M3.07239 1.62426H25.12C26.1159 1.62665 26.9287 2.44275 26.9311 3.44613V25.605C26.9287 26.6084 26.1159 27.4229 25.12 27.4253H3.07239C2.07246 27.4229 1.25967 26.6084 1.25967 25.605V3.44613C1.25967 2.44275 2.07246 1.62665 3.07239 1.62426ZM25.047 0.48938H3.14138C1.48329 0.490177 0.128906 1.8514 0.128906 3.51547V25.5341C0.128906 27.1982 1.48329 28.561 3.14138 28.561H25.047C26.7067 28.561 28.0587 27.1982 28.0587 25.5341V3.51547C28.0587 1.8514 26.7067 0.490177 25.047 0.48938Z" fill="#A7A1A3"/>
<path d="M112.17 11.651H112.699C113.15 11.651 113.553 11.6303 113.553 11.1122C113.553 10.6755 113.187 10.6117 112.843 10.6117H112.17V11.651ZM111.665 10.1989H112.921C113.695 10.1989 114.061 10.5026 114.061 11.1353C114.061 11.7227 113.692 11.9722 113.208 12.024L114.135 13.4713H113.589L112.707 12.059H112.17V13.4713H111.665V10.1989ZM112.748 14.2244C114.04 14.2244 115.038 13.1931 115.038 11.8223C115.038 10.4818 114.04 9.44896 112.748 9.44896C111.448 9.44896 110.45 10.4818 110.45 11.8223C110.45 13.1931 111.448 14.2244 112.748 14.2244ZM112.748 9.03613C114.27 9.03613 115.542 10.2427 115.542 11.8223C115.542 13.4322 114.27 14.6364 112.748 14.6364C111.222 14.6364 109.941 13.4322 109.941 11.8223C109.941 10.2427 111.222 9.03613 112.748 9.03613Z" fill="#A7A1A3"/>
</svg>
