<svg xmlns="http://www.w3.org/2000/svg" xmlns:xlink="http://www.w3.org/1999/xlink" width="81" zoomAndPan="magnify" viewBox="0 0 60.75 55.5" height="74" preserveAspectRatio="xMidYMid meet" version="1.2"><defs><clipPath id="9674a09448"><path d="M 21 36 L 35 36 L 35 46.925781 L 21 46.925781 Z M 21 36 "/></clipPath><clipPath id="73c77677c2"><path d="M 33 40 L 47 40 L 47 46.925781 L 33 46.925781 Z M 33 40 "/></clipPath><clipPath id="fbe1ee8d51"><path d="M 9.207031 34 L 23 34 L 23 46.925781 L 9.207031 46.925781 Z M 9.207031 34 "/></clipPath><clipPath id="6a63cecfaa"><path d="M 30 8.277344 L 32 8.277344 L 32 13 L 30 13 Z M 30 8.277344 "/></clipPath><clipPath id="2e55c8009a"><path d="M 29 8.277344 L 32 8.277344 L 32 13 L 29 13 Z M 29 8.277344 "/></clipPath><clipPath id="48fb072d24"><path d="M 47 24 L 51.574219 24 L 51.574219 26 L 47 26 Z M 47 24 "/></clipPath><clipPath id="1d28edf9fb"><path d="M 47 23 L 51.574219 23 L 51.574219 25 L 47 25 Z M 47 23 "/></clipPath></defs><g id="766439e86e"><g clip-rule="nonzero" clip-path="url(#9674a09448)"><path style=" stroke:none;fill-rule:nonzero;fill:#a7a1a3;fill-opacity:1;" d="M 34.136719 40.464844 C 33.855469 40.160156 33.433594 40.117188 33.035156 40.117188 C 32.632812 40.117188 32.222656 40.179688 31.683594 40.546875 C 32.351562 38.863281 33.414062 36.554688 33.425781 36.53125 L 33.480469 36.421875 L 33.359375 36.433594 C 33.359375 36.433594 32.710938 36.503906 31.421875 36.8125 L 31.386719 36.8125 C 31.386719 36.816406 31.289062 37.082031 31.289062 37.082031 L 28.597656 44.167969 C 28.597656 44.167969 28.398438 44.601562 27.8125 44.941406 C 27.5 45.121094 27.328125 45.144531 27.226562 45.15625 C 27.128906 45.175781 27.101562 45.078125 27.117188 45.046875 C 27.191406 44.828125 27.414062 44.222656 27.414062 44.222656 C 28.066406 42.378906 28.472656 41.265625 28.652344 40.828125 L 28.886719 40.25 L 27.109375 40.25 C 27.109375 40.25 27.074219 40.304688 27.066406 40.324219 C 26.859375 40.199219 26.621094 40.132812 26.34375 40.132812 C 26.070312 40.132812 25.441406 40.359375 24.746094 40.847656 C 24.03125 41.355469 23.417969 41.949219 22.914062 42.601562 C 22.285156 43.4375 21.976562 44.265625 21.976562 45.074219 C 21.976562 45.878906 22.058594 45.769531 22.230469 46.035156 C 22.367188 46.257812 22.652344 46.527344 23.167969 46.527344 C 23.683594 46.527344 24.496094 46.269531 25.117188 45.78125 C 25.167969 45.949219 25.269531 46.101562 25.460938 46.242188 C 25.71875 46.421875 26.070312 46.515625 26.214844 46.519531 C 26.359375 46.519531 26.886719 46.5 27.355469 46.257812 C 27.757812 46.046875 27.996094 45.78125 28.226562 45.433594 C 28.34375 45.71875 28.492188 45.957031 28.679688 46.144531 C 28.929688 46.394531 29.238281 46.519531 29.597656 46.519531 C 30.617188 46.519531 31.683594 46.011719 32.773438 45.015625 C 33.949219 43.945312 34.542969 42.777344 34.542969 41.550781 C 34.542969 40.324219 34.40625 40.757812 34.136719 40.457031 Z M 31.726562 44.152344 C 31.027344 45.191406 30.800781 45.253906 30.5625 45.273438 C 30.421875 45.289062 30.320312 45.238281 30.238281 45.171875 C 30.1875 45.128906 30.140625 45.046875 30.148438 44.933594 C 30.148438 44.933594 30.160156 44.800781 30.175781 44.746094 C 30.1875 44.691406 30.382812 44.007812 30.699219 43.292969 C 31.015625 42.566406 31.140625 42.386719 31.386719 42.09375 C 31.792969 41.605469 32.242188 41.40625 32.46875 41.53125 C 32.910156 41.78125 32.261719 43.355469 31.730469 44.148438 Z M 24.03125 45.164062 C 23.664062 44.984375 23.945312 44.183594 24.582031 43.039062 C 25.089844 42.109375 25.601562 41.632812 26.082031 41.632812 C 26.566406 41.632812 26.207031 41.648438 26.296875 41.746094 C 26.371094 41.835938 26.40625 41.917969 26.40625 42.011719 C 26.40625 42.269531 26.269531 42.789062 25.621094 43.8125 C 25.050781 44.710938 24.324219 45.316406 24.03125 45.171875 "/></g><g clip-rule="nonzero" clip-path="url(#73c77677c2)"><path style=" stroke:none;fill-rule:nonzero;fill:#a7a1a3;fill-opacity:1;" d="M 45.988281 40.640625 C 45.746094 40.375 45.402344 40.242188 44.96875 40.242188 C 44.53125 40.242188 44.304688 40.386719 43.960938 40.640625 C 44.003906 40.527344 44.070312 40.320312 44.070312 40.320312 L 42.21875 40.320312 L 40.792969 44.613281 C 40.59375 44.828125 40.34375 45.015625 40.234375 45.085938 C 40 45.226562 39.667969 45.351562 39.394531 45.234375 C 39.394531 45.234375 39.253906 45.164062 39.289062 45.078125 C 39.378906 44.808594 39.8125 43.519531 39.8125 43.519531 C 40.191406 42.386719 40.53125 41.441406 40.785156 40.785156 L 41.011719 40.214844 L 39.136719 40.214844 L 39.035156 40.484375 C 38.703125 41.371094 38.429688 42.039062 38.195312 42.53125 C 37.828125 43.3125 37.457031 43.917969 37.097656 44.328125 C 36.769531 44.695312 36.472656 44.996094 36.101562 44.996094 C 36.074219 44.996094 36.039062 44.996094 36.011719 44.996094 C 35.957031 44.984375 35.921875 44.917969 35.933594 44.878906 C 36.21875 44.125 37.726562 40.226562 37.726562 40.226562 L 35.8125 40.226562 C 35.8125 40.226562 33.976562 44.925781 33.949219 45.335938 C 33.921875 45.679688 34.101562 45.972656 34.335938 46.195312 C 34.570312 46.417969 34.851562 46.527344 35.183594 46.527344 C 35.789062 46.527344 36.484375 46.164062 37.277344 45.457031 L 37.277344 45.46875 L 37.242188 45.65625 C 37.242188 45.839844 37.339844 46.097656 37.816406 46.3125 C 38.117188 46.449219 38.40625 46.519531 38.667969 46.519531 C 39.125 46.519531 39.496094 46.457031 39.972656 46.125 C 40.179688 45.984375 40.316406 45.839844 40.425781 45.699219 L 40.152344 46.519531 L 41.996094 46.519531 L 42.085938 46.222656 C 42.3125 45.457031 42.535156 44.789062 42.753906 44.246094 C 43.058594 43.464844 43.367188 42.832031 43.664062 42.367188 C 44.007812 41.835938 44.203125 41.757812 44.367188 41.691406 C 44.367188 41.691406 44.492188 41.628906 44.734375 41.605469 C 44.933594 41.585938 45.140625 41.746094 45.195312 41.863281 C 45.257812 41.996094 45.179688 42.226562 45.105469 42.40625 C 45.035156 42.574219 44.988281 42.699219 45.042969 42.777344 C 45.054688 42.804688 45.089844 42.832031 45.152344 42.832031 C 45.519531 42.832031 45.828125 42.691406 46.042969 42.433594 C 46.242188 42.191406 46.339844 41.898438 46.339844 41.566406 C 46.339844 41.230469 46.214844 40.875 45.980469 40.617188 "/></g><g clip-rule="nonzero" clip-path="url(#fbe1ee8d51)"><path style=" stroke:none;fill-rule:nonzero;fill:#a7a1a3;fill-opacity:1;" d="M 19.246094 36.199219 C 19.226562 36.191406 17.4375 35.097656 15.699219 35 C 13.648438 34.890625 10.003906 35.808594 9.390625 39.992188 L 9.527344 40.019531 C 10.007812 38.152344 11.753906 36.394531 13.660156 35.828125 C 14.816406 35.488281 16.113281 35.621094 17.3125 36.203125 C 18.746094 36.9375 19.910156 38.648438 20.074219 40.285156 C 20.171875 41.230469 19.984375 42.609375 18.558594 43.757812 C 17.367188 44.730469 15.308594 45.109375 14.554688 44.488281 C 14.203125 44.195312 14.300781 43.738281 14.515625 43.082031 L 16.863281 37.035156 L 16.84375 37 C 16.796875 36.9375 15.726562 35.4375 14.699219 35.917969 C 14.371094 36.074219 12.179688 43.417969 11.511719 45.65625 L 11.492188 45.71875 L 11.550781 45.742188 C 14.695312 46.917969 17.429688 46.960938 19.683594 45.867188 C 21.363281 45.15625 22.5625 43.394531 22.660156 41.488281 C 22.761719 39.363281 21.515625 37.4375 19.242188 36.191406 "/></g><path style=" stroke:none;fill-rule:nonzero;fill:#a7a1a3;fill-opacity:1;" d="M 14.027344 22.570312 C 13.921875 22.351562 13.46875 21.539062 12.703125 21.324219 C 11.917969 21.101562 11.207031 21.421875 10.863281 21.671875 L 14.03125 22.570312 "/><path style=" stroke:none;fill-rule:nonzero;fill:#a7a1a3;fill-opacity:1;" d="M 12.296875 22.925781 C 13.011719 23.132812 13.765625 22.734375 14.027344 22.5625 L 10.855469 21.664062 C 11.085938 22.054688 11.40625 22.667969 12.296875 22.925781 Z M 12.296875 22.925781 "/><path style=" stroke:none;fill-rule:nonzero;fill:#a7a1a3;fill-opacity:1;" d="M 14.632812 20.898438 C 14.667969 20.605469 14.6875 19.707031 14.171875 19.117188 C 13.621094 18.484375 12.875 18.359375 12.453125 18.398438 Z M 14.632812 20.898438 "/><path style=" stroke:none;fill-rule:nonzero;fill:#a7a1a3;fill-opacity:1;" d="M 13 20.257812 C 13.5 20.808594 14.320312 20.914062 14.632812 20.898438 L 12.453125 18.398438 C 12.453125 18.851562 12.371094 19.574219 13 20.265625 "/><path style=" stroke:none;fill-rule:nonzero;fill:#a7a1a3;fill-opacity:1;" d="M 16.988281 29.125 C 16.65625 29 15.4375 28.777344 14.660156 29.335938 C 13.859375 29.90625 13.613281 30.851562 13.5625 31.359375 Z M 16.988281 29.125 "/><path style=" stroke:none;fill-rule:nonzero;fill:#a7a1a3;fill-opacity:1;" d="M 15.890625 31.128906 C 16.707031 30.59375 16.972656 29.535156 16.996094 29.125 L 13.570312 31.359375 C 14.175781 31.535156 15.113281 31.644531 15.898438 31.128906 "/><path style=" stroke:none;fill-rule:nonzero;fill:#a7a1a3;fill-opacity:1;" d="M 16.789062 28 C 16.589844 27.679688 15.515625 26.53125 14.324219 26.425781 C 13.179688 26.328125 12.152344 26.820312 11.703125 27.199219 L 16.789062 27.992188 "/><path style=" stroke:none;fill-rule:nonzero;fill:#a7a1a3;fill-opacity:1;" d="M 14.046875 28.742188 C 15.21875 28.960938 16.386719 28.324219 16.796875 28 L 11.710938 27.203125 C 12.21875 27.84375 12.9375 28.542969 14.046875 28.742188 Z M 14.046875 28.742188 "/><path style=" stroke:none;fill-rule:nonzero;fill:#a7a1a3;fill-opacity:1;" d="M 25.539062 18.042969 C 25.40625 17.730469 24.753906 16.597656 23.710938 16.191406 C 22.570312 15.753906 21.492188 16.066406 20.996094 16.351562 L 25.53125 18.039062 "/><path style=" stroke:none;fill-rule:nonzero;fill:#a7a1a3;fill-opacity:1;" d="M 22.851562 18.21875 C 23.878906 18.644531 25.082031 18.28125 25.53125 18.050781 L 20.996094 16.367188 C 21.347656 17.042969 21.878906 17.820312 22.851562 18.21875 Z M 22.851562 18.21875 "/><path style=" stroke:none;fill-rule:nonzero;fill:#a7a1a3;fill-opacity:1;" d="M 19.597656 30.761719 C 19.621094 30.394531 19.597656 29.578125 19.070312 28.964844 C 18.503906 28.3125 17.753906 28.179688 17.347656 28.160156 Z M 19.597656 30.761719 "/><path style=" stroke:none;fill-rule:nonzero;fill:#a7a1a3;fill-opacity:1;" d="M 17.917969 29.996094 C 18.441406 30.609375 19.269531 30.796875 19.597656 30.761719 L 17.347656 28.160156 C 17.3125 28.605469 17.410156 29.40625 17.917969 29.996094 Z M 17.917969 29.996094 "/><path style=" stroke:none;fill-rule:nonzero;fill:#a7a1a3;fill-opacity:1;" d="M 19.863281 27.53125 C 19.75 27.238281 19.367188 26.453125 18.636719 26.132812 C 17.84375 25.792969 17.113281 25.988281 16.742188 26.132812 L 19.863281 27.523438 "/><path style=" stroke:none;fill-rule:nonzero;fill:#a7a1a3;fill-opacity:1;" d="M 17.941406 27.519531 C 18.730469 27.914062 19.578125 27.707031 19.863281 27.53125 L 16.742188 26.140625 C 16.914062 26.558594 17.25 27.171875 17.941406 27.519531 Z M 17.941406 27.519531 "/><path style=" stroke:none;fill-rule:nonzero;fill:#a7a1a3;fill-opacity:1;" d="M 16.65625 24.71875 C 16.472656 24.476562 15.84375 23.792969 14.996094 23.730469 C 14.085938 23.660156 13.441406 24.203125 13.144531 24.511719 L 16.664062 24.71875 "/><path style=" stroke:none;fill-rule:nonzero;fill:#a7a1a3;fill-opacity:1;" d="M 14.914062 25.507812 C 15.71875 25.554688 16.445312 24.941406 16.664062 24.71875 L 13.144531 24.511719 C 13.445312 24.839844 13.992188 25.457031 14.914062 25.507812 Z M 14.914062 25.507812 "/><path style=" stroke:none;fill-rule:nonzero;fill:#a7a1a3;fill-opacity:1;" d="M 27.699219 14.410156 C 27.878906 14.097656 28.355469 13.136719 28.058594 12.175781 C 27.742188 11.148438 26.886719 10.679688 26.433594 10.476562 L 27.699219 14.417969 "/><path style=" stroke:none;fill-rule:nonzero;fill:#a7a1a3;fill-opacity:1;" d="M 26.136719 12.84375 C 26.433594 13.75 27.363281 14.273438 27.703125 14.417969 L 26.433594 10.476562 C 26.207031 10.953125 25.800781 11.808594 26.136719 12.84375 Z M 26.136719 12.84375 "/><g clip-rule="nonzero" clip-path="url(#6a63cecfaa)"><path style=" stroke:none;fill-rule:nonzero;fill:#a7a1a3;fill-opacity:1;" d="M 31.304688 12.574219 C 31.511719 12.300781 32.050781 11.445312 31.875 10.511719 C 31.691406 9.511719 30.941406 8.96875 30.53125 8.730469 Z M 31.304688 12.574219 "/></g><g clip-rule="nonzero" clip-path="url(#2e55c8009a)"><path style=" stroke:none;fill-rule:nonzero;fill:#a7a1a3;fill-opacity:1;" d="M 29.988281 10.902344 C 30.203125 11.878906 31.070312 12.40625 31.304688 12.574219 L 30.53125 8.730469 C 30.257812 9.113281 29.769531 9.914062 29.988281 10.910156 "/></g><path style=" stroke:none;fill-rule:nonzero;fill:#a7a1a3;fill-opacity:1;" d="M 31.65625 17.167969 C 31.917969 16.957031 32.613281 16.144531 32.574219 15.238281 C 32.53125 14.398438 31.8125 13.667969 31.421875 13.386719 Z M 31.65625 17.167969 "/><path style=" stroke:none;fill-rule:nonzero;fill:#a7a1a3;fill-opacity:1;" d="M 30.558594 15.386719 C 30.644531 16.339844 31.441406 16.980469 31.664062 17.167969 L 31.429688 13.386719 C 31.089844 13.722656 30.46875 14.410156 30.558594 15.378906 "/><path style=" stroke:none;fill-rule:nonzero;fill:#a7a1a3;fill-opacity:1;" d="M 32.953125 19.5625 C 33.246094 19.429688 34.066406 18.9375 34.273438 17.960938 C 34.441406 17.152344 33.957031 16.285156 33.65625 15.929688 L 32.953125 19.570312 "/><path style=" stroke:none;fill-rule:nonzero;fill:#a7a1a3;fill-opacity:1;" d="M 32.359375 17.597656 C 32.214844 18.460938 32.785156 19.332031 32.945312 19.5625 L 33.648438 15.921875 C 33.253906 16.152344 32.515625 16.652344 32.359375 17.597656 Z M 32.359375 17.597656 "/><path style=" stroke:none;fill-rule:nonzero;fill:#a7a1a3;fill-opacity:1;" d="M 36.429688 24.171875 C 36.761719 24.203125 37.746094 24.199219 38.421875 23.4375 C 38.980469 22.8125 38.992188 21.78125 38.910156 21.308594 Z M 36.429688 24.171875 "/><path style=" stroke:none;fill-rule:nonzero;fill:#a7a1a3;fill-opacity:1;" d="M 36.898438 22.117188 C 36.339844 22.8125 36.402344 23.886719 36.429688 24.171875 L 38.910156 21.308594 C 38.511719 21.273438 37.554688 21.300781 36.898438 22.117188 Z M 36.898438 22.117188 "/><path style=" stroke:none;fill-rule:nonzero;fill:#a7a1a3;fill-opacity:1;" d="M 43.375 22.097656 C 43.714844 22.125 44.707031 22.054688 45.429688 21.308594 C 46.035156 20.691406 46.105469 19.625 46.054688 19.144531 Z M 43.375 22.097656 "/><path style=" stroke:none;fill-rule:nonzero;fill:#a7a1a3;fill-opacity:1;" d="M 43.949219 19.980469 C 43.3125 20.703125 43.355469 21.796875 43.375 22.097656 L 46.054688 19.144531 C 45.640625 19.09375 44.582031 19.261719 43.949219 19.980469 Z M 43.949219 19.980469 "/><path style=" stroke:none;fill-rule:nonzero;fill:#a7a1a3;fill-opacity:1;" d="M 37.445312 18.449219 C 37.753906 18.371094 38.683594 18.023438 39.078125 17.222656 C 39.449219 16.464844 39.261719 15.539062 39.070312 15.121094 L 37.445312 18.441406 "/><path style=" stroke:none;fill-rule:nonzero;fill:#a7a1a3;fill-opacity:1;" d="M 37.414062 16.421875 C 37.03125 17.238281 37.355469 18.183594 37.449219 18.449219 L 39.078125 15.128906 C 38.640625 15.246094 37.820312 15.582031 37.414062 16.429688 "/><path style=" stroke:none;fill-rule:nonzero;fill:#a7a1a3;fill-opacity:1;" d="M 36.652344 14.898438 C 36.96875 14.855469 37.945312 14.613281 38.433594 13.847656 C 38.898438 13.125 38.800781 12.183594 38.683594 11.722656 Z M 36.652344 14.898438 "/><path style=" stroke:none;fill-rule:nonzero;fill:#a7a1a3;fill-opacity:1;" d="M 36.863281 12.839844 C 36.382812 13.617188 36.589844 14.621094 36.652344 14.898438 L 38.683594 11.722656 C 38.234375 11.792969 37.367188 12.023438 36.859375 12.839844 "/><path style=" stroke:none;fill-rule:nonzero;fill:#a7a1a3;fill-opacity:1;" d="M 40.097656 16.574219 C 40.363281 16.625 41.210938 16.6875 41.789062 16.191406 C 42.335938 15.734375 42.488281 14.953125 42.507812 14.558594 Z M 40.097656 16.574219 "/><path style=" stroke:none;fill-rule:nonzero;fill:#a7a1a3;fill-opacity:1;" d="M 40.765625 14.976562 C 40.1875 15.476562 40.109375 16.339844 40.097656 16.578125 L 42.507812 14.558594 C 42.128906 14.496094 41.371094 14.453125 40.765625 14.976562 Z M 40.765625 14.976562 "/><path style=" stroke:none;fill-rule:nonzero;fill:#a7a1a3;fill-opacity:1;" d="M 43.28125 18.753906 C 43.554688 18.691406 44.417969 18.46875 44.808594 17.667969 C 45.195312 16.890625 45.003906 16.152344 44.871094 15.753906 L 43.28125 18.746094 "/><path style=" stroke:none;fill-rule:nonzero;fill:#a7a1a3;fill-opacity:1;" d="M 43.320312 16.894531 C 42.949219 17.632812 43.1875 18.457031 43.285156 18.753906 L 44.878906 15.761719 C 44.484375 15.859375 43.710938 16.128906 43.320312 16.894531 Z M 43.320312 16.894531 "/><path style=" stroke:none;fill-rule:nonzero;fill:#a7a1a3;fill-opacity:1;" d="M 40.972656 22.882812 C 41.253906 22.8125 42.136719 22.570312 42.527344 21.742188 C 42.90625 20.933594 42.699219 20.179688 42.5625 19.769531 L 40.972656 22.875 "/><path style=" stroke:none;fill-rule:nonzero;fill:#a7a1a3;fill-opacity:1;" d="M 40.976562 20.96875 C 40.605469 21.734375 40.867188 22.570312 40.976562 22.882812 L 42.570312 19.777344 C 42.171875 19.890625 41.378906 20.175781 40.984375 20.976562 "/><path style=" stroke:none;fill-rule:nonzero;fill:#a7a1a3;fill-opacity:1;" d="M 46.0625 21.371094 C 46.3125 21.457031 47.082031 21.691406 47.765625 21.253906 C 48.433594 20.828125 48.632812 20.167969 48.714844 19.796875 Z M 46.0625 21.371094 "/><path style=" stroke:none;fill-rule:nonzero;fill:#a7a1a3;fill-opacity:1;" d="M 46.964844 19.945312 C 46.332031 20.339844 46.125 21.09375 46.0625 21.371094 L 48.714844 19.796875 C 48.363281 19.6875 47.632812 19.535156 46.972656 19.945312 "/><path style=" stroke:none;fill-rule:nonzero;fill:#a7a1a3;fill-opacity:1;" d="M 44.847656 24.078125 C 45.070312 24.234375 45.78125 24.652344 46.578125 24.425781 C 47.378906 24.203125 47.6875 23.585938 47.921875 23.230469 Z M 44.847656 24.078125 "/><path style=" stroke:none;fill-rule:nonzero;fill:#a7a1a3;fill-opacity:1;" d="M 46.136719 22.902344 C 45.394531 23.125 44.996094 23.820312 44.847656 24.085938 L 47.921875 23.238281 C 47.597656 23.027344 46.910156 22.671875 46.136719 22.902344 Z M 46.136719 22.902344 "/><g clip-rule="nonzero" clip-path="url(#48fb072d24)"><path style=" stroke:none;fill-rule:nonzero;fill:#a7a1a3;fill-opacity:1;" d="M 47.535156 24.683594 C 47.75 24.929688 48.453125 25.617188 49.445312 25.605469 C 50.457031 25.589844 51.015625 25.011719 51.347656 24.601562 Z M 47.535156 24.683594 "/></g><g clip-rule="nonzero" clip-path="url(#1d28edf9fb)"><path style=" stroke:none;fill-rule:nonzero;fill:#a7a1a3;fill-opacity:1;" d="M 49.363281 23.675781 C 48.4375 23.71875 47.769531 24.414062 47.53125 24.683594 L 51.339844 24.601562 C 51.023438 24.265625 50.320312 23.632812 49.363281 23.675781 Z M 49.363281 23.675781 "/></g><path style=" stroke:none;fill-rule:nonzero;fill:#a7a1a3;fill-opacity:1;" d="M 44.675781 24.574219 C 44.65625 24.84375 44.671875 25.703125 45.257812 26.292969 C 45.835938 26.878906 46.566406 26.851562 46.957031 26.851562 L 44.671875 24.574219 "/><path style=" stroke:none;fill-rule:nonzero;fill:#a7a1a3;fill-opacity:1;" d="M 46.359375 25.117188 C 45.800781 24.574219 44.96875 24.566406 44.671875 24.574219 L 46.957031 26.851562 C 46.972656 26.46875 46.9375 25.6875 46.359375 25.117188 Z M 46.359375 25.117188 "/><path style=" stroke:none;fill-rule:nonzero;fill:#a7a1a3;fill-opacity:1;" d="M 38.898438 27.449219 C 39.160156 27.363281 39.945312 27.042969 40.253906 26.257812 C 40.558594 25.492188 40.308594 24.824219 40.152344 24.460938 Z M 38.898438 27.449219 "/><path style=" stroke:none;fill-rule:nonzero;fill:#a7a1a3;fill-opacity:1;" d="M 38.78125 25.644531 C 38.484375 26.375 38.78125 27.171875 38.90625 27.449219 L 40.160156 24.460938 C 39.792969 24.585938 39.089844 24.886719 38.78125 25.644531 Z M 38.78125 25.644531 "/><path style=" stroke:none;fill-rule:nonzero;fill:#a7a1a3;fill-opacity:1;" d="M 42.96875 28.625 C 43.070312 28.351562 43.167969 27.449219 42.75 26.828125 C 42.308594 26.183594 41.585938 25.992188 41.199219 25.925781 Z M 42.96875 28.625 "/><path style=" stroke:none;fill-rule:nonzero;fill:#a7a1a3;fill-opacity:1;" d="M 41.46875 27.789062 C 41.886719 28.375 42.679688 28.570312 42.96875 28.625 L 41.199219 25.925781 C 41.09375 26.277344 40.992188 27.121094 41.46875 27.789062 Z M 41.46875 27.789062 "/><path style=" stroke:none;fill-rule:nonzero;fill:#a7a1a3;fill-opacity:1;" d="M 39.683594 14.960938 C 39.992188 14.898438 40.902344 14.585938 41.335938 13.796875 C 41.742188 13.054688 41.570312 12.136719 41.425781 11.691406 L 39.6875 14.960938 "/><path style=" stroke:none;fill-rule:nonzero;fill:#a7a1a3;fill-opacity:1;" d="M 39.730469 12.929688 C 39.3125 13.730469 39.585938 14.675781 39.683594 14.960938 L 41.417969 11.691406 C 40.984375 11.792969 40.164062 12.085938 39.722656 12.921875 "/><path style=" stroke:none;fill-rule:nonzero;fill:#a7a1a3;fill-opacity:1;" d="M 24.554688 12.253906 C 24.710938 11.945312 24.960938 11.195312 24.703125 10.511719 C 24.414062 9.742188 23.707031 9.394531 23.332031 9.261719 Z M 24.554688 12.253906 "/><path style=" stroke:none;fill-rule:nonzero;fill:#a7a1a3;fill-opacity:1;" d="M 23.246094 11.132812 C 23.535156 11.78125 24.269531 12.136719 24.558594 12.253906 L 23.339844 9.261719 C 23.175781 9.664062 22.894531 10.332031 23.25 11.140625 "/><path style=" stroke:none;fill-rule:nonzero;fill:#a7a1a3;fill-opacity:1;" d="M 29.660156 15.433594 C 29.90625 15.167969 30.367188 14.496094 30.304688 13.734375 C 30.238281 12.878906 29.609375 12.324219 29.265625 12.085938 Z M 29.660156 15.433594 "/><path style=" stroke:none;fill-rule:nonzero;fill:#a7a1a3;fill-opacity:1;" d="M 28.636719 13.945312 C 28.742188 14.675781 29.402344 15.238281 29.664062 15.433594 L 29.273438 12.085938 C 28.988281 12.441406 28.507812 13.03125 28.644531 13.945312 "/><path style=" stroke:none;fill-rule:nonzero;fill:#a7a1a3;fill-opacity:1;" d="M 33.21875 14.480469 C 33.507812 14.292969 34.082031 13.765625 34.191406 13.054688 C 34.324219 12.246094 33.882812 11.578125 33.621094 11.273438 L 33.214844 14.480469 "/><path style=" stroke:none;fill-rule:nonzero;fill:#a7a1a3;fill-opacity:1;" d="M 32.628906 12.851562 C 32.558594 13.554688 33.027344 14.238281 33.21875 14.480469 L 33.625 11.273438 C 33.289062 11.535156 32.71875 11.980469 32.628906 12.851562 Z M 32.628906 12.851562 "/><path style=" stroke:none;fill-rule:nonzero;fill:#a7a1a3;fill-opacity:1;" d="M 34.523438 15.964844 C 34.785156 15.859375 35.328125 15.511719 35.542969 14.953125 C 35.789062 14.285156 35.515625 13.679688 35.347656 13.394531 L 34.53125 15.964844 "/><path style=" stroke:none;fill-rule:nonzero;fill:#a7a1a3;fill-opacity:1;" d="M 34.289062 14.5625 C 34.136719 15.121094 34.40625 15.742188 34.523438 15.964844 L 35.34375 13.394531 C 35.023438 13.554688 34.488281 13.832031 34.28125 14.5625 "/><path style=" stroke:none;fill-rule:nonzero;fill:#a7a1a3;fill-opacity:1;" d="M 35.347656 19.492188 C 35.636719 19.375 36.25 19.019531 36.480469 18.40625 C 36.753906 17.675781 36.457031 17 36.273438 16.6875 Z M 35.347656 19.492188 "/><path style=" stroke:none;fill-rule:nonzero;fill:#a7a1a3;fill-opacity:1;" d="M 35.089844 17.96875 C 34.914062 18.582031 35.21875 19.242188 35.351562 19.484375 L 36.273438 16.679688 C 35.921875 16.855469 35.308594 17.160156 35.089844 17.960938 "/><path style=" stroke:none;fill-rule:nonzero;fill:#a7a1a3;fill-opacity:1;" d="M 24.871094 15.914062 C 24.980469 15.09375 24.792969 14.335938 24.347656 13.792969 C 23.78125 13.101562 22.78125 12.894531 22.34375 12.929688 Z M 24.871094 15.914062 "/><path style=" stroke:none;fill-rule:nonzero;fill:#a7a1a3;fill-opacity:1;" d="M 22.863281 15.03125 C 23.332031 15.558594 23.90625 15.851562 24.871094 15.914062 L 22.339844 12.929688 C 22.285156 13.351562 22.277344 14.375 22.863281 15.03125 Z M 22.863281 15.03125 "/><path style=" stroke:none;fill-rule:nonzero;fill:#a7a1a3;fill-opacity:1;" d="M 27.359375 22.339844 C 27.695312 21.621094 27.796875 20.828125 27.53125 20.203125 C 27.128906 19.269531 26.277344 18.921875 25.863281 18.832031 L 27.351562 22.347656 "/><path style=" stroke:none;fill-rule:nonzero;fill:#a7a1a3;fill-opacity:1;" d="M 25.738281 20.90625 C 26.019531 21.523438 26.496094 22 27.355469 22.332031 L 25.867188 18.816406 C 25.695312 19.191406 25.386719 20.132812 25.738281 20.898438 "/><path style=" stroke:none;fill-rule:nonzero;fill:#a7a1a3;fill-opacity:1;" d="M 35.347656 12.699219 C 35.996094 12.433594 36.527344 12.015625 36.753906 11.425781 C 37.03125 10.695312 36.71875 9.777344 36.5 9.449219 L 35.355469 12.699219 "/><path style=" stroke:none;fill-rule:nonzero;fill:#a7a1a3;fill-opacity:1;" d="M 35.082031 10.734375 C 34.851562 11.328125 34.96875 11.917969 35.347656 12.699219 L 36.492188 9.449219 C 36.09375 9.574219 35.347656 10 35.074219 10.734375 "/><path style=" stroke:none;fill-rule:nonzero;fill:#a7a1a3;fill-opacity:1;" d="M 29.707031 20.097656 C 30.125 19.402344 30.402344 18.582031 30.230469 17.925781 C 29.949219 16.828125 29.03125 16.359375 28.632812 16.191406 L 29.699219 20.097656 "/><path style=" stroke:none;fill-rule:nonzero;fill:#a7a1a3;fill-opacity:1;" d="M 28.148438 18.503906 C 28.347656 19.191406 28.929688 19.75 29.707031 20.097656 L 28.636719 16.191406 C 28.292969 16.6875 27.894531 17.640625 28.148438 18.503906 Z M 28.148438 18.503906 "/><path style=" stroke:none;fill-rule:nonzero;fill:#a7a1a3;fill-opacity:1;" d="M 37.761719 20.425781 C 38.609375 20.757812 39.601562 20.792969 40.308594 20.46875 C 41.453125 19.929688 41.816406 18.761719 41.984375 18.300781 Z M 37.761719 20.425781 "/><path style=" stroke:none;fill-rule:nonzero;fill:#a7a1a3;fill-opacity:1;" d="M 39.277344 18.34375 C 38.539062 18.734375 38.035156 19.527344 37.761719 20.425781 L 41.984375 18.300781 C 41.363281 18.050781 40.269531 17.816406 39.28125 18.335938 "/><path style=" stroke:none;fill-rule:nonzero;fill:#a7a1a3;fill-opacity:1;" d="M 40.742188 25.445312 C 41.597656 25.679688 42.589844 25.625 43.25 25.25 C 44.3125 24.644531 44.582031 23.535156 44.699219 23.078125 L 40.738281 25.445312 "/><path style=" stroke:none;fill-rule:nonzero;fill:#a7a1a3;fill-opacity:1;" d="M 42.03125 23.347656 C 41.34375 23.78125 40.929688 24.523438 40.738281 25.4375 L 44.699219 23.070312 C 44.0625 22.894531 42.921875 22.792969 42.03125 23.347656 Z M 42.03125 23.347656 "/><path style=" stroke:none;fill-rule:nonzero;fill:#a7a1a3;fill-opacity:1;" d="M 46.546875 30.148438 C 46.777344 29.214844 46.648438 28.296875 46.25 27.707031 C 45.628906 26.773438 44.554688 26.523438 44.105469 26.4375 Z M 46.546875 30.148438 "/><path style=" stroke:none;fill-rule:nonzero;fill:#a7a1a3;fill-opacity:1;" d="M 44.476562 29.023438 C 44.914062 29.628906 45.671875 29.976562 46.546875 30.148438 L 44.105469 26.4375 C 43.914062 27.085938 43.859375 28.160156 44.476562 29.023438 Z M 44.476562 29.023438 "/><path style=" stroke:none;fill-rule:nonzero;fill:#a7a1a3;fill-opacity:1;" d="M 26.875 17.71875 C 27.238281 17.050781 27.355469 16.257812 27.128906 15.648438 C 26.804688 14.78125 26.027344 14.339844 25.632812 14.203125 Z M 26.875 17.71875 "/><path style=" stroke:none;fill-rule:nonzero;fill:#a7a1a3;fill-opacity:1;" d="M 25.378906 16.222656 C 25.621094 16.882812 26.042969 17.328125 26.875 17.710938 L 25.632812 14.195312 C 25.441406 14.558594 25.089844 15.433594 25.371094 16.222656 "/><path style=" stroke:none;fill-rule:nonzero;fill:#a7a1a3;fill-opacity:1;" d="M 17.671875 20 C 17.699219 19.714844 17.726562 18.804688 17.195312 18.261719 C 16.636719 17.675781 15.898438 17.597656 15.480469 17.660156 L 17.664062 20 "/><path style=" stroke:none;fill-rule:nonzero;fill:#a7a1a3;fill-opacity:1;" d="M 16.085938 19.457031 C 16.601562 19.964844 17.375 20.035156 17.675781 20 L 15.492188 17.660156 C 15.464844 18.023438 15.453125 18.824219 16.09375 19.457031 "/><path style=" stroke:none;fill-rule:nonzero;fill:#a7a1a3;fill-opacity:1;" d="M 21.28125 18.183594 C 21.183594 17.898438 20.957031 17.089844 20.109375 16.644531 C 19.40625 16.277344 18.484375 16.472656 18.097656 16.671875 L 21.285156 18.183594 "/><path style=" stroke:none;fill-rule:nonzero;fill:#a7a1a3;fill-opacity:1;" d="M 19.40625 18.28125 C 20.097656 18.585938 20.992188 18.324219 21.28125 18.191406 L 18.089844 16.679688 C 18.222656 17.042969 18.539062 17.90625 19.40625 18.289062 "/><path style=" stroke:none;fill-rule:nonzero;fill:#a7a1a3;fill-opacity:1;" d="M 21.859375 15.09375 C 21.839844 14.738281 21.757812 13.796875 20.902344 12.96875 C 20.261719 12.351562 19.378906 12.359375 18.953125 12.449219 Z M 21.859375 15.09375 "/><path style=" stroke:none;fill-rule:nonzero;fill:#a7a1a3;fill-opacity:1;" d="M 19.804688 14.417969 C 20.386719 14.941406 21.175781 15.140625 21.859375 15.09375 L 18.953125 12.449219 C 18.980469 12.832031 19.070312 13.75 19.804688 14.417969 Z M 19.804688 14.417969 "/><path style=" stroke:none;fill-rule:nonzero;fill:#a7a1a3;fill-opacity:1;" d="M 21.957031 20.347656 C 21.8125 20.085938 21.347656 19.234375 20.542969 19.019531 C 19.6875 18.789062 18.917969 19.117188 18.566406 19.386719 L 21.957031 20.355469 "/><path style=" stroke:none;fill-rule:nonzero;fill:#a7a1a3;fill-opacity:1;" d="M 20.144531 20.746094 C 20.914062 20.933594 21.695312 20.53125 21.957031 20.347656 L 18.566406 19.382812 C 18.75 19.714844 19.179688 20.507812 20.144531 20.746094 Z M 20.144531 20.746094 "/><path style=" stroke:none;fill-rule:nonzero;fill:#a7a1a3;fill-opacity:1;" d="M 25.171875 21.699219 C 25.132812 21.425781 24.863281 20.542969 24.296875 20.175781 C 23.671875 19.769531 22.894531 19.917969 22.546875 20.0625 L 25.179688 21.699219 "/><path style=" stroke:none;fill-rule:nonzero;fill:#a7a1a3;fill-opacity:1;" d="M 23.527344 21.65625 C 24.125 21.992188 24.90625 21.816406 25.167969 21.699219 L 22.535156 20.0625 C 22.617188 20.382812 22.796875 21.246094 23.519531 21.65625 "/><path style=" stroke:none;fill-rule:nonzero;fill:#a7a1a3;fill-opacity:1;" d="M 18.433594 24.65625 C 18.566406 24.210938 18.628906 23.007812 18.167969 22.191406 C 17.457031 20.925781 16.25 20.597656 15.835938 20.523438 Z M 18.433594 24.65625 "/><path style=" stroke:none;fill-rule:nonzero;fill:#a7a1a3;fill-opacity:1;" d="M 16.230469 23.175781 C 16.816406 24.164062 18.050781 24.621094 18.441406 24.664062 L 15.84375 20.53125 C 15.726562 21.042969 15.632812 22.160156 16.230469 23.175781 Z M 16.230469 23.175781 "/><path style=" stroke:none;fill-rule:nonzero;fill:#a7a1a3;fill-opacity:1;" d="M 23.746094 24.15625 C 23.691406 23.691406 23.265625 22.519531 22.519531 21.941406 C 21.355469 21.042969 20.09375 21.21875 19.675781 21.316406 Z M 23.746094 24.15625 "/><path style=" stroke:none;fill-rule:nonzero;fill:#a7a1a3;fill-opacity:1;" d="M 21.058594 23.65625 C 22.023438 24.359375 23.402344 24.273438 23.746094 24.15625 L 19.675781 21.316406 C 19.742188 21.824219 20.128906 22.972656 21.058594 23.65625 Z M 21.058594 23.65625 "/><path style=" stroke:none;fill-rule:nonzero;fill:#a7a1a3;fill-opacity:1;" d="M 32.828125 27.574219 C 32.496094 28.367188 32.558594 29.054688 32.964844 29.085938 C 33.371094 29.121094 33.949219 28.484375 34.253906 27.699219 C 34.550781 26.933594 34.472656 26.308594 34.089844 26.265625 C 33.710938 26.230469 33.144531 26.800781 32.828125 27.566406 "/><path style=" stroke:none;fill-rule:nonzero;fill:#a7a1a3;fill-opacity:1;" d="M 30.925781 21.839844 C 30.546875 22.472656 30.492188 23.0625 30.816406 23.140625 C 31.140625 23.214844 31.699219 22.757812 32.054688 22.125 C 32.40625 21.511719 32.433594 20.960938 32.132812 20.882812 C 31.828125 20.808594 31.292969 21.226562 30.925781 21.839844 Z M 30.925781 21.839844 "/><path style=" stroke:none;fill-rule:nonzero;fill:#a7a1a3;fill-opacity:1;" d="M 27.246094 27.761719 C 27.675781 27.601562 27.5 26.925781 26.890625 26.257812 C 26.289062 25.617188 25.496094 25.234375 25.097656 25.386719 C 24.699219 25.542969 24.828125 26.175781 25.402344 26.820312 C 25.992188 27.492188 26.828125 27.914062 27.246094 27.761719 Z M 27.246094 27.761719 "/><path style=" stroke:none;fill-rule:nonzero;fill:#a7a1a3;fill-opacity:1;" d="M 28.554688 26.820312 C 27.066406 24.714844 26.738281 23.988281 24.792969 22.324219 C 25.242188 23.152344 32.34375 32.691406 25.722656 27.707031 C 25.722656 27.707031 21.914062 25.039062 16.933594 25.320312 C 16.933594 25.320312 26.632812 26.355469 28.335938 32.953125 C 28.347656 33.015625 28.375 33.359375 28.363281 33.460938 C 28.292969 34.347656 27.992188 35.089844 27.734375 35.585938 C 27.523438 35.988281 27.121094 36.492188 27 36.621094 C 26.386719 37.269531 25.304688 37.519531 24.898438 37.714844 C 25.367188 38.058594 26.957031 37.765625 27.667969 37.714844 L 30.3125 37.828125 C 30.382812 37.828125 30.648438 37.839844 30.78125 37.839844 L 31.203125 36.636719 C 31.203125 36.636719 32.378906 36.394531 32.835938 36.316406 C 33.289062 36.234375 33.792969 36.183594 33.792969 36.183594 L 33.035156 37.890625 C 33.867188 38 36.390625 38.285156 36.851562 37.992188 C 36.328125 37.777344 34.804688 37.609375 34.183594 36.714844 C 34.09375 36.621094 33.476562 34.449219 33.496094 33.683594 C 33.496094 33.65625 33.496094 33.589844 33.496094 33.574219 C 34.667969 25.667969 42.664062 22.8125 42.664062 22.8125 C 37.492188 23.996094 34.699219 28.101562 34.699219 28.101562 C 29.453125 34.738281 33.097656 24.976562 34.175781 23.828125 C 32.222656 25.359375 31.503906 27.617188 31.503906 27.617188 C 32.105469 21.203125 37.464844 20.59375 37.464844 20.59375 C 34.699219 20.515625 32.578125 22.847656 32.578125 22.847656 C 28.046875 27.796875 29.742188 20.710938 31.664062 19.695312 C 31.492188 19.785156 27.902344 21.324219 28.5625 26.816406 "/></g></svg>