<svg width="83" height="28" viewBox="0 0 83 28" fill="none" xmlns="http://www.w3.org/2000/svg">
<path d="M25.1289 0.651611H31.1102V4.47786H25.1289V0.651611Z" fill="#A7A1A3"/>
<path d="M16.3032 9.44929H22.821C22.821 9.44929 21.3318 1.20783 12.025 0.466502C12.025 0.466502 3.62541 0.0323528 0.668234 8.52775C0.668234 8.52775 -1.65048 14.1864 2.78529 19.6141C2.78529 19.6141 5.6747 23.6255 11.6217 23.7262C11.6217 23.7262 16.4935 24.1309 20.1561 19.85C20.1561 19.85 22.6168 16.9953 22.7965 14.6132H16.3898C16.3898 14.6132 14.6009 18.2994 10.7481 17.5351C10.7481 17.5351 7.12227 17.395 6.22336 12.9503C6.22336 12.9503 5.58734 8.65062 9.65408 6.93942C9.65408 6.93942 14.1078 5.45348 16.3032 9.44929Z" fill="#A7A1A3"/>
<path d="M25.1289 6.23047H31.0931V23.3384H25.1191L25.1289 6.23047Z" fill="#A7A1A3"/>
<path d="M40.5864 16.6526C41.3596 17.742 42.8161 18.4105 44.1298 18.0721C44.4115 18.0042 44.6597 17.842 44.9413 17.774C46.0925 17.1236 46.8543 15.7548 46.7032 14.3073C46.4967 13.3022 45.8509 12.2742 44.9005 11.8179C44.1388 11.3895 43.0382 11.3142 42.2577 11.6115C41.6029 11.8753 41.0134 12.2955 40.584 12.9017C39.8483 13.9551 39.8769 15.5934 40.5864 16.6526ZM40.0304 7.88275C40.0304 7.88275 41.2061 6.73595 42.2144 6.36569C42.2144 6.36569 44.3649 5.50558 46.8339 6.48365C46.8339 6.48365 49.2702 7.14061 51.2019 9.78728C51.2019 9.78728 53.0168 12.248 52.7474 15.1978C52.7474 15.1978 52.7646 18.4678 50.2613 20.8614C50.2613 20.8614 47.9598 23.5072 44.2972 23.4736C44.2972 23.4736 42.3148 23.8783 40.0304 21.6191V27.8896H34.0156V6.24036H40.0304V7.80739" fill="#A7A1A3"/>
<path d="M55.0312 0.595947H61.0452V23.3388H55.0312V0.595947Z" fill="#A7A1A3"/>
<path d="M69.1774 15.1631C69.3268 16.5475 70.3514 17.6328 71.5206 18.0531C72.7844 18.4725 74.3161 18.0359 75.1783 16.9808C75.9474 16.0535 76.1131 14.7585 75.7163 13.6305C75.286 12.3772 73.952 11.5179 72.6318 11.4778C71.5002 11.4663 70.4421 12.0209 69.7669 12.9154C69.3701 13.5838 69.1006 14.3448 69.1774 15.1631ZM75.931 6.23029H82.1132V23.3382H75.931V21.7581C75.931 21.7581 74.1046 23.6872 71.8545 23.5127C71.8545 23.5127 67.0611 23.7601 64.4624 19.2425C64.4624 19.2425 63.0067 16.8153 63.2753 14.5234C63.2753 14.5234 63.2973 12.3657 64.3726 10.5906C64.3726 10.5906 65.2462 8.97199 66.4562 8.05044C66.4562 8.05044 68.6075 6.41051 70.1971 6.3204C70.1971 6.3204 73.5339 5.30793 75.931 7.89235V6.23029Z" fill="#A7A1A3"/>
</svg>
