<svg width="118" height="47" viewBox="0 0 118 47" fill="none" xmlns="http://www.w3.org/2000/svg">
<path d="M29.4958 5.38802C24.5556 5.38802 19.1254 8.32935 18.1249 13.2898C17.0608 18.5872 21.7989 19.7244 24.8398 19.7589C31.6806 19.8417 35.8421 15.7678 36.7988 11.6156C37.7138 7.62794 34.1796 5.38802 29.4958 5.38802ZM26.1257 17.3914C24.9484 17.3914 24.0992 17.097 23.6001 16.5175C23.0582 15.8897 22.9207 14.9123 23.1853 13.6175C23.6694 11.2661 25.7201 7.75902 29.4011 7.75902C30.2918 7.75902 30.9562 8.01084 31.3744 8.50298C31.8643 9.07215 32.0122 9.95984 31.7996 11.0062C30.5564 17.0809 26.8547 17.3914 26.1257 17.3914ZM70.7382 5.84336C72.5278 5.55819 74.2204 5.25233 77.4912 5.25233C82.7468 5.25233 85.976 6.98632 84.4672 10.8912C83.8132 12.5769 83.142 14.3419 82.5689 15.8322C81.7717 17.9122 81.945 18.7068 82.1103 19.4427C82.1103 19.4427 80.8717 18.9931 78.2965 19.0656C75.9927 19.1288 74.9956 19.7164 71.2188 19.7164C67.1324 19.7164 65.6373 17.703 65.7945 15.5734C65.9389 13.7038 66.9822 12.0779 69.3194 11.1511C70.8664 10.5371 72.41 10.3312 74.0078 10.2059C76.4745 10.0127 78.672 10.1185 79.8666 10.2059C80.0815 9.5068 80.3876 8.08213 76.9239 8.06028C73.2141 8.03154 70.6804 8.6766 69.5077 9.03996L70.7393 5.84336H70.7382ZM74.5705 12.8207C71.9871 13.0863 71.0282 13.7532 70.8098 14.9916C70.6354 15.9805 71.2777 16.9038 73.682 16.8003C75.0858 16.7382 76.6108 16.3979 77.6841 15.8632L78.8788 12.7528C77.088 12.6517 75.8714 12.6908 74.5693 12.8207M64.4728 6.07793C61.9633 6.07793 61.8524 5.39376 57.7683 5.39376C51.9049 5.39376 47.0848 9.68963 46.3985 14.4305C46.1802 15.9241 46.603 17.2637 47.4672 18.2009C48.3638 19.1759 49.7178 19.5554 51.3238 19.6267C53.7003 19.7302 55.8758 19.2576 57.9589 17.903C56.74 21.5044 52.5773 22.253 49.7848 22.2357C48.4215 22.2277 46.9288 22.1702 45.7481 21.6067L44.5234 24.6665C45.7481 24.9908 47.5758 25.2035 49.0396 25.2035C55.892 25.2035 60.2985 22.7646 62.1343 17.9663L66.8135 5.69963C66.8135 5.69963 65.4201 6.07793 64.4716 6.07793M53.7003 17.0395C50.8478 17.0395 51.1077 14.281 52.1094 12.1285C53.3953 9.36997 55.9902 8.10743 57.6377 8.04648C58.8682 7.99934 59.8918 8.18562 60.7133 8.96407C58.7769 16.4508 54.8614 17.0395 53.7003 17.0395ZM16.445 15.4826C15.5543 15.9046 13.3972 16.5462 11.6908 16.5462C7.08558 16.5462 5.6749 13.7659 6.16477 11.0557C6.97235 6.58847 11.3003 3.19754 16.4346 3.19754C18.0186 3.19754 19.4385 3.49765 20.7036 4.01739L22.2021 1.1117C20.937 0.537923 19.1451 0.182617 17.4744 0.182617C9.2738 0.182617 1.60346 4.83723 0.516283 11.0361C-0.442653 16.5106 4.30697 19.5588 10.138 19.5588C11.7035 19.5588 13.44 19.3128 14.883 18.9759L16.445 15.4826ZM94.8479 5.28453L95.8762 2.53982L90.6818 3.42866L89.9712 5.28453H87.6802L86.8529 7.5509H89.1232L86.3931 14.2753C85.693 15.9828 85.656 17.2338 86.2834 18.0939C86.8922 18.9333 88.11 19.345 89.9978 19.345C91.0549 19.345 92.4876 19.1276 93.6071 18.8344L94.7093 16.1863V16.1829C94.0819 16.4393 93.0722 16.7003 92.2484 16.7302C91.6638 16.7532 91.3207 16.6256 91.1081 16.3392C90.7996 15.9356 90.8805 15.1273 91.323 14.02C91.323 14.02 93.5782 8.50758 93.9687 7.5509H97.3874L98.2608 5.28453H94.8468H94.8479ZM110.737 16.307C109.372 16.9682 107.009 17.3258 105.434 17.3258C104.056 17.3258 102.933 16.8693 102.269 16.0368C101.662 15.2814 101.509 14.2741 101.812 13.1794H113.019L113.074 13.0334C113.952 10.6049 113.843 8.49838 112.76 7.099C111.774 5.81806 110.051 5.16724 107.672 5.16724C102.367 5.16724 97.853 8.10972 96.6792 12.3205C96.0888 14.4489 96.3961 16.3151 97.5642 17.7179C98.8524 19.2633 101.111 20.1142 103.923 20.1142C105.548 20.1142 107.506 19.8268 109.275 19.2967L110.736 16.3059L110.737 16.307ZM107.009 7.63138C107.899 7.63138 108.519 7.85676 108.863 8.3006C109.267 8.82609 109.285 9.68273 108.921 10.7751H102.554C103.039 9.27223 104.46 7.63138 107.01 7.63138M115.72 2.53982C116.854 2.53982 117.77 3.43671 117.77 4.54632C117.77 5.65593 116.854 6.56662 115.682 6.56662C114.511 6.56662 113.607 5.66858 113.607 4.54632C113.607 3.42406 114.53 2.53982 115.682 2.53982H115.72ZM115.668 3.04116C114.846 3.04116 114.227 3.70693 114.227 4.56012C114.227 5.41331 114.845 6.06643 115.682 6.06643C116.536 6.07793 117.16 5.38687 117.16 4.54747C117.16 3.70808 116.536 3.04231 115.677 3.04231H115.668V3.04116ZM115.437 5.50415H114.857V3.64828C114.99 3.62644 115.294 3.58044 115.677 3.58044C116.103 3.58044 116.289 3.63793 116.431 3.72877C116.548 3.81271 116.632 3.953 116.632 4.13927C116.632 4.32555 116.455 4.48998 116.196 4.56012V4.58082C116.404 4.64061 116.526 4.79354 116.582 5.06031C116.641 5.32937 116.677 5.43516 116.711 5.50415H116.066C116.006 5.43516 115.97 5.27303 115.938 5.10745C115.903 4.92002 115.814 4.82689 115.626 4.82689H115.436V5.50415H115.437ZM115.457 4.44283H115.626C115.829 4.44283 115.971 4.3497 115.971 4.22206C115.971 4.06913 115.835 3.98749 115.649 3.98749C115.576 3.98749 115.499 4.00014 115.457 4.00014V4.44168V4.44283ZM43.799 0.574718L36.451 19.4427H41.3266L48.6769 0.574718H43.799ZM87.8258 25.8957C83.8687 30.3261 79.2288 33.9872 74.0506 36.464C68.8896 38.9604 63.24 40.2597 57.5649 40.2551C51.8899 40.2517 46.2437 38.9454 41.0897 36.4445C35.9195 33.9619 31.2889 30.2996 27.3423 25.8704L25.9431 29.4626C29.133 34.1977 33.4956 38.2371 38.578 41.1428C44.2831 44.4141 50.9263 46.1826 57.5649 46.17C64.2036 46.1746 70.8422 44.3992 76.5415 41.1232C81.6354 38.2026 86.0026 34.1425 89.1856 29.3867L87.8258 25.8968V25.8957Z" fill="#A4A4A4"/>
</svg>
