<svg width="118" height="29" viewBox="0 0 118 29" fill="none" xmlns="http://www.w3.org/2000/svg">
<path d="M105.355 6.14172C110.836 7.76579 115.745 11.1996 109.936 15.3217C105.503 18.4539 96.3715 20.5111 92.7986 21.323C79.0616 24.4242 63.8088 25.0585 53.2454 24.6563C44.1215 24.316 36.5532 23.0012 30.877 21.1838C34.8799 22.1351 38.9924 22.8466 43.1752 23.3261C53.0733 24.4629 63.3232 24.3392 73.2612 23.2101C79.9614 22.4522 90.2113 20.8821 98.3263 18.3455C105.347 16.1491 115.128 10.7743 105.355 6.14178" fill="#A7A1A3"/>
<path d="M110.666 13.1947C114.934 14.8188 118.578 16.9609 117.092 19.4048C116.905 19.7141 116.647 20.0235 116.287 20.3405C112.831 23.4494 104.919 25.151 99.5087 26.1486C78.7978 29.9535 48.9551 28.4532 32.5059 22.2508C36.6417 23.5733 41.0591 24.4858 45.5703 25.151C51.1291 25.963 56.8053 26.458 62.4971 26.6977C70.7688 27.038 79.2596 26.922 87.4387 26.2105C92.0045 25.8084 96.5079 25.1819 100.769 24.1997C103.513 23.5733 106.641 22.7458 109.283 21.6398C111.668 20.6344 114.592 19.0878 114.342 17.0229C114.256 16.3578 113.849 15.6385 113.028 14.8652C112.45 14.3238 111.668 13.767 110.667 13.1947" fill="#A7A1A3"/>
<path d="M0.261719 1.08372V0.627441C2.21631 0.658385 4.19438 0.666107 6.18806 0.642884C7.11064 0.627441 7.51718 0.588756 8.40852 0.929031C13.0916 2.74644 10.5742 9.46702 5.65646 9.2273L5.64085 8.80969C10.3944 8.37661 9.42499 0.47293 4.56192 1.64821V14.6408C4.61664 15.6617 5.30465 16.0174 6.57123 15.7545V16.2571C4.62444 16.1875 2.6777 16.1798 0.730933 16.2571V15.7931C1.63786 16.0174 2.14605 15.6616 2.25553 14.7413V1.85694C2.25553 1.17638 1.65351 1.06039 1.21569 1.06811L0.261719 1.08372Z" fill="#A7A1A3"/>
<path d="M11.99 13.4179L17.025 0.324829C17.197 0.162424 17.3612 0.185626 17.5332 0.33255L22.8965 14.3848C23.2875 15.2974 23.9442 15.8232 24.9763 15.7536V16.2486H20.3244L20.2775 15.831C20.2697 15.715 20.8717 15.6608 20.7231 15.0963L19.1204 10.866H14.3513L13.0456 14.1915C12.6 15.251 12.6 16.0476 14.148 15.8233V16.2796H9.55078L9.55859 15.8001L10.4968 15.7847C11.4663 15.4599 11.6461 14.2921 11.9901 13.4183L11.99 13.4179ZM14.6951 9.93782H18.6669L16.7827 4.29978L14.6951 9.93782Z" fill="#A7A1A3"/>
<path d="M24.7961 1.87963H28.6505V15.0576C28.6505 15.4598 28.2674 15.7769 27.8374 15.8233L27.1884 15.8929V16.2795H33.1695V15.8155L31.942 15.7769C31.4807 15.7537 31.1133 15.3824 31.1133 14.8643V1.80195H34.436C35.2413 2.05717 35.6948 2.62944 35.7339 3.59615H36.1404L36.0935 0.41755C35.8824 0.556752 35.6323 0.641824 35.3351 0.695955H24.7649C24.3349 0.665011 24.0143 0.525808 23.7172 0.363403L23.1387 3.42588L23.5061 3.47229C23.6938 2.64479 24.0612 2.03384 24.7962 1.87914" fill="#A7A1A3"/>
<path d="M36.7029 13.4179L41.7379 0.324829C41.9099 0.162424 42.0819 0.185626 42.2461 0.33255L47.6172 14.3848C48.0082 15.2974 48.6493 15.8232 49.6892 15.7536V16.2486H45.0373L44.9982 15.831C44.9826 15.715 45.5846 15.6608 45.436 15.0963L43.8333 10.866H39.0642L37.7585 14.1915C37.3129 15.251 37.3207 16.0476 38.8609 15.8233V16.2796H34.2637L34.2715 15.8001L35.2175 15.7847C36.1792 15.4599 36.3668 14.2921 36.703 13.4183L36.7029 13.4179ZM39.408 9.93782H43.3798L41.4956 4.29978L39.408 9.93782Z" fill="#A7A1A3"/>
<path d="M51.9411 0.147202L62.7617 12.204L62.7304 1.61653C62.7304 0.99009 61.5264 0.96691 60.7758 0.959169V0.54155H65.7797V0.959169C65.2011 1.0133 64.13 1.0597 64.1222 1.55466L63.9424 16.1481C63.9424 16.4884 63.4967 16.3569 63.3091 16.1481L53.1139 4.88018L52.8402 4.86473L52.9732 14.8954C53.3172 15.8544 54.0286 15.7306 54.9512 15.7461V16.2488H49.5723L49.6035 15.7615C50.5183 15.8621 51.3549 15.661 51.6051 14.9031L51.7067 0.518592C51.7067 0.271109 51.8631 0.0623106 51.9413 0.147378" fill="#A7A1A3"/>
<path d="M68.2128 0.67395H74.0611V1.06837H73.1307C72.7945 1.06837 72.4348 1.35451 72.4427 1.84172L72.4818 11.1996V13.2568C72.4818 17.2243 71.7156 19.2738 68.2443 21.0216C67.1106 21.5939 67.3608 21.5011 68.0957 20.8128C70.2379 18.8021 70.1206 16.5051 70.1128 13.5818C70.105 9.70735 70.0503 5.86369 70.0503 1.91953C70.0581 1.26217 69.6437 1.03788 69.2294 1.03788H68.2208L68.213 0.674412" fill="#A7A1A3"/>
<path d="M76.4919 13.4179L81.5269 0.324829C81.6989 0.162424 81.8631 0.185626 82.0351 0.33255L87.4063 14.3848C87.7972 15.2974 88.4461 15.8232 89.4861 15.7536V16.2486H84.8264L84.7873 15.831C84.7717 15.715 85.3736 15.6609 85.2251 15.0963L83.6223 10.866H78.8532L77.5476 14.1915C77.1019 15.2511 77.1019 16.0476 78.65 15.8234V16.2796H74.0527L74.0605 15.8002L75.0066 15.7847C75.9683 15.4599 76.1559 14.2921 76.4921 13.4183L76.4919 13.4179ZM79.1971 9.93783H83.1688L81.2846 4.29978L79.1971 9.93783Z" fill="#A7A1A3"/>
<path d="M89.9319 0.674041H95.9909V1.06846H94.7791C94.4351 1.06846 94.0832 1.3546 94.0832 1.84181L94.1301 13.7361C94.1379 14.3007 94.3725 14.9812 95.1309 14.9812H98.2738C99.0635 14.9194 99.556 14.4321 99.7593 13.071H100.158C100.08 14.146 99.9548 15.1823 99.7124 16.1258H90.3617V15.685C91.0575 15.7004 91.3546 15.4684 91.683 15.0663L91.6986 1.91906C91.6986 1.2617 91.292 1.03742 90.8776 1.03742H89.9394L89.9316 0.67395" fill="#A7A1A3"/>
<path d="M101.961 0.67395H107.567V1.06837H106.636C106.3 1.06837 105.948 1.35451 105.948 1.84172L105.987 11.1996V14.9117C106.034 15.3526 106.175 15.716 106.738 15.7392H108.051V16.2574H101.977L101.984 15.8243L102.907 15.8011C103.337 15.7934 103.618 15.4144 103.618 14.8267C103.618 10.519 103.556 6.28098 103.556 1.91918C103.556 1.26182 103.149 1.03754 102.735 1.03754H101.961L101.961 0.67395Z" fill="#A7A1A3"/>
</svg>
