<svg width="119" height="26" viewBox="0 0 119 26" fill="none" xmlns="http://www.w3.org/2000/svg">
<path d="M1.30275 10.1422C1.08351 10.1422 0.900391 10.3164 0.900391 10.5262V21.739C0.900391 21.9512 1.08361 22.123 1.30275 22.123M4.66995 10.1422H1.30275C1.08351 10.1422 0.900391 10.3164 0.900391 10.5262V21.739C0.900391 21.9512 1.08361 22.123 1.30275 22.123H4.65247C8.22221 22.123 10.8565 19.9276 10.8565 16.141C10.8565 12.357 8.24063 10.1422 4.66995 10.1422ZM4.56397 19.9629H3.33754V12.3068H4.58333C6.63201 12.3068 8.32895 13.5405 8.32895 16.141C8.32895 18.745 6.61542 19.9629 4.56397 19.9629Z" fill="#A7A1A3"/>
<path d="M18.8274 19.1639C19.7288 19.1639 20.4535 19.857 20.4535 20.7024C20.4535 21.546 19.7288 22.2399 18.8274 22.2399C17.9435 22.2399 17.2207 21.546 17.2207 20.7024C17.2207 19.857 17.9435 19.1639 18.8274 19.1639Z" fill="#A7A1A3"/>
<path d="M29.1875 17.2207C30.8292 16.7663 31.8559 15.4991 31.8559 13.8277C31.8559 11.7468 30.3016 10.1432 27.8625 10.1432H23.3711C23.1493 10.1432 22.9688 10.3177 22.9688 10.5271V21.7391C22.9688 21.9513 23.1491 22.1222 23.3711 22.1222H25.023C25.244 22.1222 25.4244 21.9487 25.4244 21.7391V17.5095H26.696L28.9555 21.7391C29.0688 21.9513 29.3413 22.1222 29.5623 22.1222H31.4646C31.6838 22.1222 31.7749 21.9487 31.6627 21.7391L29.1875 17.2207ZM27.404 15.4991H25.4244V12.1695H27.404C28.6406 12.1695 29.3643 12.8282 29.3643 13.8426C29.3643 14.8245 28.6406 15.4991 27.404 15.4991Z" fill="#A7A1A3"/>
<path d="M17.1348 13.7422C16.3936 13.7422 15.192 13.9439 14.6608 15.042V14.1895C14.6608 13.9861 14.494 13.8214 14.286 13.8091H12.7843C12.5679 13.8091 12.3893 13.9764 12.3828 14.1816V21.739C12.3854 21.9477 12.5642 22.1204 12.7843 22.1204H14.3284L14.331 22.1154C14.5502 22.1154 14.7324 21.9429 14.7324 21.7314V18.3182C14.7324 16.5279 15.7756 15.9704 16.9763 15.9704C17.1872 15.9704 17.4173 15.9854 17.6825 16.0373V13.7742C17.5048 13.7567 17.33 13.7422 17.1348 13.7422Z" fill="#A7A1A3"/>
<path d="M72.0093 13.8102H70.3078C70.0896 13.812 69.8087 13.9827 69.6844 14.1906L67.7149 18.6756L65.5815 14.1915C65.4573 13.9828 65.1764 13.8119 64.9554 13.8119L63.1387 13.8102C62.9195 13.8102 62.8376 13.9827 62.9639 14.1941L66.4609 21.0744L64.5936 25.0169C64.4822 25.2248 64.5727 25.3991 64.7917 25.3991H66.4822C66.6957 25.3991 66.9537 25.2378 67.0734 25.0389L72.1826 14.1897C72.3032 13.9793 72.2265 13.812 72.0093 13.8102Z" fill="#A7A1A3"/>
<path d="M79.3455 17.0877L78.1098 16.8341C77.632 16.7495 77.3152 16.4959 77.3152 16.0891C77.3152 15.6171 77.8097 15.2631 78.4266 15.2631C79.2019 15.2631 79.5922 15.6462 79.7617 16.0469L79.7643 16.0444C79.8251 16.2381 80.001 16.3587 80.2072 16.3024L81.4705 16.0311C81.6686 15.973 81.778 15.7801 81.7411 15.5926C81.476 14.7049 80.569 13.5575 78.409 13.5575C76.5362 13.5575 75.1587 14.7921 75.1587 16.2786C75.1587 17.4428 75.9174 18.4071 77.595 18.7602L78.7459 19.0156C79.4144 19.1486 79.6814 19.4541 79.6814 19.8257C79.6814 20.2642 79.3085 20.6535 78.5314 20.6535C77.5968 20.6535 77.0914 20.1462 76.9707 19.5536L76.9681 19.5554C76.9415 19.4665 76.8522 19.4146 76.7583 19.4251L75.2814 19.7359C75.0817 19.7906 74.9656 19.9869 75.0061 20.1797C75.2786 21.1246 76.2518 22.376 78.5491 22.376C80.8289 22.376 81.9237 20.9908 81.9237 19.6408C81.9237 18.4247 81.059 17.425 79.3455 17.0877Z" fill="#A7A1A3"/>
<path d="M36.6776 13.5562C34.4521 13.5562 32.4043 15.2787 32.4043 17.9311C32.4043 20.7359 34.5055 22.3738 36.8893 22.3738C38.8818 22.3738 40.2031 21.3286 40.7325 20.0261C40.7482 19.8474 40.6378 19.6765 40.4508 19.6263L39.1894 19.2679C39.0448 19.2387 38.8818 19.2929 38.7695 19.4404C38.4509 20.0427 37.8708 20.4487 36.9077 20.4487C35.742 20.4487 34.7697 19.6553 34.7173 18.5571H40.564C40.7822 18.5571 40.9591 18.3864 40.9609 18.1785C40.9661 18.0782 40.9713 17.9733 40.9713 17.8624C40.9713 15.1941 39.3634 13.5562 36.6776 13.5562ZM34.7709 17.0187C34.8252 16.2579 35.4956 15.3799 36.7138 15.3799C38.0571 15.3799 38.6234 16.1909 38.6575 17.0187H34.7709Z" fill="#A7A1A3"/>
<path d="M51.242 21.7698L51.2342 14.023V10.2743C51.2342 10.0611 51.0536 9.88855 50.8327 9.88855H49.319C49.1165 9.88855 48.9544 10.0391 48.9277 10.225C48.9258 10.2424 48.9173 10.2556 48.9173 10.2744V14.5022L48.9277 14.5004V14.6377C48.68 14.1974 47.9747 13.6057 46.473 13.6057C44.0173 13.6057 42.3047 15.5157 42.3047 17.9488C42.3047 20.4648 44.0689 22.3238 46.5439 22.3238C47.7086 22.3238 48.5916 21.8165 48.9802 21.1578C48.9802 21.1703 48.982 21.1803 48.982 21.1913L48.9846 21.1838C48.9846 21.3044 48.9872 21.4064 48.9925 21.4999C49.0055 21.6909 49.0238 21.861 49.0449 21.9895C49.0781 22.0592 49.1545 22.1146 49.242 22.1208H50.8514L50.8462 22.1108C51.0524 22.1108 51.2181 21.961 51.242 21.7698ZM46.8271 20.3109C45.5878 20.3109 44.6698 19.432 44.6698 17.9464C44.6698 16.46 45.6246 15.6137 46.8271 15.6137C48.0269 15.6137 48.9633 16.4423 48.9633 17.9288C48.9633 19.432 48.0269 20.3109 46.8271 20.3109Z" fill="#A7A1A3"/>
<path d="M61.6915 21.7698L61.6863 14.023V10.2743C61.6863 10.0611 61.5059 9.88855 61.2839 9.88855H59.772C59.5684 9.88855 59.4065 10.0391 59.3798 10.225C59.378 10.2424 59.3693 10.2556 59.3693 10.2744V14.5022L59.3798 14.5004V14.6377C59.1321 14.1974 58.4259 13.6057 56.9241 13.6057C54.4694 13.6057 52.7559 15.5157 52.7559 17.9488C52.7559 20.4648 54.5219 22.3238 56.9959 22.3238C58.1607 22.3238 59.0437 21.8165 59.4332 21.1578V21.1913L59.4384 21.1838C59.4384 21.3044 59.4402 21.4064 59.4462 21.4999C59.4593 21.6909 59.4783 21.861 59.4997 21.9895C59.5311 22.0592 59.6094 22.1146 59.6976 22.1208H61.3062L61.3009 22.1108C61.5071 22.1108 61.6738 21.9586 61.695 21.7674M57.2809 20.3109C56.0434 20.3109 55.1254 19.432 55.1254 17.9464C55.1254 16.46 56.0775 15.6137 57.2809 15.6137C58.4816 15.6137 59.4171 16.4423 59.4171 17.9288C59.4171 19.432 58.4816 20.3109 57.2809 20.3109Z" fill="#A7A1A3"/>
<path d="M75.8597 11.6315C75.9205 11.48 75.9573 11.318 75.9573 11.1472C75.9573 10.3951 75.3128 9.77783 74.5099 9.77783C73.7236 9.77783 73.0781 10.3951 73.0781 11.1472C73.0781 11.7865 73.5458 12.3246 74.1692 12.4725L73.3857 14.1475C73.383 14.1599 73.3804 14.1699 73.3804 14.1826C73.3804 14.26 73.4457 14.3227 73.5268 14.3227L73.5259 14.3252H74.3104C74.3858 14.3252 74.4754 14.2688 74.5177 14.1994L75.8306 11.7002C75.8411 11.6802 75.8489 11.657 75.8573 11.6351C75.8582 11.6342 75.8597 11.634 75.8597 11.6315Z" fill="#A7A1A3"/>
<path d="M100.457 17.0277C100.457 17.7066 99.8814 18.2587 99.1725 18.2587C98.4616 18.2587 97.8871 17.7066 97.8871 17.0277C97.8871 16.3496 98.4616 15.7983 99.1725 15.7983C99.8814 15.7983 100.457 16.3496 100.457 17.0277ZM101.951 24.7101V7.98023C101.889 5.42292 100.276 3.23459 97.9773 2.23775C97.214 1.9216 96.3909 1.71817 95.5337 1.67414C91.2899 1.45921 88.0101 3.85983 87.1354 7.10051C86.5673 9.07396 87.0065 11.4454 88.4272 13.4383C90.1702 15.8855 97.3365 22.3739 100.797 25.2649C100.916 25.3485 101.062 25.3997 101.222 25.3997C101.623 25.3997 101.946 25.0915 101.951 24.7101Z" fill="#A7A1A3"/>
<path d="M107.321 16.0502C105.555 16.0502 104.127 17.416 104.127 19.1033C104.127 20.787 105.555 22.1537 107.321 22.1537C109.082 22.1537 110.513 20.787 110.513 19.1033C110.513 17.416 109.082 16.0502 107.321 16.0502Z" fill="#A7A1A3"/>
<path d="M104.127 22.9763C103.518 22.9763 103.025 23.4483 103.025 24.0304C103.025 24.6125 103.518 25.0836 104.127 25.0836C104.735 25.0836 105.228 24.6125 105.228 24.0304C105.228 23.4483 104.735 22.9763 104.127 22.9763Z" fill="#A7A1A3"/>
<path d="M113.397 8.62598C111.058 8.62598 109.158 10.4409 109.158 12.6848C109.158 14.9233 111.058 16.7382 113.397 16.7382C115.743 16.7382 117.64 14.9233 117.64 12.6848C117.64 10.4409 115.743 8.62598 113.397 8.62598Z" fill="#A7A1A3"/>
<path d="M116.348 3.63013C115.119 3.63013 114.121 4.58204 114.121 5.75944C114.121 6.93329 115.119 7.887 116.348 7.887C117.576 7.887 118.573 6.93329 118.573 5.75944C118.573 4.58204 117.576 3.63013 116.348 3.63013Z" fill="#A7A1A3"/>
<path d="M107.835 8.74307C110.088 8.74307 111.913 7.0003 111.913 4.84808C111.913 2.69675 110.088 0.953125 107.835 0.953125C105.59 0.953125 103.766 2.69675 103.766 4.84808C103.766 7.0003 105.59 8.74307 107.835 8.74307Z" fill="#A7A1A3"/>
<path d="M107.991 12.1713C107.991 13.4499 106.907 14.4864 105.57 14.4864C104.234 14.4864 103.15 13.4499 103.15 12.1713C103.15 10.8917 104.234 9.85522 105.57 9.85522C106.907 9.85522 107.991 10.8917 107.991 12.1713Z" fill="#A7A1A3"/>
</svg>
