<svg width="118" height="46" viewBox="0 0 118 46" fill="none" xmlns="http://www.w3.org/2000/svg">
<g clip-path="url(#clip0_2403_86150)">
<path d="M55.3594 13.89H60.389C66.0226 13.89 70.9949 15.7834 70.9949 23.0661C70.9949 30.3489 66.0182 32.2423 60.389 32.2423H55.3594V13.89ZM59.0446 29.3538H61.0987C64.18 29.3538 67.1555 27.0642 67.1555 23.0705C67.1555 19.0769 64.18 16.7873 61.0987 16.7873H59.0446V29.3582V29.3538Z" fill="#A7A1A3"/>
<path d="M72.9121 13.89H76.5973V21.7804L83.2315 13.89H87.7586L80.2031 22.5422L88.076 32.2467H83.2579L76.6502 23.7266H76.5973V32.2467H72.9121V13.89Z" fill="#A7A1A3"/>
<path d="M99.0269 17.2584C97.8676 16.7608 96.5804 16.4702 95.2888 16.4702C93.9973 16.4702 92.3927 17.0206 92.3927 19.0197C92.3927 22.2031 100.446 20.8602 100.446 27.0157C100.446 31.0402 97.2593 32.5637 93.5476 32.5637C91.5463 32.5637 90.6515 32.2995 88.8354 31.8548L89.1792 28.5436C90.4443 29.2261 91.8902 29.6752 93.3404 29.6752C94.7907 29.6752 96.6069 28.9663 96.6069 27.3063C96.6069 23.8103 88.5488 25.2545 88.5488 19.1826C88.5488 15.0789 91.7359 13.5818 94.9714 13.5818C96.554 13.5818 98.0263 13.7931 99.3663 14.2423L99.0225 17.2672" fill="#A7A1A3"/>
<path d="M102.408 13.89H106.093V21.3093H113.464V13.89H117.149V32.2467H113.464V24.2021H106.093V32.2467H102.408V13.89Z" fill="#A7A1A3"/>
<path d="M25.0059 15.1758C26.1035 12.5867 27.6639 10.5877 29.3567 9.68947C31.1464 8.73839 32.9228 9.54857 33.6281 9.92283C33.8706 10.0505 33.8353 10.1914 33.6149 10.3455C29.6256 13.1327 27.708 17.4258 26.5267 21.2345C26.3107 19.0417 25.7685 16.9678 25.0059 15.1714" fill="#A7A1A3"/>
<path d="M26.6185 22.7183C29.9378 17.0074 35.5272 13.4761 38.8642 13.9561C40.5789 14.1894 41.5046 15.6381 41.8529 16.2721C41.9851 16.5143 41.897 16.6244 41.6281 16.6376C40.3982 16.6948 39.1772 16.9898 37.9914 17.4477L36.043 16.1048L36.8717 17.9321C35.8931 18.3988 34.9454 18.9668 34.0417 19.5833L31.8773 18.5133L33.0719 20.279C31.0045 21.8377 29.2237 23.6209 27.9233 25.0211C27.4869 25.4659 27.1386 25.4614 26.5215 25.3558C26.6096 24.4707 26.6361 23.5857 26.6096 22.7139" fill="#A7A1A3"/>
<path d="M25.0058 32.6826C24.9969 32.3128 25.3187 31.9781 25.8301 31.6127C27.5581 30.4502 28.8584 29.9615 29.696 30.8025C29.8503 30.961 30.2205 31.2208 30.6834 31.1856C32.4599 31.0535 34.8579 30.8509 37.2118 30.9478L37.3088 28.8519L38.3755 31.0226C39.4423 31.1195 40.4826 31.2912 41.4215 31.5818L41.9153 29.5432L42.6029 32.0266C43.3391 32.37 43.9827 32.8147 44.494 33.3827C44.6747 33.5853 44.807 33.5456 44.9304 33.2947C45.1861 32.7839 45.6181 31.5951 45.2213 30.5207C43.9033 26.9498 31.8075 25.1753 25.4025 31.4762C25.4422 31.3441 25.7155 30.6308 25.9447 30.1861C27.1172 27.9096 28.8011 26.3862 30.053 27.2712C30.2294 27.3945 30.5864 27.4693 30.9876 27.2932C32.4643 26.6856 34.298 25.8974 36.242 25.2986L35.9158 23.2203L37.3573 24.9816C38.5519 24.6689 39.7729 24.4488 40.9631 24.3959L40.7912 22.2648L42.1974 24.4047C43.2641 24.4752 44.2956 24.7086 45.2434 25.1709C45.4858 25.2854 45.6048 25.2193 45.6137 24.9419C45.6357 24.2947 45.5564 22.802 44.4764 21.8597C41.2937 19.0285 30.366 20.9395 25.7948 29.4111C25.1997 30.5075 24.825 32.2247 24.825 32.2247C23.2998 31.212 21.3029 29.8999 20.2362 30.8113C20.0687 30.9566 19.7116 31.2252 19.2488 31.1944C17.4943 31.0667 15.1404 30.8641 12.8173 30.9522L12.7204 28.8783L11.6668 31.0226C10.5912 31.1151 9.54652 31.2824 8.59437 31.5598L8.11389 29.5696L7.44386 31.9825C6.65921 32.3348 5.97155 32.7927 5.43376 33.3871C5.25303 33.5897 5.12078 33.55 4.99736 33.3035C4.74169 32.7883 4.30969 31.6039 4.70642 30.5251C5.98477 27.073 16.4849 24.8451 24.6223 31.5818C24.1682 30.3886 21.2104 26.5755 19.7822 27.4825C19.597 27.6014 19.2488 27.6851 18.8476 27.5089C17.3753 26.9013 15.5504 26.1176 13.6108 25.5187L13.937 23.4317L12.4911 25.1973C12.4911 25.1973 10.8072 24.713 8.88972 24.6073L9.06163 22.4762L7.65545 24.6161C6.57987 24.6821 5.54396 24.9199 4.59181 25.3866C4.34936 25.5011 4.23035 25.4307 4.22153 25.1577C4.19949 24.5104 4.27883 23.0222 5.35882 22.0755C8.40482 19.3632 20.0731 21.7497 24.8294 31.0403C24.7501 28.209 23.2337 24.4928 21.9553 24.9023C21.7482 24.9683 21.4705 24.9023 21.1972 24.5897C18.3098 21.4723 13.8841 16.893 8.37397 16.6332C8.10507 16.62 8.01691 16.5099 8.14915 16.2678C8.49298 15.6293 9.41869 14.1851 11.1378 13.9517C15.6077 13.3089 22.8105 19.4512 24.9969 28.4116C26.1254 26.3597 25.689 23.8984 24.4856 23.5241C24.274 23.4581 24.1109 23.37 23.9963 22.9913C23.4277 21.1332 22.8458 19.1342 21.9333 17.1748L23.5599 16.1225H21.4087C20.9547 15.2726 20.4213 14.4272 19.791 13.6171L21.347 12.2873L18.9975 12.6704C18.2569 11.8514 17.3974 11.0721 16.3923 10.3499C16.1719 10.1914 16.1366 10.0549 16.3791 9.92725C17.0844 9.55298 18.8609 8.74281 20.6505 9.69388C22.3433 10.5921 23.8993 12.5911 25.0013 15.1802V0.67627C11.2745 0.67627 0.148438 10.7462 0.148438 23.1631C0.148438 35.5799 11.2745 45.6719 25.0058 45.6719V32.6782" fill="#A7A1A3"/>
</g>
<defs>
<clipPath id="clip0_2403_86150">
<rect width="117" height="45" fill="white" transform="translate(0.148438 0.67627)"/>
</clipPath>
</defs>
</svg>
