<svg width="81" height="74" viewBox="0 0 81 74" fill="none" xmlns="http://www.w3.org/2000/svg">
<path d="M47.5506 61.6275C47.0104 61.0411 46.2068 60.9612 45.4426 60.9612C44.6785 60.9612 43.888 61.0811 42.8603 61.7874C44.1383 58.5624 46.1672 54.1381 46.1936 54.0981L46.299 53.8849L46.0618 53.9115C46.0618 53.9115 44.8234 54.0448 42.3597 54.6312H42.2938C42.2938 54.6445 42.1094 55.1509 42.1094 55.1509L36.958 68.7171C36.958 68.7171 36.5759 69.5433 35.456 70.1963C34.8632 70.5428 34.5338 70.5828 34.3362 70.6095C34.1517 70.6494 34.099 70.4629 34.1254 70.3962C34.2703 69.9831 34.6919 68.8237 34.6919 68.8237C35.9435 65.2922 36.7208 63.16 37.0634 62.3205L37.5113 61.2144H34.1122C34.1122 61.2144 34.0463 61.321 34.0331 61.361C33.6379 61.1211 33.1768 60.9878 32.6498 60.9878C32.1228 60.9878 30.9239 61.4276 29.5932 62.3604C28.223 63.3333 27.0504 64.466 26.0887 65.7187C24.8897 67.3179 24.2969 68.9037 24.2969 70.4495C24.2969 71.9954 24.455 71.7822 24.7843 72.2886C25.0478 72.715 25.588 73.2347 26.5761 73.2347C27.5643 73.2347 29.1189 72.7417 30.3046 71.8088C30.3969 72.1287 30.5945 72.4218 30.9634 72.6884C31.4509 73.0349 32.1228 73.2081 32.3994 73.2214C32.6761 73.2214 33.6906 73.1814 34.5865 72.715C35.3506 72.3152 35.8117 71.8088 36.2465 71.1425C36.4705 71.6889 36.7603 72.142 37.1161 72.5018C37.5904 72.9815 38.1832 73.2214 38.8683 73.2214C40.8182 73.2214 42.8603 72.2486 44.942 70.3429C47.1949 68.2907 48.3279 66.0518 48.3279 63.7064C48.3279 61.361 48.0644 62.1872 47.5506 61.6142V61.6275ZM42.9394 68.6905C41.6087 70.6761 41.1739 70.796 40.7128 70.836C40.4493 70.8627 40.2517 70.7694 40.0936 70.6361C40.0014 70.5561 39.9091 70.3962 39.9223 70.183C39.9223 70.183 39.9487 69.9298 39.975 69.8232C40.0014 69.7166 40.3703 68.4106 40.9763 67.038C41.5824 65.6521 41.8195 65.3056 42.2938 64.7459C43.0711 63.813 43.9275 63.4266 44.3623 63.6664C45.2055 64.1462 43.967 67.1579 42.9526 68.6771L42.9394 68.6905ZM28.223 70.6228C27.5247 70.2763 28.0649 68.7438 29.277 66.5582C30.2519 64.7725 31.2269 63.8663 32.1491 63.8663C33.0714 63.8663 32.3863 63.893 32.5575 64.0795C32.7025 64.2528 32.7683 64.4127 32.7683 64.5859C32.7683 65.079 32.5048 66.0785 31.2664 68.0375C30.1729 69.7566 28.7895 70.916 28.223 70.6361" fill="#A7A1A3"/>
<path d="M70.2114 61.9605C69.7503 61.4541 69.0915 61.2009 68.2615 61.2009C67.4315 61.2009 66.9967 61.4807 66.338 61.9605C66.417 61.7473 66.5488 61.3475 66.5488 61.3475H63.0047L60.2775 69.5698C59.8954 69.983 59.4211 70.3428 59.2103 70.476C58.7624 70.7426 58.13 70.9824 57.603 70.7559C57.603 70.7559 57.3395 70.6226 57.4054 70.4627C57.5766 69.943 58.4067 67.4776 58.4067 67.4776C59.1313 65.3054 59.7769 63.493 60.2643 62.2403L60.6991 61.1476H57.1155L56.9179 61.6673C56.2855 63.3598 55.7585 64.6391 55.3106 65.5853C54.6123 67.0778 53.9008 68.2372 53.2157 69.0235C52.5834 69.7298 52.0168 70.3028 51.3054 70.3028C51.2527 70.3028 51.1868 70.3028 51.1341 70.3028C51.0287 70.2761 50.9628 70.1562 50.9892 70.0762C51.5294 68.637 54.4147 61.1742 54.4147 61.1742H50.752C50.752 61.1742 47.2475 70.1695 47.1948 70.9558C47.1421 71.6088 47.4847 72.1685 47.9326 72.5949C48.3806 73.0214 48.9207 73.2346 49.5531 73.2346C50.7125 73.2346 52.0432 72.5416 53.5583 71.1823V71.209L53.4924 71.5688C53.4924 71.9153 53.6769 72.4083 54.5859 72.8215C55.1656 73.088 55.719 73.2213 56.2196 73.2213C57.0892 73.2213 57.8006 73.1013 58.7097 72.4617C59.1049 72.1951 59.3684 71.9153 59.5792 71.6487L59.0522 73.2213H62.5831L62.7544 72.6482C63.1892 71.1823 63.6108 69.903 64.0323 68.8635C64.612 67.371 65.2049 66.1583 65.7714 65.2654C66.4302 64.2526 66.7991 64.106 67.1153 63.9728C67.1153 63.9728 67.3524 63.8528 67.8136 63.8129C68.1956 63.7729 68.5909 64.0794 68.6963 64.3059C68.8148 64.5591 68.6699 64.9989 68.525 65.3454C68.3932 65.6652 68.301 65.9051 68.4064 66.0517C68.4328 66.105 68.4986 66.1583 68.6172 66.1583C69.3155 66.1583 69.9084 65.8918 70.3168 65.3987C70.6989 64.9323 70.8833 64.3726 70.8833 63.7329C70.8833 63.0932 70.6462 62.4136 70.1982 61.9205" fill="#A7A1A3"/>
<path d="M19.0799 53.4581C19.0403 53.4448 15.6149 51.3525 12.2948 51.166C8.36866 50.9527 1.39913 52.7118 0.226562 60.721L0.490061 60.7743C1.4123 57.2028 4.74556 53.8312 8.39501 52.7518C10.6084 52.0988 13.0853 52.352 15.3777 53.4714C18.1181 54.8707 20.3447 58.149 20.6609 61.2807C20.8453 63.093 20.4896 65.7317 17.7624 67.9305C15.4831 69.7962 11.5438 70.5158 10.1077 69.3298C9.43583 68.7701 9.62028 67.8905 10.0287 66.6378L14.5213 55.0573L14.4818 54.9906C14.3896 54.8707 12.3475 52.0055 10.3844 52.925C9.75203 53.2182 5.5624 67.2775 4.28444 71.5686L4.24491 71.6885L4.36349 71.7285C10.3712 73.9807 15.6017 74.0606 19.9099 71.9684C23.1246 70.6091 25.417 67.2375 25.6014 63.5861C25.7991 59.5216 23.4144 55.8302 19.0667 53.4448" fill="#A7A1A3"/>
<path d="M9.09416 27.3653C8.89654 26.9521 8.02699 25.393 6.56458 24.9798C5.06264 24.5534 3.70562 25.1664 3.04688 25.6462L9.10733 27.3653" fill="#A7A1A3"/>
<path d="M5.78676 28.0446C7.15695 28.4444 8.59302 27.6848 9.09366 27.3517L3.0332 25.6326C3.46798 26.3788 4.0872 27.5516 5.78676 28.0446Z" fill="#A7A1A3"/>
<path d="M10.2531 24.1666C10.319 23.6069 10.3585 21.8878 9.3704 20.7551C8.3164 19.5424 6.89351 19.3025 6.08984 19.3824L10.2531 24.1666Z" fill="#A7A1A3"/>
<path d="M7.12973 22.9408C8.0915 23.9936 9.65932 24.1935 10.2522 24.1668L6.08892 19.3827C6.08892 20.2489 5.93082 21.6348 7.12973 22.9542" fill="#A7A1A3"/>
<path d="M14.7589 39.9186C14.1265 39.6787 11.7945 39.2522 10.3057 40.3184C8.77746 41.4111 8.30316 43.2235 8.21094 44.1963L14.7589 39.9186Z" fill="#A7A1A3"/>
<path d="M12.6626 43.7564C14.2172 42.7303 14.7311 40.7047 14.7706 39.9185L8.22266 44.1962C9.38205 44.5294 11.1738 44.7426 12.6758 43.7564" fill="#A7A1A3"/>
<path d="M14.3774 37.7597C13.9953 37.1467 11.94 34.9479 9.66076 34.748C7.47373 34.5614 5.51067 35.5076 4.6543 36.2272L14.3774 37.7464" fill="#A7A1A3"/>
<path d="M9.13231 39.1857C11.372 39.5988 13.6118 38.3861 14.3891 37.7598L4.66602 36.2406C5.64096 37.4666 7.01115 38.7993 9.13231 39.1857Z" fill="#A7A1A3"/>
<path d="M31.108 18.7032C30.8577 18.1035 29.6061 15.9313 27.6167 15.1584C25.4297 14.3188 23.3744 14.9185 22.4258 15.4649L31.0949 18.6899" fill="#A7A1A3"/>
<path d="M25.9698 19.0363C27.9329 19.8492 30.2385 19.1562 31.0949 18.7164L22.4258 15.4915C23.0977 16.7841 24.1122 18.2767 25.9698 19.0363Z" fill="#A7A1A3"/>
<path d="M19.7516 43.0502C19.7911 42.3439 19.7516 40.7847 18.7371 39.612C17.6567 38.3593 16.2207 38.1061 15.4434 38.0662L19.7516 43.0502Z" fill="#A7A1A3"/>
<path d="M16.5371 41.5843C17.5384 42.757 19.1194 43.1168 19.7518 43.0502L15.4436 38.0662C15.3777 38.919 15.5622 40.4516 16.5371 41.5843Z" fill="#A7A1A3"/>
<path d="M20.2534 36.8669C20.0426 36.3072 19.3048 34.8013 17.9083 34.1883C16.3931 33.5353 14.9966 33.9084 14.2852 34.1883L20.2534 36.8536" fill="#A7A1A3"/>
<path d="M16.5776 36.8399C18.0927 37.5995 19.7132 37.1997 20.2534 36.8666L14.2852 34.2013C14.6145 35.0009 15.2601 36.1736 16.5776 36.8399Z" fill="#A7A1A3"/>
<path d="M14.1255 31.4829C13.7697 31.0164 12.5708 29.7105 10.9503 29.5905C9.21121 29.4573 7.97277 30.4967 7.40625 31.0831L14.1386 31.4829" fill="#A7A1A3"/>
<path d="M10.7922 32.989C12.3337 33.0823 13.717 31.9096 14.1386 31.4832L7.40625 31.0834C7.98595 31.7097 9.02676 32.8958 10.7922 32.989Z" fill="#A7A1A3"/>
<path d="M35.2445 11.7467C35.587 11.147 36.4961 9.30795 35.9296 7.46891C35.3235 5.49661 33.6899 4.60375 32.8203 4.21729L35.2445 11.76" fill="#A7A1A3"/>
<path d="M32.2543 8.74824C32.8208 10.4807 34.5994 11.4801 35.245 11.76L32.8208 4.21729C32.3861 5.12348 31.6087 6.76262 32.2543 8.74824Z" fill="#A7A1A3"/>
<path d="M42.1357 8.2287C42.531 7.70898 43.5586 6.06984 43.2293 4.2841C42.8735 2.36511 41.4375 1.32565 40.6602 0.872559L42.1357 8.2287Z" fill="#A7A1A3"/>
<path d="M39.6178 5.03038C40.0263 6.89607 41.6863 7.90887 42.1343 8.2287L40.6587 0.872559C40.1317 1.60551 39.1962 3.13804 39.6178 5.04371" fill="#A7A1A3"/>
<path d="M42.8073 17.0239C43.308 16.6241 44.6386 15.065 44.5596 13.3325C44.4805 11.72 43.1103 10.3208 42.3594 9.78772L42.8073 17.0239Z" fill="#A7A1A3"/>
<path d="M40.712 13.6124C40.8701 15.4381 42.3984 16.6641 42.82 17.0239L42.3721 9.78772C41.7265 10.4274 40.5408 11.7467 40.712 13.5991" fill="#A7A1A3"/>
<path d="M45.2852 21.6083C45.8517 21.3551 47.4195 20.409 47.8147 18.5433C48.1309 16.9974 47.2087 15.3316 46.629 14.652L45.2852 21.6217" fill="#A7A1A3"/>
<path d="M44.1519 17.8504C43.8752 19.5029 44.9687 21.1687 45.2717 21.6085L46.6156 14.6388C45.8646 15.0786 44.4549 16.0381 44.1519 17.8504Z" fill="#A7A1A3"/>
<path d="M51.9375 30.4301C52.5699 30.4968 54.4539 30.4834 55.7451 29.0309C56.8122 27.8315 56.8386 25.8592 56.6805 24.953L51.9375 30.4301Z" fill="#A7A1A3"/>
<path d="M52.8346 26.4992C51.7675 27.8319 51.886 29.8841 51.9387 30.4305L56.6817 24.9534C55.9176 24.8867 54.0862 24.94 52.8346 26.4992Z" fill="#A7A1A3"/>
<path d="M65.2188 26.459C65.8643 26.5123 67.7615 26.379 69.1449 24.9531C70.3043 23.767 70.436 21.7281 70.3438 20.8086L65.2188 26.459Z" fill="#A7A1A3"/>
<path d="M66.3125 22.4076C65.1004 23.7935 65.1795 25.8858 65.219 26.4588L70.344 20.8084C69.5535 20.7152 67.5246 21.035 66.3125 22.4076Z" fill="#A7A1A3"/>
<path d="M53.875 19.4757C54.4679 19.3291 56.2465 18.6628 56.9975 17.1303C57.7089 15.6777 57.3532 13.9053 56.9843 13.1057L53.875 19.4624" fill="#A7A1A3"/>
<path d="M53.8216 15.5978C53.0838 17.157 53.703 18.9694 53.8875 19.4758L56.9968 13.1191C56.1667 13.3457 54.5989 13.9854 53.8216 15.6112" fill="#A7A1A3"/>
<path d="M52.3594 12.6796C52.9654 12.5996 54.8363 12.1332 55.7717 10.6673C56.6544 9.28138 56.4699 7.48232 56.246 6.60278L52.3594 12.6796Z" fill="#A7A1A3"/>
<path d="M52.7684 8.735C51.8461 10.2276 52.2414 12.1465 52.3599 12.6796L56.2465 6.60278C55.3902 6.73605 53.7301 7.17582 52.7552 8.735" fill="#A7A1A3"/>
<path d="M58.9473 15.8911C59.4611 15.9844 61.0816 16.1044 62.1883 15.1582C63.2291 14.2786 63.519 12.7861 63.5585 12.0265L58.9473 15.8911Z" fill="#A7A1A3"/>
<path d="M60.2252 12.8264C59.1185 13.7859 58.9736 15.4384 58.9473 15.8915L63.5585 12.0269C62.8339 11.9069 61.3846 11.827 60.2252 12.8264Z" fill="#A7A1A3"/>
<path d="M65.0352 20.0624C65.5622 19.9424 67.209 19.516 67.96 17.9835C68.6978 16.4909 68.3289 15.0783 68.0786 14.3187L65.0352 20.0491" fill="#A7A1A3"/>
<path d="M65.1122 16.5043C64.4008 17.9169 64.8619 19.4895 65.0463 20.0625L68.0897 14.3322C67.3388 14.5187 65.8632 15.0384 65.1122 16.5043Z" fill="#A7A1A3"/>
<path d="M60.6211 27.9648C61.1613 27.8315 62.8477 27.3651 63.5986 25.7793C64.3232 24.2334 63.928 22.7942 63.6645 22.0079L60.6211 27.9515" fill="#A7A1A3"/>
<path d="M60.6341 24.3002C59.9226 25.7661 60.4233 27.3652 60.6341 27.9649L63.6775 22.0214C62.9133 22.2346 61.3982 22.781 60.6472 24.3135" fill="#A7A1A3"/>
<path d="M70.3574 25.0729C70.8317 25.2328 72.3073 25.6859 73.6116 24.8464C74.8896 24.0335 75.2717 22.7675 75.4298 22.0612L70.3574 25.0729Z" fill="#A7A1A3"/>
<path d="M72.0833 22.3412C70.8712 23.1008 70.476 24.54 70.3574 25.0731L75.4298 22.0613C74.7578 21.8481 73.3613 21.5549 72.0965 22.3412" fill="#A7A1A3"/>
<path d="M68.0371 30.257C68.4587 30.5502 69.8157 31.3498 71.344 30.9234C72.8723 30.4969 73.4652 29.3109 73.9131 28.6312L68.0371 30.257Z" fill="#A7A1A3"/>
<path d="M70.5008 28.0049C69.0779 28.4313 68.3138 29.764 68.0371 30.2704L73.9131 28.6445C73.2939 28.2448 71.9764 27.5651 70.5008 28.0049Z" fill="#A7A1A3"/>
<path d="M73.1758 31.4164C73.5842 31.8828 74.928 33.2021 76.8252 33.1755C78.7619 33.1488 79.8291 32.0427 80.4615 31.2565L73.1758 31.4164Z" fill="#A7A1A3"/>
<path d="M76.6666 29.4841C74.9012 29.5641 73.6232 30.8967 73.1621 31.4164L80.4478 31.2565C79.8418 30.6169 78.498 29.4042 76.6666 29.4841Z" fill="#A7A1A3"/>
<path d="M67.7085 31.2032C67.669 31.723 67.6953 33.3621 68.8152 34.4949C69.9219 35.6143 71.3184 35.561 72.0694 35.561L67.6953 31.2032" fill="#A7A1A3"/>
<path d="M70.9232 32.2429C69.856 31.2034 68.2618 31.1901 67.6953 31.2034L72.0694 35.5611C72.0957 34.8282 72.0299 33.3356 70.9232 32.2429Z" fill="#A7A1A3"/>
<path d="M56.6543 36.7067C57.1549 36.5468 58.6569 35.9338 59.2498 34.4279C59.8295 32.962 59.3552 31.6827 59.0521 30.9897L56.6543 36.7067Z" fill="#A7A1A3"/>
<path d="M56.4313 33.2552C55.8648 34.6545 56.4313 36.1737 56.6685 36.7067L59.0663 30.9897C58.368 31.2296 57.0242 31.8027 56.4313 33.2552Z" fill="#A7A1A3"/>
<path d="M64.4406 38.9591C64.6383 38.4393 64.8227 36.7069 64.019 35.5209C63.1758 34.2815 61.7925 33.9217 61.0547 33.7885L64.4406 38.9591Z" fill="#A7A1A3"/>
<path d="M61.5695 37.3599C62.3732 38.4793 63.8883 38.8525 64.4417 38.9591L61.0557 33.7885C60.8581 34.4681 60.6604 36.0806 61.5695 37.3599Z" fill="#A7A1A3"/>
<path d="M58.1562 12.7995C58.7491 12.6796 60.4882 12.0799 61.3182 10.574C62.0955 9.1481 61.7662 7.38902 61.4895 6.53613L58.1694 12.7995" fill="#A7A1A3"/>
<path d="M58.2492 8.90822C57.4456 10.4408 57.9726 12.2531 58.157 12.7995L61.4771 6.53613C60.6471 6.73603 59.0792 7.29574 58.2361 8.8949" fill="#A7A1A3"/>
<path d="M29.2245 7.61558C29.5276 7.02922 30.0019 5.58998 29.5144 4.284C28.961 2.80477 27.604 2.13845 26.8926 1.88525L29.2245 7.61558Z" fill="#A7A1A3"/>
<path d="M26.7223 5.47004C27.2757 6.70939 28.6854 7.38904 29.2388 7.61558L26.9068 1.88525C26.5906 2.65818 26.0504 3.93751 26.7355 5.48337" fill="#A7A1A3"/>
<path d="M38.9873 13.7055C39.4616 13.1991 40.3443 11.9064 40.2257 10.4539C40.094 8.81474 38.8951 7.74863 38.2363 7.29553L38.9873 13.7055Z" fill="#A7A1A3"/>
<path d="M37.0371 10.8537C37.2347 12.2529 38.4995 13.3324 39.0001 13.7055L38.2492 7.29553C37.709 7.97518 36.7868 9.10792 37.0503 10.8537" fill="#A7A1A3"/>
<path d="M45.7983 11.8803C46.3517 11.5205 47.4452 10.5076 47.656 9.14836C47.9063 7.60251 47.0631 6.32318 46.5625 5.73682L45.7852 11.8803" fill="#A7A1A3"/>
<path d="M44.6655 8.7619C44.5337 10.1079 45.4296 11.4138 45.7985 11.8803L46.5758 5.73682C45.9302 6.24322 44.8367 7.0961 44.6655 8.7619Z" fill="#A7A1A3"/>
<path d="M48.2891 14.7183C48.7897 14.5184 49.8305 13.8521 50.239 12.786C50.7132 11.5067 50.1863 10.3473 49.8701 9.8009L48.3022 14.7183" fill="#A7A1A3"/>
<path d="M47.8403 12.0397C47.5505 13.1058 48.0643 14.2919 48.2883 14.7183L49.8561 9.8009C49.25 10.1074 48.2224 10.6405 47.8271 12.0397" fill="#A7A1A3"/>
<path d="M49.8691 21.4753C50.4225 21.2487 51.5951 20.5691 52.0298 19.3963C52.5568 17.9971 51.9903 16.7044 51.6346 16.1047L49.8691 21.4753Z" fill="#A7A1A3"/>
<path d="M49.3702 18.5567C49.0408 19.7294 49.6205 20.9954 49.8708 21.4618L51.6363 16.0913C50.9644 16.4245 49.7918 17.0108 49.3702 18.5434" fill="#A7A1A3"/>
<path d="M29.8313 14.6252C30.0421 13.0527 29.6864 11.6002 28.83 10.5607C27.7497 9.24139 25.8393 8.8416 24.9961 8.90823L29.8313 14.6252Z" fill="#A7A1A3"/>
<path d="M25.9961 12.933C26.892 13.9458 27.9855 14.5055 29.83 14.6255L24.9948 8.90845C24.8894 9.72135 24.8762 11.6803 25.9961 12.933Z" fill="#A7A1A3"/>
<path d="M34.5875 26.9252C35.233 25.5526 35.4307 24.0334 34.9168 22.834C34.1527 21.0483 32.519 20.382 31.7285 20.2087L34.5743 26.9385" fill="#A7A1A3"/>
<path d="M31.4905 24.18C32.0307 25.3661 32.9398 26.2723 34.5866 26.9119L31.7408 20.1821C31.4115 20.9018 30.8186 22.7008 31.4905 24.1667" fill="#A7A1A3"/>
<path d="M49.8691 8.46864C51.1076 7.96224 52.1221 7.16266 52.5568 6.02992C53.0838 4.63066 52.491 2.87158 52.0694 2.24524L49.8823 8.46864" fill="#A7A1A3"/>
<path d="M49.356 4.71061C48.9213 5.84335 49.1452 6.97609 49.8698 8.46864L52.0569 2.24524C51.2927 2.48511 49.8698 3.29802 49.3429 4.71061" fill="#A7A1A3"/>
<path d="M39.0787 22.6344C39.8824 21.3018 40.4094 19.7293 40.08 18.4766C39.5398 16.371 37.7876 15.4782 37.0234 15.1583L39.0655 22.6344" fill="#A7A1A3"/>
<path d="M36.1017 19.5827C36.4838 20.902 37.5905 21.9681 39.0792 22.6344L37.0371 15.1583C36.3784 16.1045 35.6142 17.9302 36.1017 19.5827Z" fill="#A7A1A3"/>
<path d="M54.4805 23.2605C56.101 23.9001 57.9982 23.9668 59.3552 23.3404C61.5422 22.3143 62.2405 20.0755 62.5567 19.1959L54.4805 23.2605Z" fill="#A7A1A3"/>
<path d="M57.3789 19.2763C55.9692 20.0226 55.0075 21.5418 54.4805 23.2609L62.5567 19.1964C61.3709 18.7166 59.2761 18.2635 57.3921 19.263" fill="#A7A1A3"/>
<path d="M60.185 32.8691C61.8187 33.3222 63.7159 33.2156 64.9807 32.496C67.0097 31.3366 67.5235 29.2177 67.7474 28.3381L60.1719 32.8691" fill="#A7A1A3"/>
<path d="M62.6488 28.858C61.3313 29.6843 60.5408 31.1102 60.1719 32.8559L67.7474 28.325C66.5354 27.9918 64.3483 27.7919 62.6488 28.858Z" fill="#A7A1A3"/>
<path d="M71.2791 41.8776C71.7271 40.0919 71.4768 38.3328 70.7126 37.2001C69.5269 35.4143 67.4716 34.9346 66.6152 34.7747L71.2791 41.8776Z" fill="#A7A1A3"/>
<path d="M67.3271 39.7187C68.1572 40.8781 69.6064 41.5444 71.2796 41.8776L66.6157 34.7747C66.2468 36.014 66.1414 38.0663 67.3271 39.7187Z" fill="#A7A1A3"/>
<path d="M33.6645 18.0767C34.3627 16.7974 34.5867 15.2782 34.1519 14.1188C33.5327 12.453 32.0439 11.6135 31.293 11.3469L33.6645 18.0767Z" fill="#A7A1A3"/>
<path d="M30.8053 15.2115C31.2664 16.4775 32.0701 17.3304 33.6643 18.0633L31.2928 11.3335C30.9239 12.0265 30.252 13.7056 30.7921 15.2115" fill="#A7A1A3"/>
<path d="M16.0627 22.4481C16.1154 21.9017 16.1681 20.1559 15.1536 19.1165C14.0864 17.9971 12.6767 17.8505 11.873 17.9704L16.0495 22.4481" fill="#A7A1A3"/>
<path d="M13.0327 21.4082C14.0208 22.381 15.4964 22.5143 16.0761 22.4476L11.8996 17.97C11.8469 18.6629 11.8206 20.1955 13.0459 21.4082" fill="#A7A1A3"/>
<path d="M22.9657 18.9699C22.7813 18.4236 22.3465 16.8777 20.726 16.0248C19.3821 15.3185 17.6167 15.6917 16.8789 16.0781L22.9789 18.9699" fill="#A7A1A3"/>
<path d="M19.3836 19.1564C20.7011 19.7427 22.4138 19.2363 22.9672 18.9831L16.8672 16.0913C17.1175 16.7843 17.7236 18.4367 19.3836 19.1697" fill="#A7A1A3"/>
<path d="M24.0735 13.0526C24.034 12.3729 23.8759 10.5739 22.2422 8.98802C21.0169 7.80197 19.3305 7.8153 18.5137 7.98854L24.0735 13.0526Z" fill="#A7A1A3"/>
<path d="M20.1474 11.7599C21.2541 12.7594 22.7692 13.1458 24.0735 13.0525L18.5137 7.98853C18.5664 8.72147 18.7376 10.4806 20.1474 11.7599Z" fill="#A7A1A3"/>
<path d="M24.2574 23.114C23.9808 22.6076 23.0981 20.9818 21.5566 20.5687C19.9229 20.1289 18.4473 20.7553 17.7754 21.275L24.2574 23.1273" fill="#A7A1A3"/>
<path d="M20.7924 23.8737C22.268 24.2335 23.7568 23.4606 24.2574 23.1141L17.7754 21.2617C18.1311 21.9014 18.948 23.4206 20.7924 23.8737Z" fill="#A7A1A3"/>
<path d="M30.4103 25.6993C30.3312 25.1796 29.8174 23.4871 28.7371 22.7808C27.5381 22.0079 26.0494 22.2878 25.3906 22.5676L30.4234 25.6993" fill="#A7A1A3"/>
<path d="M27.2624 25.6196C28.4086 26.2593 29.8974 25.9261 30.3981 25.6996L25.3652 22.5679C25.5233 23.1809 25.8659 24.8334 27.2492 25.6196" fill="#A7A1A3"/>
<path d="M17.5255 31.3631C17.7759 30.5102 17.8944 28.2048 17.0117 26.6456C15.6547 24.2202 13.3491 23.5939 12.5586 23.4473L17.5255 31.3631Z" fill="#A7A1A3"/>
<path d="M13.3095 28.5245C14.4294 30.4168 16.7877 31.2963 17.5387 31.3763L12.5717 23.4604C12.3478 24.4466 12.1633 26.5788 13.3095 28.5245Z" fill="#A7A1A3"/>
<path d="M27.6829 30.4037C27.5775 29.5108 26.7606 27.272 25.3377 26.1659C23.1112 24.4468 20.7002 24.7799 19.8965 24.9665L27.6829 30.4037Z" fill="#A7A1A3"/>
<path d="M22.5446 29.444C24.3891 30.7899 27.0241 30.63 27.6829 30.4035L19.8965 24.9663C20.0282 25.9391 20.766 28.138 22.5446 29.444Z" fill="#A7A1A3"/>
<path d="M45.0472 36.9471C44.4148 38.4663 44.5334 39.7856 45.3107 39.8389C46.088 39.9055 47.1947 38.6928 47.7744 37.187C48.3409 35.7211 48.196 34.5217 47.4582 34.4417C46.7336 34.3751 45.6532 35.4679 45.0472 36.9338" fill="#A7A1A3"/>
<path d="M41.4112 25.9658C40.6866 27.1785 40.5812 28.3113 41.2004 28.4579C41.8196 28.6044 42.8868 27.7249 43.5719 26.5122C44.2438 25.3395 44.2965 24.2867 43.7168 24.1401C43.1371 23.9935 42.1095 24.7931 41.4112 25.9658Z" fill="#A7A1A3"/>
<path d="M34.3761 37.3068C35.1929 37.0002 34.8636 35.7076 33.691 34.4283C32.5448 33.2022 31.0297 32.4693 30.2655 32.7625C29.5014 33.0556 29.7517 34.2683 30.8452 35.5077C31.9783 36.787 33.5724 37.5999 34.3761 37.3068Z" fill="#A7A1A3"/>
<path d="M36.8784 35.5079C34.0326 31.47 33.4002 30.0841 29.6849 26.8991C30.5413 28.4849 44.1246 46.742 31.4635 37.2003C31.4635 37.2003 24.1778 32.0963 14.6523 32.6294C14.6523 32.6294 33.2026 34.615 36.4568 47.2484C36.4832 47.3683 36.5359 48.0213 36.5095 48.2212C36.3778 49.9137 35.7981 51.3396 35.3106 52.2857C34.9022 53.0587 34.138 54.0182 33.9009 54.2714C32.7283 55.5107 30.6599 55.9905 29.8825 56.3636C30.7784 57.0166 33.8218 56.4569 35.1789 56.3636L40.238 56.5768C40.3698 56.5768 40.8836 56.6035 41.1339 56.6035L41.9376 54.298C41.9376 54.298 44.1905 53.8316 45.06 53.685C45.9296 53.5251 46.8914 53.4318 46.8914 53.4318L45.4421 56.6968C47.0363 56.91 51.8583 57.4564 52.741 56.8967C51.7397 56.4836 48.8281 56.1637 47.6423 54.4446C47.4711 54.2714 46.2853 50.1136 46.3248 48.6477C46.3248 48.5944 46.3248 48.4611 46.3248 48.4344C48.5646 33.2957 63.8606 27.8319 63.8606 27.8319C53.9663 30.0974 48.6304 37.9599 48.6304 37.9599C38.5912 50.6599 45.5607 31.9764 47.6292 29.7775C43.8875 32.7093 42.5173 37.0271 42.5173 37.0271C43.6635 24.7535 53.9136 23.5808 53.9136 23.5808C48.6304 23.4342 44.5726 27.8985 44.5726 27.8985C35.9035 37.3736 39.1445 23.8073 42.8203 21.8617C42.4909 22.0349 35.6268 24.9801 36.8916 35.4945" fill="#A7A1A3"/>
</svg>
