<svg width="120" height="43" viewBox="0 0 120 43" fill="none" xmlns="http://www.w3.org/2000/svg">
<g clip-path="url(#clip0_2402_86136)">
<path fill-rule="evenodd" clip-rule="evenodd" d="M4.07397 5.63057V11.0846L4.45805 10.717C5.66768 9.56 7.47589 8.51829 9.62711 7.73885L10.3462 7.47864L10.359 3.82745L10.3715 0.17627H7.22271H4.07397V5.63057ZM17.4615 2.88686C17.4615 4.37744 17.4737 5.59716 17.4882 5.59716C17.5638 5.59716 19.2277 5.16723 19.9652 4.95699C21.2314 4.59654 22.2477 4.22368 23.3743 3.70622L23.7584 3.52999V1.85313V0.17627H20.6099H17.4615V2.88686ZM114.347 0.47196V0.71827H114.769H115.19V1.85195V2.98533H115.463H115.736V1.85195V0.71827H116.157H116.578V0.47196V0.22565H115.463H114.347V0.47196ZM116.926 1.60357V2.98533H117.198H117.471L117.473 2.03675L117.474 1.08788L117.61 1.43295C117.685 1.62279 117.845 2.04947 117.965 2.38153L118.184 2.98533H118.416H118.648L118.989 2.0613L119.33 1.13726L119.344 2.0613L119.357 2.98533H119.629H119.901V1.60357V0.22151L119.497 0.235999L119.094 0.250192L118.878 0.817031C118.759 1.12869 118.613 1.5122 118.554 1.66951C118.431 1.99802 118.406 1.98856 118.242 1.55241C118.177 1.37825 118.038 1.01396 117.933 0.743108L117.743 0.250192L117.334 0.235999L116.926 0.22151V1.60357ZM72.2509 15.281V24.7186H74.5565H76.8621V15.281V5.84377H74.5565H72.2509V15.281ZM62.2382 11.3667C61.0857 11.4678 59.652 11.7706 58.814 12.0896L58.4421 12.2313L58.4567 13.7789C58.4727 15.4785 58.4635 15.4008 58.6352 15.289C59.1969 14.9232 60.5892 14.5326 61.7322 14.42C64.1871 14.1784 65.5226 14.8342 65.671 16.3544C65.6907 16.5552 65.6821 16.5865 65.6133 16.5667C65.0496 16.4041 62.7704 16.3715 61.7146 16.5111C58.3883 16.9508 56.7841 18.3775 56.782 20.8991C56.7803 23.3868 58.4998 24.8995 61.4418 24.998C63.3645 25.0625 64.6625 24.4619 65.6574 23.0476L65.8796 22.7318L65.9108 23.0476C65.9278 23.2212 65.9581 23.6683 65.9778 24.0408L66.0135 24.7186H68.1213H70.229L70.196 24.5432C70.0273 23.6496 70.008 23.2141 69.9708 19.4946C69.9307 15.4549 69.9363 15.5418 69.6647 14.7145C68.8492 12.2295 66.1682 11.0207 62.2382 11.3667ZM83.906 11.3667C82.7478 11.4684 81.5495 11.72 80.5809 12.0645L80.1099 12.2319L80.1242 13.5101C80.1322 14.213 80.151 14.9135 80.1658 15.0663L80.1929 15.3443L80.6719 15.1211C83.048 14.0131 86.2212 14.1479 87.0167 15.3907C87.2621 15.7739 87.4525 16.6161 87.2826 16.5673C85.6026 16.0856 81.8866 16.5489 80.3827 17.4274C77.6564 19.02 77.7951 23.0284 80.6255 24.4451C82.0562 25.1609 84.2734 25.2076 85.6137 24.5497C86.3 24.2129 86.9301 23.6405 87.4195 22.9095L87.5584 22.702L87.5897 23.1804C87.6069 23.4436 87.6355 23.8974 87.6533 24.1887L87.686 24.7186H89.7915H91.8969L91.8638 24.5423C91.6898 23.6207 91.6749 23.2898 91.6383 19.5194C91.5988 15.4519 91.6044 15.5427 91.3325 14.7145C90.5182 12.2327 87.8306 11.0213 83.906 11.3667ZM109.711 11.343C108.645 11.4453 108.34 11.4847 107.802 11.5902C107.204 11.7076 106.358 11.9436 105.844 12.1366L105.596 12.2295L105.613 13.7801C105.623 14.6326 105.637 15.3375 105.646 15.3464C105.654 15.3549 105.791 15.2958 105.95 15.2148C107.72 14.3162 110.559 14.1006 111.822 14.7695C112.369 15.0595 112.704 15.5474 112.81 16.2116C112.875 16.6217 112.932 16.5865 112.339 16.5019C109.993 16.1678 107.075 16.6285 105.646 17.559C103.05 19.2495 103.433 23.3507 106.299 24.5406C108.825 25.5891 111.434 24.9844 112.828 23.0266L113.033 22.7395L113.065 22.9282C113.082 23.032 113.112 23.4773 113.132 23.9178L113.168 24.7186H115.27C116.918 24.7186 117.372 24.7053 117.371 24.6571C117.371 24.6231 117.339 24.4069 117.3 24.1766C117.168 23.4063 117.124 22.1538 117.124 19.141C117.124 15.4848 117.092 15.184 116.586 14.1476C115.847 12.6322 114.509 11.775 112.314 11.4101C111.991 11.3563 110.084 11.3072 109.711 11.343ZM91.043 11.5905C91.043 11.6248 92.2548 13.736 92.3833 13.9259C92.4291 13.9936 92.5279 14.1601 92.6025 14.2955C92.7343 14.5344 93.1827 15.3038 93.2773 15.4537C93.3745 15.6078 95.7658 19.7205 95.8325 19.8485C95.8896 19.9583 95.9021 20.4112 95.9021 22.3507V24.7186H98.183H100.464V22.3643V20.0103L102.447 16.5667C103.538 14.6728 104.431 13.116 104.431 13.1071C104.431 13.0982 104.539 12.9075 104.672 12.6831C104.804 12.4587 105.004 12.1142 105.115 11.9175L105.318 11.5603H102.775H100.232L99.4099 13.4699C98.9176 14.6142 98.5133 15.6308 98.402 16.0058C98.2146 16.6359 98.1717 16.7018 98.1116 16.452C98.0408 16.1574 97.6749 15.085 97.5633 14.8452C97.4985 14.7053 97.3902 14.4581 97.3227 14.2955C97.2551 14.1329 97.1302 13.8496 97.0445 13.666C96.9588 13.4823 96.8267 13.1831 96.7509 13.0007C96.675 12.8182 96.5054 12.4196 96.3739 12.1148L96.135 11.5603H93.589C92.1887 11.5603 91.043 11.574 91.043 11.5905ZM41.2862 11.6659C39.6889 11.8676 38.296 12.762 37.5856 14.0424L37.4451 14.2955L37.4442 13.1003L37.4434 11.9054H35.3362H33.229V18.4597V25.0143H35.531H37.8334L37.8551 21.6753C37.8783 18.1069 37.884 18.0188 38.1428 17.2308C38.88 14.9856 41.4789 14.7254 42.0567 16.8387C42.1906 17.329 42.1909 17.3367 42.1977 21.429L42.2034 25.0143H44.5108H46.8182L46.8146 21.8232C46.8104 18.0573 46.8619 17.5312 47.3233 16.6442C48.0864 15.1763 50.141 14.9788 50.7966 16.31C51.1117 16.9493 51.0998 16.774 51.1168 21.0839L51.1319 25.0143H53.4393H55.747L55.7262 20.4926C55.7012 15.0856 55.6759 14.807 55.1018 13.6056C53.7597 10.7984 48.3827 10.9474 46.5394 13.8431L46.4047 14.0551L46.2404 13.7422C45.3979 12.1358 43.5846 11.3758 41.2862 11.6659ZM26.2377 18.4597V25.0143H28.5927H30.948V18.4597V11.9054H28.5927H26.2377V18.4597ZM23.4609 13.8327C22.0769 15.09 20.6989 15.8875 18.2677 16.8387L17.4624 17.1539L17.4618 21.0839L17.4615 25.0143H20.6099H23.7584V19.2977C23.7584 16.1533 23.753 13.582 23.7462 13.5832C23.7393 13.5843 23.6108 13.6967 23.4609 13.8327ZM65.5384 18.934C65.6895 18.9606 65.6922 18.9662 65.6705 19.1909C65.4943 20.9923 63.9967 22.2289 62.3753 21.9119C60.613 21.5671 60.621 19.583 62.3869 19.0472C62.965 18.8719 64.8056 18.8059 65.5384 18.934ZM86.6427 18.8982C87.4448 18.9431 87.371 18.8985 87.3201 19.3089C87.0952 21.1162 85.5542 22.2741 83.9015 21.8776C82.503 21.5423 82.3313 19.8545 83.6302 19.2104C84.2669 18.8947 85.0797 18.8104 86.6427 18.8982ZM112.7 18.9355L112.862 18.9638L112.832 19.217C112.619 21.0556 111.009 22.3146 109.414 21.8921C107.771 21.4568 107.802 19.609 109.46 19.0762C110.094 18.8725 111.895 18.7944 112.7 18.9355ZM9.03211 19.2959C7.11294 19.7862 6.07228 20.138 4.63179 20.7841L4.07397 21.0343V23.0243V25.0143H7.22242H10.3709V21.9834C10.3709 20.3163 10.3655 18.9544 10.3587 18.9565C10.3518 18.9585 9.75474 19.1114 9.03211 19.2959ZM6.18117 33.4225C4.75495 33.6002 3.9996 34.3743 3.9996 35.6579C3.9996 36.6656 4.31911 37.1503 5.44991 37.8564C6.44832 38.48 6.52835 38.5303 6.725 38.6595C7.80076 39.3653 7.92719 40.394 6.9978 40.8751C6.23055 41.2722 5.12177 40.9532 4.30602 40.1004C4.14716 39.9345 4.00763 39.7988 3.99603 39.7988C3.98443 39.7988 3.97461 40.1595 3.97461 40.6007V41.4023L4.3093 41.6034C6.58339 42.968 9.14903 41.7489 8.79292 39.4726C8.64804 38.5468 8.16043 37.9844 6.81752 37.1943C5.47847 36.4063 5.14765 36.079 5.1423 35.5358C5.13129 34.3933 7.06325 34.225 8.25206 35.265L8.48679 35.4705V34.7295V33.9882L8.07773 33.7892C7.49403 33.5047 6.72083 33.3554 6.18117 33.4225ZM44.7818 33.442C42.2477 33.6889 40.4228 35.8676 40.7117 38.3011C40.7718 38.8088 41.0431 39.6805 41.2118 39.9076C41.2662 39.9812 41.3109 40.0548 41.3109 40.0714C41.3109 40.2621 42.0909 41.083 42.5934 41.4209C43.9747 42.3509 46.4543 42.4236 48.1534 41.5845L48.4262 41.4496L48.4399 40.7426L48.4538 40.0353L48.192 40.1909C45.3366 41.8878 42.1638 40.7612 42.0207 38.0001C41.8731 35.1488 44.7999 33.7726 47.8809 35.2449L48.3271 35.458L48.3408 34.788C48.3485 34.4193 48.3449 34.1082 48.333 34.0964C48.1739 33.9382 46.5799 33.5142 45.8799 33.4438C45.3268 33.3882 45.3357 33.3882 44.7818 33.442ZM89.3821 33.4423C86.6311 33.8125 86.4782 37.922 89.1968 38.4259C89.6775 38.5149 90.634 38.3653 90.8818 38.1621C91.0136 38.0539 90.4977 39.2083 90.3487 39.3552C90.335 39.3688 90.1984 39.535 90.0455 39.7249C89.6436 40.2237 89.3175 40.5377 88.8118 40.9129C88.2781 41.3092 88.287 41.2293 88.7193 41.7299C89.1569 42.2365 89.0852 42.2208 89.5392 41.9094C93.6114 39.1148 93.4956 32.8882 89.3821 33.4423ZM100.985 33.4607C100.794 33.497 100.504 33.5798 100.34 33.6446L100.042 33.7623L100.028 34.3658C100.021 34.7037 100.034 34.9693 100.059 34.9693C100.084 34.9693 100.235 34.9113 100.396 34.8406C101.943 34.157 103.313 34.9143 102.918 36.2354C102.775 36.7159 102.328 36.993 101.571 37.0699L101.254 37.1021L101.268 37.6701L101.282 38.2384L101.787 38.3224C102.745 38.4821 103.192 39.0424 103.035 39.8872C102.837 40.9511 101.715 41.2308 100.323 40.5628C100.068 40.4407 99.8508 40.3408 99.8395 40.3408C99.8285 40.3408 99.8193 40.6492 99.8193 41.0262V41.7116L100.179 41.8597C102.347 42.7545 104.385 41.6383 104.38 39.5581C104.378 38.6956 104.002 37.9418 103.443 37.6816L103.192 37.5648L103.432 37.4043C104.593 36.6269 104.538 34.6387 103.333 33.8388C102.76 33.4586 101.802 33.3042 100.985 33.4607ZM114.106 33.4429C110.962 33.8974 110.79 41.3006 113.906 42.0957C114.804 42.3249 115.617 42.0061 116.323 41.1471C116.513 40.915 116.874 40.1415 116.998 39.7003C117.781 36.9025 116.677 33.7436 114.809 33.4397C114.491 33.3879 114.486 33.3879 114.106 33.4429ZM16.1227 37.8029V42.0658H16.7671H17.4118V37.8029V33.5399H16.7671H16.1227V37.8029ZM25.2459 37.8043V42.0688L25.8534 42.0549L26.4608 42.041L26.4855 38.8144L26.5102 35.5876L26.626 35.7342C26.6896 35.8149 26.8235 35.9696 26.9238 36.0781C27.024 36.1863 27.1704 36.3528 27.2489 36.4477C27.3275 36.5423 27.5199 36.7641 27.6761 36.9403C27.8326 37.1166 28.3366 37.6932 28.7962 38.2219C29.2556 38.7503 29.6545 39.2071 29.6825 39.237C29.7104 39.2668 30.2775 39.9156 30.9424 40.6785L32.1514 42.0658H32.7149H33.2784V37.8029V33.5399H32.659H32.0396L32.0268 36.7848L32.014 40.0294L30.7002 38.5252C29.9773 37.6982 29.1306 36.7316 28.8185 36.3773C28.5062 36.0228 28.2051 35.6798 28.1492 35.6148C28.0932 35.5497 27.6616 35.0562 27.19 34.5183L26.3329 33.5399H25.7894H25.2459V37.8043ZM55.8884 37.8029V42.0658H58.4171H60.9459V41.499V40.9322H59.0618H57.1777V39.6264V38.3203H58.9377H60.698V37.7535V37.1869H58.9377H57.1777V35.9303V34.6736H58.9874H60.7971V34.1067V33.5399H58.3427H55.8884V37.8029ZM77.0439 33.5727C77.0257 33.5911 77.0109 35.5092 77.0109 37.8357V42.0658H77.6555H78.3002V37.8029V33.5399H77.6886C77.3524 33.5399 77.0623 33.5547 77.0439 33.5727ZM90.2481 34.6529C90.971 34.8664 91.4357 35.89 91.1971 36.7428C91.0948 37.108 89.9896 37.396 89.4208 37.2062C87.7214 36.6384 88.5292 34.1455 90.2481 34.6529ZM114.832 34.7005C116.261 35.2928 116.334 40.0318 114.927 40.8337C113.859 41.4425 113.033 40.2914 112.972 38.1074C112.902 35.6266 113.671 34.2191 114.832 34.7005Z" fill="#A4A4A4"/>
<path fill-rule="evenodd" clip-rule="evenodd" d="M26.2129 18.4352C26.2129 22.0403 26.2188 23.5078 26.226 21.6964C26.2331 19.885 26.2331 16.9355 26.226 15.1418C26.2188 13.3481 26.2129 14.8301 26.2129 18.4352ZM46.7773 19.2484C46.7773 19.3433 46.7877 19.382 46.8002 19.3347C46.8124 19.2871 46.8124 19.2096 46.8002 19.162C46.7877 19.1147 46.7773 19.1534 46.7773 19.2484Z" fill="#A4A4A4"/>
<path fill-rule="evenodd" clip-rule="evenodd" d="M26.5233 2.88329C24.1873 4.87062 21.8692 5.83635 16.4696 7.07145C11.8039 8.13859 9.89513 8.74476 7.74302 9.84325C3.86273 11.8238 1.32743 15.1577 0.928187 18.8047L0.898438 19.0759L1.01089 18.9313C1.07307 18.8517 1.28816 18.5673 1.48957 18.2988C2.75275 16.614 4.51395 15.2839 6.98677 14.1479C8.68758 13.3664 9.6372 13.0332 14.0896 11.6558C15.7669 11.1372 17.1613 10.6963 17.1886 10.6765C17.216 10.6567 17.5171 10.5449 17.858 10.4284C22.8447 8.7214 25.7706 6.24529 26.8131 2.84988C26.8946 2.58494 26.8708 2.5876 26.5233 2.88329ZM26.6036 5.9422C25.6421 7.34585 24.6145 8.27402 22.5683 9.58777C21.0133 10.586 18.4331 11.56 12.7104 13.3087C7.67519 14.8472 5.16012 16.0909 3.26832 17.9771C2.26842 18.9742 1.21289 20.7613 1.0219 21.7806L0.9862 21.9722L1.4021 21.6144C2.90597 20.3207 4.87988 19.2894 7.24709 18.5605C8.02356 18.3216 9.65654 17.9097 13.2221 17.054C20.6685 15.2668 24.4869 12.7123 26.185 8.38165C26.2701 8.16491 26.3609 7.94314 26.3867 7.88873C26.5504 7.54662 26.9077 5.92121 26.8726 5.68052C26.8598 5.59359 26.8074 5.64444 26.6036 5.9422ZM4.07395 29.2524V29.5481H60.6236H117.173V29.2524V28.9567H60.6236H4.07395V29.2524Z" fill="#A4A4A4"/>
</g>
<defs>
<clipPath id="clip0_2402_86136">
<rect width="119" height="42" fill="white" transform="translate(0.900391 0.17627)"/>
</clipPath>
</defs>
</svg>
