<svg width="79" height="14" viewBox="0 0 79 14" fill="none" xmlns="http://www.w3.org/2000/svg">
<g clip-path="url(#clip0_2403_86109)">
<path d="M0.470703 1.00818H4.50981V10.3096H10.8018V13.3443H0.470703V1.00818Z" fill="#A4A4A4"/>
<path d="M20.6495 1.00818H24.6725V8.36738C24.6725 9.09572 24.5599 9.77853 24.3185 10.431C24.0771 11.0835 23.707 11.6449 23.1921 12.1304C22.6771 12.616 22.1461 12.9498 21.5828 13.1471C20.7943 13.4202 19.861 13.5568 18.7667 13.5568C18.1391 13.5568 17.4472 13.5112 16.6909 13.4354C15.9345 13.3443 15.3069 13.1774 14.8081 12.9346C14.3092 12.6919 13.8426 12.3277 13.4242 11.8725C13.0058 11.4173 12.7161 10.9317 12.5713 10.4462C12.3299 9.65714 12.2012 8.95915 12.2012 8.35221V1.00818H16.2242V8.53429C16.2242 9.20193 16.4173 9.73301 16.8196 10.1123C17.2219 10.4917 17.769 10.6738 18.461 10.6738C19.1529 10.6738 19.7001 10.4917 20.1024 10.1123C20.5047 9.73301 20.6978 9.2171 20.6978 8.51912C20.6495 8.53429 20.6495 1.00818 20.6495 1.00818Z" fill="#A4A4A4"/>
<path d="M40.5234 1.00818H44.5625V5.33266H48.9718V1.00818H53.027V13.3595H48.9718V8.35221H44.5625V13.3443H40.5234V1.00818Z" fill="#A4A4A4"/>
<path d="M26.6367 9.03505H30.4666C30.5471 9.62682 30.7241 10.0669 30.9816 10.3855C31.4 10.8862 31.9954 11.129 32.7678 11.129C33.3471 11.129 33.7816 11.0076 34.1034 10.7497C34.4092 10.4917 34.5701 10.2034 34.5701 9.85443C34.5701 9.53578 34.4253 9.24748 34.1195 8.98953C33.8299 8.73158 33.1379 8.50397 32.0597 8.27637C30.2896 7.89703 29.0344 7.3963 28.2781 6.77418C27.5218 6.15206 27.1356 5.36304 27.1356 4.39192C27.1356 3.75463 27.3287 3.16286 27.7149 2.60144C28.1011 2.04001 28.6804 1.59998 29.4689 1.26616C30.2574 0.932339 31.3034 0.795776 32.6712 0.795776C34.3448 0.795776 35.6161 1.08408 36.4851 1.67585C37.354 2.26762 37.9173 3.40564 38.0943 4.68022H34.2483C34.1517 4.1188 33.9425 3.72428 33.6046 3.46633C33.2827 3.20838 32.8322 3.08699 32.2689 3.08699C31.8023 3.08699 31.4482 3.17803 31.2069 3.37529C30.9655 3.55737 30.8528 3.78498 30.8528 4.0581C30.8528 4.25536 30.9494 4.43744 31.1425 4.58918C31.3356 4.75609 31.7862 4.90783 32.4942 5.04439C34.2644 5.40856 35.5195 5.77272 36.2759 6.13689C37.0322 6.50106 37.5954 6.95626 37.9333 7.50252C38.2874 8.04877 38.4483 8.65571 38.4483 9.32335C38.4483 10.1124 38.223 10.8407 37.7563 11.5083C37.2897 12.176 36.646 12.6767 35.8092 13.0257C34.9724 13.3747 33.9264 13.5416 32.6712 13.5416C30.4505 13.5416 28.9218 13.1319 28.0689 12.3277C27.2321 11.5387 26.7494 10.2945 26.6367 9.03505Z" fill="#A4A4A4"/>
<path d="M57.2422 9.39922V6.8197H57.7893V7.83633H58.8675V6.8197H59.4146V9.39922H58.8675V8.27637H57.7893V9.39922H57.2422Z" fill="#A4A4A4"/>
<path d="M62.4564 9.39922H61.8609L61.6196 8.80745H60.5253L60.3 9.39922H59.7207L60.7828 6.8197H61.3621L62.4564 9.39922ZM61.4426 8.36741L61.0724 7.41147L60.7023 8.36741H61.4426Z" fill="#A4A4A4"/>
<path d="M62.7461 9.39922V6.8197H63.2771L64.3875 8.54949V6.8197H64.9024V9.39922H64.3553L63.261 7.71495V9.39922H62.7461Z" fill="#A4A4A4"/>
<path d="M65.498 6.8197H66.4958C66.721 6.8197 66.8981 6.83488 67.0107 6.86522C67.1716 6.91074 67.3004 6.98661 67.4291 7.108C67.5578 7.22939 67.6222 7.36595 67.6866 7.53286C67.7509 7.69977 67.7831 7.89703 67.7831 8.13981C67.7831 8.35224 67.7509 8.53432 67.7027 8.68606C67.6383 8.86814 67.5417 9.01988 67.413 9.14127C67.3164 9.23231 67.1877 9.293 67.0268 9.3537C66.8981 9.38404 66.7371 9.41439 66.544 9.41439H65.5141L65.498 6.8197ZM66.0452 7.24456V8.95918H66.4636C66.6245 8.95918 66.721 8.94401 66.8015 8.92883C66.8981 8.91366 66.9624 8.86814 67.0268 8.82262C67.0912 8.7771 67.1394 8.68606 67.1716 8.57984C67.2038 8.45845 67.2199 8.30672 67.2199 8.10946C67.2199 7.9122 67.2038 7.76047 67.1716 7.65425C67.1394 7.54804 67.0751 7.45699 67.0107 7.41147C66.9463 7.35078 66.8659 7.30526 66.7532 7.29008C66.6728 7.27491 66.5279 7.25974 66.3027 7.25974H66.0452V7.24456Z" fill="#A4A4A4"/>
<path d="M68.2324 9.39922V6.8197H69.0531L69.552 8.57984L70.0347 6.8197H70.8554V9.39922H70.3405V7.36595L69.8255 9.39922H69.2945L68.7635 7.36595V9.39922C68.7474 9.39922 68.2324 9.39922 68.2324 9.39922Z" fill="#A4A4A4"/>
<path d="M73.8821 9.39922H73.2867L73.0453 8.80745H71.9511L71.7258 9.39922H71.1465L72.2086 6.8197H72.7879L73.8821 9.39922ZM72.8683 8.36741L72.4982 7.41147L72.1281 8.36741H72.8683Z" fill="#A4A4A4"/>
<path d="M74.1719 6.8197H75.1857C75.411 6.8197 75.588 6.83488 75.7006 6.86522C75.8615 6.91074 75.9903 6.98661 76.119 7.108C76.2478 7.22939 76.3121 7.36595 76.3765 7.53286C76.4409 7.69977 76.473 7.89703 76.473 8.13981C76.473 8.35224 76.4409 8.53432 76.3926 8.68606C76.3282 8.86814 76.2317 9.01988 76.1029 9.14127C76.0064 9.23231 75.8776 9.293 75.7167 9.3537C75.588 9.38404 75.4271 9.41439 75.234 9.41439H74.1719V6.8197ZM74.719 7.24456V8.95918H75.1374C75.2983 8.95918 75.3949 8.94401 75.4753 8.92883C75.5719 8.91366 75.6363 8.86814 75.7006 8.82262C75.765 8.7771 75.8133 8.68606 75.8454 8.57984C75.8776 8.45845 75.8937 8.30672 75.8937 8.10946C75.8937 7.9122 75.8776 7.76047 75.8454 7.65425C75.8133 7.54804 75.7489 7.45699 75.6845 7.41147C75.6202 7.35078 75.5397 7.30526 75.4271 7.29008C75.3466 7.27491 75.2018 7.25974 74.9765 7.25974H74.719V7.24456Z" fill="#A4A4A4"/>
<path d="M76.9219 9.39922V6.8197H78.9495V7.25974H77.4851V7.83633H78.8529V8.27637H77.4851V8.97436H79.0138V9.41439H76.9219V9.39922Z" fill="#A4A4A4"/>
<path d="M58.9644 12.3125L59.4794 12.4642C59.3989 12.7374 59.2702 12.9498 59.0771 13.0712C58.884 13.2077 58.6587 13.2684 58.369 13.2684C58.015 13.2684 57.7253 13.147 57.5 12.9194C57.2748 12.6918 57.1621 12.3732 57.1621 11.9787C57.1621 11.5538 57.2748 11.2352 57.5 11.0076C57.7253 10.78 58.0311 10.6586 58.4012 10.6586C58.723 10.6586 58.9966 10.7496 59.1897 10.9317C59.3184 11.0379 59.3989 11.1896 59.4633 11.4021L58.9322 11.5235C58.9001 11.3869 58.8357 11.2959 58.7391 11.22C58.6426 11.1441 58.5138 11.1138 58.369 11.1138C58.1759 11.1138 58.015 11.1745 57.8863 11.311C57.7575 11.4476 57.6932 11.66 57.6932 11.9635C57.6932 12.2821 57.7575 12.5098 57.8702 12.6463C57.9989 12.7829 58.1437 12.8436 58.3368 12.8436C58.4817 12.8436 58.6104 12.798 58.7069 12.707C58.8518 12.6311 58.9161 12.5098 58.9644 12.3125Z" fill="#A4A4A4"/>
<path d="M59.834 11.9938C59.834 11.7359 59.8823 11.5235 59.9627 11.3414C60.0271 11.22 60.1076 11.0986 60.2041 10.9924C60.3167 10.8862 60.4294 10.8103 60.542 10.7648C60.703 10.7041 60.8961 10.6586 61.1213 10.6586C61.5076 10.6586 61.8294 10.78 62.0708 11.0076C62.3122 11.2352 62.4248 11.5538 62.4248 11.9635C62.4248 12.3732 62.3122 12.6918 62.0708 12.9194C61.8294 13.147 61.5237 13.2684 61.1374 13.2684C60.7351 13.2684 60.4294 13.147 60.188 12.9194C59.9627 12.7222 59.834 12.4035 59.834 11.9938ZM60.3972 11.9787C60.3972 12.267 60.4616 12.4794 60.6064 12.6311C60.7512 12.7829 60.9282 12.8587 61.1374 12.8587C61.3466 12.8587 61.5237 12.7829 61.6685 12.6463C61.8133 12.4946 61.8777 12.2821 61.8777 11.9938C61.8777 11.7055 61.8133 11.4931 61.6846 11.3414C61.5558 11.2048 61.3788 11.129 61.1535 11.129C60.9282 11.129 60.7512 11.2048 60.6225 11.3414C60.4616 11.4779 60.3972 11.6904 60.3972 11.9787Z" fill="#A4A4A4"/>
<path d="M65.3203 13.2381V10.7192H66.1249L66.6077 12.4339L67.0904 10.7192H67.895V13.2381H67.3962V11.2655L66.8652 13.2381H66.3502L65.8192 11.2655V13.2381H65.3203Z" fill="#A4A4A4"/>
<path d="M68.4258 13.2381V10.7192H70.4051V11.1441H68.9729V11.7055H70.3086V12.1304H68.9729V12.8132H70.4534V13.2381H68.4258Z" fill="#A4A4A4"/>
<path d="M71.4994 13.2381V11.1441H70.7109V10.7192H72.819V11.1441H72.0305V13.2381H71.4994Z" fill="#A4A4A4"/>
<path d="M73.1582 13.2381V10.7192H73.6892V13.2381H73.1582Z" fill="#A4A4A4"/>
<path d="M75.9097 12.3125L76.4247 12.4642C76.3442 12.7374 76.2155 12.9498 76.0224 13.0712C75.8293 13.2077 75.604 13.2684 75.3143 13.2684C74.9603 13.2684 74.6706 13.147 74.4454 12.9194C74.2201 12.6918 74.1074 12.3732 74.1074 11.9787C74.1074 11.5538 74.2201 11.2352 74.4454 11.0076C74.6706 10.78 74.9764 10.6586 75.3465 10.6586C75.6683 10.6586 75.9419 10.7496 76.135 10.9317C76.2638 11.0379 76.3442 11.1896 76.4086 11.4021L75.8775 11.5235C75.8454 11.3869 75.781 11.2959 75.6844 11.22C75.5879 11.1441 75.4592 11.1138 75.3143 11.1138C75.1212 11.1138 74.9603 11.1745 74.8316 11.311C74.7028 11.4476 74.6546 11.66 74.6546 11.9635C74.6546 12.2821 74.7189 12.5098 74.8316 12.6463C74.9603 12.7829 75.1051 12.8436 75.2982 12.8436C75.4431 12.8436 75.5718 12.798 75.6683 12.707C75.7971 12.6311 75.8615 12.5098 75.9097 12.3125Z" fill="#A4A4A4"/>
<path d="M62.6973 12.3732H63.2283C63.2605 12.5401 63.3249 12.6615 63.4214 12.7374C63.518 12.8133 63.6467 12.8588 63.8076 12.8588C63.9846 12.8588 64.1134 12.8284 64.1938 12.7526C64.2743 12.6767 64.3226 12.6008 64.3226 12.5098C64.3226 12.4491 64.3065 12.4036 64.2743 12.3581C64.2421 12.3125 64.1777 12.2822 64.0812 12.2518C64.0168 12.2367 63.872 12.1912 63.6467 12.1456C63.357 12.0849 63.1639 11.9939 63.0352 11.9029C62.8743 11.7663 62.7938 11.5994 62.7938 11.4021C62.7938 11.2807 62.826 11.1593 62.9065 11.038C62.9869 10.9317 63.0996 10.8407 63.2444 10.78C63.3892 10.7193 63.5662 10.689 63.7754 10.689C64.1134 10.689 64.3547 10.7648 64.5318 10.9014C64.6927 11.038 64.7892 11.2504 64.8053 11.478H64.2582C64.2421 11.3414 64.1777 11.2504 64.1134 11.2049C64.0329 11.1442 63.9203 11.1138 63.7754 11.1138C63.6145 11.1138 63.5019 11.1442 63.4053 11.2049C63.3409 11.2504 63.3249 11.2959 63.3249 11.3566C63.3249 11.4173 63.357 11.4628 63.4053 11.5083C63.4697 11.569 63.6306 11.6146 63.9042 11.6752C64.1616 11.7359 64.3547 11.7966 64.4835 11.8573C64.6122 11.918 64.7088 12.0091 64.7731 12.1153C64.8375 12.2215 64.8858 12.3581 64.8858 12.5098C64.8858 12.6615 64.8375 12.7829 64.757 12.9195C64.6766 13.0409 64.5478 13.1319 64.403 13.2078C64.2421 13.2685 64.049 13.2988 63.8237 13.2988C63.4858 13.2988 63.2283 13.223 63.0513 13.0712C62.8421 12.9195 62.7455 12.6615 62.6973 12.3732Z" fill="#A4A4A4"/>
<path d="M76.7617 12.3732H77.2928C77.3249 12.5401 77.3893 12.6615 77.4859 12.7374C77.5824 12.8133 77.7111 12.8588 77.8721 12.8588C78.0491 12.8588 78.1778 12.8284 78.2583 12.7526C78.3387 12.6767 78.387 12.6008 78.387 12.5098C78.387 12.4491 78.3709 12.4036 78.3387 12.3581C78.3066 12.3125 78.2422 12.2822 78.1456 12.2518C78.0813 12.2367 77.9364 12.1912 77.7111 12.1456C77.4215 12.0849 77.2284 11.9939 77.0997 11.9029C76.9387 11.7663 76.8583 11.5994 76.8583 11.4021C76.8583 11.2807 76.8905 11.1593 76.9709 11.038C77.0514 10.9317 77.164 10.8407 77.3088 10.78C77.4537 10.7193 77.6307 10.689 77.8399 10.689C78.1778 10.689 78.4192 10.7648 78.5962 10.9014C78.7571 11.038 78.8537 11.2504 78.8698 11.478H78.3226C78.3066 11.3414 78.2422 11.2504 78.1778 11.2049C78.0974 11.1442 77.9847 11.1138 77.8399 11.1138C77.679 11.1138 77.5663 11.1442 77.4698 11.2049C77.4054 11.2504 77.3893 11.2959 77.3893 11.3566C77.3893 11.4173 77.4215 11.4628 77.4698 11.5083C77.5341 11.569 77.6951 11.6146 77.9686 11.6752C78.2261 11.7359 78.4192 11.7966 78.5479 11.8573C78.6767 11.918 78.7732 12.0091 78.8376 12.1153C78.902 12.2215 78.9502 12.3581 78.9502 12.5098C78.9502 12.6615 78.902 12.7829 78.8215 12.9195C78.741 13.0409 78.6123 13.1319 78.4675 13.2078C78.3066 13.2685 78.1135 13.2988 77.8882 13.2988C77.5502 13.2988 77.2928 13.223 77.1157 13.0712C76.9065 12.9195 76.7939 12.6615 76.7617 12.3732Z" fill="#A4A4A4"/>
<path d="M65.2083 4.80157C65.2083 4.74088 65.2083 4.69536 65.2083 4.63466C65.2083 4.51327 65.1922 4.40706 65.1922 4.31602C65.16 3.90633 65.0473 3.49664 64.645 3.31456C64.7577 3.25386 64.8542 3.17799 64.9347 3.08695C65.1439 2.85935 65.2565 2.58622 65.2565 2.23723C65.2565 1.96411 65.1922 1.7365 65.0473 1.52407C64.9025 1.31164 64.7255 1.17508 64.4841 1.08404C64.2588 1.00817 63.8726 0.962646 63.3738 0.962646H61.3301V5.49956H62.2956V3.6332H62.3761H62.5048H63.1002H63.3094H63.3899C63.9209 3.6332 64.114 3.84563 64.1784 4.31602C64.1945 4.42223 64.2106 4.52845 64.2106 4.64983C64.2106 4.71053 64.2106 4.75605 64.2106 4.81674C64.2266 5.0747 64.2588 5.34782 64.3393 5.54508H65.3853C65.2565 5.34782 65.2244 5.05952 65.2083 4.80157ZM63.0197 2.90487H62.2956V1.75167H63.0519C63.4381 1.75167 63.6795 1.75167 63.76 1.76685C63.9209 1.7972 64.0335 1.85789 64.1301 1.94893C64.2106 2.03997 64.2588 2.16136 64.2588 2.3131C64.2588 2.44966 64.2266 2.55588 64.1623 2.64692C64.0979 2.73796 64.0014 2.79865 63.8887 2.84417C63.7761 2.8897 63.4864 2.90487 63.0197 2.90487Z" fill="#A4A4A4"/>
<path d="M57.2422 5.52999V0.977905H60.525V1.75176H58.2077V2.82909H60.2031V3.60294H58.2077V5.52999H57.2422Z" fill="#A4A4A4"/>
<path d="M66.1738 5.52999V0.977905H69.7302V1.75176H67.1394V2.75322H69.5532V3.5119H67.1394V4.74096H69.8106V5.49964C69.8106 5.52999 66.1738 5.52999 66.1738 5.52999Z" fill="#A4A4A4"/>
<path d="M70.3887 3.95187H71.3381C71.4025 4.25535 71.5151 4.46778 71.676 4.60434C71.8531 4.7409 72.0783 4.81677 72.3841 4.81677C72.6898 4.81677 72.9312 4.75608 73.0921 4.63469C73.2531 4.5133 73.3335 4.36156 73.3335 4.19465C73.3335 4.08844 73.3013 3.9974 73.237 3.92153C73.1726 3.84566 73.06 3.78496 72.8829 3.72427C72.7703 3.69392 72.5128 3.61805 72.1105 3.52701C71.5956 3.40562 71.2255 3.25389 71.0163 3.0718C70.7266 2.82903 70.5818 2.51038 70.5818 2.16139C70.5818 1.93378 70.6461 1.72135 70.791 1.50892C70.9358 1.31167 71.1289 1.15993 71.3864 1.05371C71.6439 0.947498 71.9657 0.901978 72.3358 0.901978C72.9312 0.901978 73.3979 1.02337 73.6875 1.28132C73.9933 1.5241 74.1542 1.90344 74.1703 2.3283H73.2048C73.1565 2.10069 73.076 1.93378 72.9312 1.82757C72.7864 1.72135 72.5933 1.67583 72.3197 1.67583C72.0462 1.67583 71.8209 1.73653 71.6599 1.84274C71.5634 1.91861 71.5151 2.00965 71.5151 2.13104C71.5151 2.23726 71.5634 2.3283 71.6599 2.40417C71.7887 2.49521 72.0783 2.60142 72.545 2.70764C73.0117 2.81385 73.3657 2.92007 73.591 3.04146C73.8163 3.14767 73.9933 3.31458 74.122 3.49667C74.2508 3.69392 74.3151 3.9367 74.3151 4.225C74.3151 4.48295 74.2347 4.72573 74.0898 4.95333C73.945 5.18094 73.7197 5.34785 73.4462 5.45406C73.1726 5.56028 72.8186 5.62097 72.4002 5.62097C71.7887 5.62097 71.322 5.48441 71.0002 5.22646C70.6461 4.93816 70.453 4.46778 70.3887 3.95187Z" fill="#A4A4A4"/>
<path d="M75.1035 5.52999V0.977905H76.069V2.76839H77.9679V0.977905H78.9334V5.51482H77.9679V3.54225H76.069V5.52999H75.1035Z" fill="#A4A4A4"/>
</g>
<defs>
<clipPath id="clip0_2403_86109">
<rect width="78.5293" height="12.761" fill="white" transform="translate(0.470703 0.795776)"/>
</clipPath>
</defs>
</svg>
