<svg width="22" height="22" viewBox="0 0 22 22" fill="none" xmlns="http://www.w3.org/2000/svg">
<path d="M19.5 14.8278C16.9985 20.756 8.86407 22.4835 4.20143 17.8641C-0.370516 13.3347 1.04493 5.12883 7.05653 2.5" stroke="#141B34" stroke-width="1.5" stroke-linecap="round"/>
<path d="M16.6831 11.5C18.5708 11.5 19.5146 11.5 20.1241 10.655C20.1469 10.6234 20.1848 10.5667 20.2052 10.5336C20.7527 9.6471 20.4705 8.966 19.9063 7.60378C19.3946 6.36853 18.6447 5.24615 17.6993 4.30073C16.7538 3.35531 15.6315 2.60536 14.3962 2.0937C13.034 1.52946 12.3529 1.24733 11.4664 1.79477C11.4333 1.81523 11.3766 1.85309 11.345 1.87587C10.5 2.4854 10.5 3.42922 10.5 5.31686V7.42748C10.5 9.34728 10.5 10.3072 11.0964 10.9036C11.6928 11.5 12.6527 11.5 14.5725 11.5H16.6831Z" stroke="#141B34" stroke-width="1.5"/>
</svg>
