<svg width="22" height="22" viewBox="0 0 22 22" fill="none" xmlns="http://www.w3.org/2000/svg">
<path d="M11 6C8.23858 6 6 8.23857 6 11C6 13.7614 8.23858 16 11 16C13.7614 16 16 13.7614 16 11C16 8.23858 13.7614 6 11 6Z" stroke="#141B34" stroke-width="1.5" stroke-linecap="round" stroke-linejoin="round"/>
<path d="M16.7366 5.26337L20.5 1.5M16.7366 5.26337C16.297 4.82377 16.5833 3.02148 16.6966 2M16.7366 5.26337C17.1762 5.70297 18.9785 5.41666 20 5.30336" stroke="#141B34" stroke-width="1.5" stroke-linecap="round" stroke-linejoin="round"/>
<path d="M5.26337 16.7366L1.5 20.5M5.26337 16.7366C4.82377 16.297 3.02148 16.5833 2 16.6966M5.26337 16.7366C5.70297 17.1762 5.41666 18.9785 5.30336 20" stroke="#141B34" stroke-width="1.5" stroke-linecap="round" stroke-linejoin="round"/>
<path d="M16.7366 16.7366L20.5 20.5M16.7366 16.7366C17.1762 16.297 18.9785 16.5833 20 16.6966M16.7366 16.7366C16.297 17.1762 16.5833 18.9785 16.6966 20" stroke="#141B34" stroke-width="1.5" stroke-linecap="round" stroke-linejoin="round"/>
<path d="M5.26337 5.26337L1.5 1.5M5.26337 5.26337C5.70297 4.82377 5.41666 3.02148 5.30336 2M5.26337 5.26337C4.82377 5.70297 3.02148 5.41666 2 5.30336" stroke="#141B34" stroke-width="1.5" stroke-linecap="round" stroke-linejoin="round"/>
</svg>
