<svg width="22" height="23" viewBox="0 0 22 23" fill="none" xmlns="http://www.w3.org/2000/svg">
<path d="M16.5798 9.71016C16.0765 9.57314 15.5468 9.5 15 9.5C12.4668 9.5 10.3002 11.0699 9.42018 13.2898M16.5798 9.71016C19.1271 10.4036 21 12.7331 21 15.5C21 18.8137 18.3137 21.5 15 21.5C13.4633 21.5 12.0615 20.9223 11 19.9722M16.5798 9.71016C16.851 9.02618 17 8.2805 17 7.5C17 4.18629 14.3137 1.5 11 1.5C7.68629 1.5 5 4.18629 5 7.5C5 8.2805 5.14903 9.02618 5.42018 9.71016M9.42018 13.2898C9.14903 13.9738 9 14.7195 9 15.5C9 17.277 9.7725 18.8736 11 19.9722M9.42018 13.2898C7.59146 12.792 6.11029 11.451 5.42018 9.71016M5.42018 9.71016C2.87294 10.4036 1 12.7331 1 15.5C1 18.8137 3.68629 21.5 7 21.5C8.53671 21.5 9.93849 20.9223 11 19.9722" stroke="#141B34" stroke-width="1.5" stroke-linecap="round"/>
</svg>
