<svg width="24" height="24" viewBox="0 0 24 24" fill="none" xmlns="http://www.w3.org/2000/svg">
<path d="M12.9297 17.0156H11.9297V16.0156H12.9297V17.0156ZM12.9297 12.5156H11.9297V11.5156H12.9297V12.5156ZM10.4609 15.3633H9.46094V14.3633H10.4609V15.3633ZM14.9922 14.375H13.9922V13.375H14.9922V14.375ZM9.46875 11.875H8.46875V10.875H9.46875V11.875ZM17 18H7V10H17V18ZM18 22C18 22.5508 17.5508 23 17 23H7C6.44922 23 6 22.5508 6 22V20C6 19.4492 6.44922 19 7 19H17C17.5508 19 18 19.4492 18 20V22ZM6 6C6 5.44922 6.44922 5 7 5H17C17.5508 5 18 5.44922 18 6V8C18 8.55078 17.5508 9 17 9H7C6.44922 9 6 8.55078 6 8V6ZM10.5 1H13.5V4H10.5V1ZM19 8V6C19 4.89453 18.1055 4 17 4H14.5V0.5C14.5 0.222656 14.2773 0 14 0H10C9.72266 0 9.5 0.222656 9.5 0.5V4H7C5.89453 4 5 4.89453 5 6V8C5 8.73828 5.40625 9.375 6 9.72266V18.2773C5.40625 18.625 5 19.2617 5 20V22C5 23.1055 5.89453 24 7 24H17C18.1055 24 19 23.1055 19 22V20C19 19.2617 18.5938 18.625 18 18.2773V9.72266C18.5938 9.375 19 8.73828 19 8Z" fill="currentColor"/>
</svg>
