<svg width="22" height="22" viewBox="0 0 22 22" fill="none" xmlns="http://www.w3.org/2000/svg">
<path d="M20.75 11C20.75 5.47715 16.2728 1 10.75 1C5.22715 1 0.75 5.47715 0.75 11C0.75 16.5228 5.22715 21 10.75 21C11.5917 21 12.75 21.1163 12.75 20C12.75 19.391 12.4332 18.9212 12.1186 18.4544C11.6582 17.7715 11.2023 17.0953 11.75 16C12.4167 14.6667 13.5278 14.6667 15.2315 14.6667C16.0834 14.6667 17.0834 14.6667 18.25 14.5C20.351 14.1999 20.75 12.9084 20.75 11Z" stroke="white" stroke-width="1.5"/>
<path d="M5.75 14.0024L5.75868 14.0001" stroke="white" stroke-width="2" stroke-linecap="round" stroke-linejoin="round"/>
<circle cx="8.25" cy="7.5" r="1.5" stroke="white" stroke-width="1.5"/>
<circle cx="15.25" cy="8.5" r="1.5" stroke="white" stroke-width="1.5"/>
</svg>
