<svg width="24" height="24" viewBox="0 0 24 24" fill="none" xmlns="http://www.w3.org/2000/svg">
<path d="M2.50014 12C2.50014 7.52166 2.50014 5.28249 3.89138 3.89124C5.28263 2.5 7.5218 2.5 12.0001 2.5C16.4785 2.5 18.7177 2.5 20.1089 3.89124C21.5001 5.28249 21.5001 7.52166 21.5001 12C21.5001 16.4783 21.5001 18.7175 20.1089 20.1088C18.7177 21.5 16.4785 21.5 12.0001 21.5C7.5218 21.5 5.28263 21.5 3.89138 20.1088C2.50014 18.7175 2.50014 16.4783 2.50014 12Z" stroke="#141B34" stroke-width="1.5"/>
<path d="M2.5 8H21.5" stroke="#141B34" stroke-width="1.5" stroke-linejoin="round"/>
<path d="M11 17H17M7 17H8" stroke="#141B34" stroke-width="1.5" stroke-linecap="round" stroke-linejoin="round"/>
<path d="M11 13H17M7 13H8" stroke="#141B34" stroke-width="1.5" stroke-linecap="round" stroke-linejoin="round"/>
</svg>
