<svg width="28" height="30" viewBox="0 0 21 22" fill="none" xmlns="http://www.w3.org/2000/svg">
<path d="M19 6V11M1 6C1 9.06452 1 15.7742 1 16.1613C1 17.5438 2.94564 18.3657 6.83693 20.0095C8.40019 20.6698 9.18182 21 10 21L10 10.3548" stroke="currentColor" stroke-width="1.5" stroke-linecap="round" stroke-linejoin="round"/>
<path d="M13 18C13 18 13.875 18 14.75 20C14.75 20 17.5294 15 20 14" stroke="currentColor" stroke-width="1.5" stroke-linecap="round" stroke-linejoin="round"/>
<path d="M6.32592 8.69138L3.40472 7.27785C1.80157 6.5021 1 6.11423 1 5.5C1 4.88577 1.80157 4.4979 3.40472 3.72215L6.32592 2.30862C8.12883 1.43621 9.03029 1 10 1C10.9697 1 11.8712 1.4362 13.6741 2.30862L16.5953 3.72215C18.1984 4.4979 19 4.88577 19 5.5C19 6.11423 18.1984 6.5021 16.5953 7.27785L13.6741 8.69138C11.8712 9.56379 10.9697 10 10 10C9.03029 10 8.12883 9.56379 6.32592 8.69138Z" stroke="currentColor" stroke-width="1.5" stroke-linecap="round" stroke-linejoin="round"/>
<path d="M4 11L6 12" stroke="currentColor" stroke-width="1.5" stroke-linecap="round" stroke-linejoin="round"/>
<path d="M15 3L5 8" stroke="currentColor" stroke-width="1.5" stroke-linecap="round" stroke-linejoin="round"/>
</svg>
