<svg width="24" height="24" viewBox="0 0 24 24" fill="none" xmlns="http://www.w3.org/2000/svg">
<g clip-path="url(#clip0_67_309)">
<path d="M12 8C9.78906 8 8 9.78906 8 12C8 14.2109 9.78906 16 12 16C14.2109 16 16 14.2109 16 12C16 9.78906 14.2109 8 12 8Z" fill="#7B7275"/>
<circle cx="12" cy="22" r="1.5" stroke="#7B7275" stroke-linecap="round" stroke-linejoin="round"/>
<circle cx="2" cy="12" r="1.5" transform="rotate(90 2 12)" stroke="#7B7275" stroke-linecap="round" stroke-linejoin="round"/>
<circle cx="12" cy="2" r="1.5" stroke="#7B7275" stroke-linecap="round" stroke-linejoin="round"/>
<circle cx="4.92896" cy="19.071" r="1.5" transform="rotate(45 4.92896 19.071)" stroke="#7B7275" stroke-linecap="round" stroke-linejoin="round"/>
<circle cx="19.071" cy="4.92895" r="1.5" transform="rotate(45 19.071 4.92895)" stroke="#7B7275" stroke-linecap="round" stroke-linejoin="round"/>
<path d="M23.5 12C23.5 12.8284 22.8284 13.5 22 13.5C21.1716 13.5 20.5 12.8284 20.5 12C20.5 11.1716 21.1716 10.5 22 10.5C22.8284 10.5 23.5 11.1716 23.5 12Z" stroke="#7B7275" stroke-linecap="round" stroke-linejoin="round"/>
<circle cx="4.9289" cy="4.92896" r="1.5" transform="rotate(135 4.9289 4.92896)" stroke="#7B7275" stroke-linecap="round" stroke-linejoin="round"/>
<circle cx="19.071" cy="19.071" r="1.5" transform="rotate(135 19.071 19.071)" stroke="#7B7275" stroke-linecap="round" stroke-linejoin="round"/>
<circle cx="12" cy="12" r="6.5" stroke="#7B7275"/>
<circle cx="12" cy="12" r="4" fill="#7B7275"/>
</g>
<defs>
<clipPath id="clip0_67_309">
<rect width="24" height="24" fill="white"/>
</clipPath>
</defs>
</svg>
