<svg width="22" height="23" viewBox="0 0 22 23" fill="none" xmlns="http://www.w3.org/2000/svg">
<path d="M13.6171 4.26655C14.6275 2.66588 15.1327 1.86554 15.7947 1.62444C16.2503 1.45852 16.7497 1.45852 17.2053 1.62444C17.8673 1.86554 18.3725 2.66588 19.3829 4.26655C20.5202 6.06824 21.0889 6.96908 20.9887 7.71239C20.92 8.22222 20.6634 8.68799 20.2693 9.01835C19.6947 9.5 18.6298 9.5 16.5 9.5C14.3702 9.5 13.3053 9.5 12.7307 9.01835C12.3366 8.68799 12.08 8.22222 12.0113 7.71239C11.9111 6.96908 12.4798 6.06824 13.6171 4.26655Z" stroke="#C0EEFB" stroke-width="1.5" stroke-linejoin="round"/>
<path d="M1 5.5C1 3.83345 1 3.00018 1.42441 2.41603C1.56147 2.22738 1.72738 2.06147 1.91603 1.92441C2.50018 1.5 3.33345 1.5 5 1.5C6.66655 1.5 7.49982 1.5 8.08397 1.92441C8.27262 2.06147 8.43853 2.22738 8.57559 2.41603C9 3.00018 9 3.83345 9 5.5C9 7.16655 9 7.99982 8.57559 8.58397C8.43853 8.77262 8.27262 8.93853 8.08397 9.07559C7.49982 9.5 6.66655 9.5 5 9.5C3.33345 9.5 2.50018 9.5 1.91603 9.07559C1.72738 8.93853 1.56147 8.77262 1.42441 8.58397C1 7.99982 1 7.16655 1 5.5Z" stroke="#C0EEFB" stroke-width="1.5" stroke-linejoin="round"/>
<circle cx="16.5" cy="17.5" r="4" stroke="#C0EEFB" stroke-width="1.5" stroke-linejoin="round"/>
<path d="M8.49994 14L1.5 21M1.50006 14L8.5 21" stroke="#C0EEFB" stroke-width="1.5" stroke-linecap="round" stroke-linejoin="round"/>
</svg>
