<svg width="22" height="22" viewBox="0 0 22 22" fill="none" xmlns="http://www.w3.org/2000/svg">
<path d="M13 21V7C13 4.17157 13 2.75736 12.1213 1.87868C11.2426 1 9.82843 1 7 1C4.17157 1 2.75736 1 1.87868 1.87868C1 2.75736 1 4.17157 1 7V15C1 17.8284 1 19.2426 1.87868 20.1213C2.75736 21 4.17157 21 7 21H13Z" stroke="#141B34" stroke-width="1.5" stroke-linecap="round"/>
<path d="M5.5 10H4.5M9.5 10H8.5M5.5 6H4.5M5.5 14H4.5M9.5 6H8.5M9.5 14H8.5" stroke="#141B34" stroke-width="1.5" stroke-linecap="round"/>
<path d="M17.5 14H16.5M17.5 10H16.5" stroke="#141B34" stroke-width="1.5" stroke-linecap="round"/>
<path d="M17 7H13V21H17C18.8856 21 19.8284 21 20.4142 20.4142C21 19.8284 21 18.8856 21 17V11C21 9.11438 21 8.17157 20.4142 7.58579C19.8284 7 18.8856 7 17 7Z" stroke="#141B34" stroke-width="1.5" stroke-linecap="round"/>
</svg>
