<svg width="20" height="23" viewBox="0 0 20 23" fill="none" xmlns="http://www.w3.org/2000/svg">
<path d="M7 19.5C3.22895 18.6318 1 15.1772 1 12.0102C1 8.24448 4.37016 4.52317 6.73565 2.375C8.02035 1.20833 9.97965 1.20833 11.2643 2.375C12.7712 3.74338 14.5749 5.75009 15.7511 8" stroke="#C7EADF" stroke-width="1.5" stroke-linecap="round"/>
<path d="M15 15C13.5 16 11 18 9 21.5M11 18.5C8.33615 12.6407 13.8347 10.7355 17.9249 10.5158C18.4185 10.4893 18.6653 10.476 18.8425 10.647C19.0198 10.8179 19.0095 11.0616 18.9891 11.549C18.8194 15.6017 16.9947 21.1068 11 18.5Z" stroke="#C7EADF" stroke-width="1.5" stroke-linecap="round" stroke-linejoin="round"/>
</svg>
