<svg width="16" height="23" viewBox="0 0 16 23" fill="none" xmlns="http://www.w3.org/2000/svg">
<path d="M2.63244 17.7626L1.03072 5.59986C0.910634 4.688 1.11589 4.5 2.12552 4.5L12.8745 4.5C13.8841 4.5 14.0894 4.688 13.9693 5.59986L12.3676 17.7626C12.1495 19.4182 12.0405 20.246 11.4139 20.7437C10.1165 21.7744 4.827 21.7295 3.58606 20.7437C2.95948 20.246 2.85047 19.4182 2.63244 17.7626Z" stroke="#FFE1F6" stroke-width="1.5" stroke-linecap="round" stroke-linejoin="round"/>
<path d="M9.5 18.5L9.94599 2.44128C9.97709 1.91272 10.4148 1.5 10.9443 1.5L15.0014 1.5" stroke="#FFE1F6" stroke-width="1.5" stroke-linecap="round"/>
<path d="M2 9.5C2.18182 9.16667 2.78182 8.5 4.09091 8.5C5.72727 8.5 5.29545 9.5 6.38636 9.5C7.47727 9.5 9.11364 8.5 10.75 8.5C12.3864 8.5 13.5 9.5 13.5 9.5" stroke="#FFE1F6" stroke-width="1.5" stroke-linecap="round"/>
<path d="M6.00894 15.5H6" stroke="#FFE1F6" stroke-width="2" stroke-linecap="round" stroke-linejoin="round"/>
</svg>
