<svg width="18" height="23" viewBox="0 0 18 23" fill="none" xmlns="http://www.w3.org/2000/svg">
<path d="M1.5 12.5C1.5 9.73858 3.73858 7.5 6.5 7.5C9.26142 7.5 11.5 9.73858 11.5 12.5V17.5C11.5 19.3856 11.5 20.3284 10.9142 20.9142C10.3284 21.5 9.38562 21.5 7.5 21.5H5.5C3.61438 21.5 2.67157 21.5 2.08579 20.9142C1.5 20.3284 1.5 19.3856 1.5 17.5V12.5Z" stroke="#FEF2C2" stroke-width="1.5" stroke-linecap="round" stroke-linejoin="round"/>
<path d="M11.5 12.6122C7.86069 9.33944 5.89093 14.4405 1.5 13.3418" stroke="#FEF2C2" stroke-width="1.5" stroke-linecap="round"/>
<path d="M4.5 7.5V6.5C4.5 5.55719 4.5 5.08579 4.79289 4.79289C5.08579 4.5 5.55719 4.5 6.5 4.5C7.44281 4.5 7.91421 4.5 8.20711 4.79289C8.5 5.08579 8.5 5.55719 8.5 6.5V7.5" stroke="#FEF2C2" stroke-width="1.5" stroke-linecap="round" stroke-linejoin="round"/>
<path d="M6.5 4.5V1.5M6.5 1.5H4.5M6.5 1.5H9.92287C10.9117 1.5 11.7493 1.89009 12.5 2.5" stroke="#FEF2C2" stroke-width="1.5" stroke-linecap="round" stroke-linejoin="round"/>
<path d="M16.4414 8.47336C16.671 9.34608 16.2059 10.2313 15.4026 10.4505C14.5994 10.6697 13.7621 10.14 13.5325 9.26726C13.303 8.39454 14.3634 6.5 14.3634 6.5C14.3634 6.5 16.2118 7.60063 16.4414 8.47336Z" stroke="#FEF2C2" stroke-width="1.5" stroke-linecap="round" stroke-linejoin="round"/>
</svg>
