<svg width="20" height="23" viewBox="0 0 20 23" fill="none" xmlns="http://www.w3.org/2000/svg">
<path d="M7.80957 4.71289C7.98392 4.71303 8.14397 4.82515 8.2041 4.99121L8.80762 6.66406C9.45354 8.45528 10.852 9.85469 12.6436 10.5L14.3164 11.1035C14.481 11.1626 14.5947 11.3228 14.5947 11.5C14.5947 11.6767 14.4822 11.8372 14.3164 11.8965H14.3145L12.6436 12.5C10.9642 13.1056 9.62949 14.3725 8.9375 16.0049L8.80762 16.3359L8.2041 18.0088C8.14498 18.1736 7.98481 18.2871 7.80859 18.2871C7.63183 18.2871 7.47168 18.1739 7.41211 18.0088L6.80859 16.3359C6.16263 14.5437 4.76433 13.1443 2.97266 12.499H2.97168L1.2998 11.8965C1.13408 11.8365 1.02153 11.6764 1.02148 11.5C1.02148 11.3239 1.13366 11.1637 1.30078 11.1035H1.30176L2.97266 10.5C4.76492 9.85472 6.16362 8.45617 6.80957 6.66406L7.41211 4.99121L7.41113 4.99023C7.47192 4.82439 7.63371 4.71289 7.80957 4.71289ZM7.33789 6.6709L7.2793 6.83301C6.58278 8.76662 5.07521 10.2742 3.1416 10.9707L2.97949 11.0293L1.68066 11.499L2.97852 11.9697L3.14062 12.0283H3.1416C5.07428 12.7248 6.582 14.2324 7.2793 16.166V16.167L7.33789 16.3291L7.80762 17.6309L8.27832 16.3291L8.33691 16.167V16.166C9.03349 14.2326 10.5411 12.7248 12.4746 12.0283L12.6367 11.9697L13.9385 11.5L12.6367 11.0293L12.4746 10.9707C10.5417 10.2742 9.03344 8.76664 8.33691 6.83301L8.27832 6.6709L7.80859 5.36914L7.33789 6.6709Z" fill="#091610" stroke="#FFCBCB"/>
<path d="M15.418 0.75C15.5586 0.750019 15.6864 0.839416 15.7344 0.972656L16.04 1.81934V1.82031C16.3546 2.69206 17.0364 3.37405 17.9082 3.68848L18.7539 3.99219V3.99316C18.8893 4.04279 18.9777 4.17157 18.9775 4.31055C18.9773 4.43266 18.908 4.54683 18.8018 4.60547L18.7549 4.62695L17.9082 4.93164C17.0904 5.22575 16.4398 5.84362 16.1025 6.63867L16.0391 6.80078L15.7344 7.64746V7.64844C15.6873 7.77967 15.5583 7.87012 15.417 7.87012C15.2766 7.87004 15.1486 7.7799 15.1006 7.64648L14.7959 6.80078C14.4815 5.92897 13.7998 5.24619 12.9268 4.93164H12.9258L12.0801 4.62695L12.0322 4.60547C11.9267 4.54732 11.8577 4.43334 11.8574 4.31055C11.8573 4.17137 11.946 4.0418 12.0771 3.99316L12.0781 3.99414L12.9268 3.68848H12.9277C13.7994 3.37401 14.4814 2.6923 14.7959 1.81934L15.1006 0.972656L15.1016 0.97168C15.1489 0.84041 15.2763 0.75 15.418 0.75ZM14.9863 2.58887C14.6742 3.12284 14.2312 3.56581 13.6973 3.87793L12.958 4.31055L13.6973 4.74121C14.2307 5.05231 14.6741 5.49607 14.9863 6.03027L15.418 6.76953L15.8496 6.03027C16.1609 5.49661 16.604 5.05331 17.1387 4.74121L17.8789 4.30957L17.1387 3.87793C16.605 3.56668 16.1617 3.12353 15.8496 2.58887L15.418 1.84961L14.9863 2.58887Z" fill="#091610" stroke="#FFCBCB"/>
<path d="M15.416 15.1296C15.5565 15.1297 15.6854 15.2196 15.7334 15.3523L16.0381 16.199V16.2C16.3526 17.0717 17.0344 17.7536 17.9062 18.0681L18.7529 18.3728C18.8869 18.4212 18.9772 18.5503 18.9775 18.6892C18.9777 18.8294 18.8863 18.958 18.7539 19.0066L17.9072 19.3113V19.3123C17.0353 19.6268 16.3535 20.3085 16.0391 21.1804L15.7334 22.0271V22.0281C15.6862 22.1594 15.5586 22.2496 15.417 22.2498C15.2759 22.2498 15.1464 22.1601 15.0977 22.0261H15.0986L14.7939 21.1804C14.4801 20.307 13.7974 19.6256 12.9248 19.3113H12.9238L12.0781 19.0066H12.0791C11.9441 18.9575 11.8553 18.8287 11.8555 18.6892C11.8558 18.5486 11.9463 18.4202 12.0781 18.3728H12.0791L12.9248 18.0681C13.7972 17.7544 14.4795 17.0717 14.7939 16.199L15.0986 15.3523L15.0996 15.3513C15.1469 15.22 15.2744 15.1296 15.416 15.1296ZM14.9844 16.9695C14.6733 17.5029 14.2305 17.9463 13.6963 18.2585L12.957 18.6902L13.6963 19.1218C14.23 19.4331 14.6732 19.8762 14.9854 20.4109L15.417 21.1511L15.8486 20.4109C16.1598 19.8774 16.6034 19.4341 17.1377 19.1218L17.877 18.6892L17.1367 18.2585C16.6034 17.9475 16.1609 17.5036 15.8486 16.9695L15.416 16.2302L14.9844 16.9695Z" fill="#091610" stroke="#FFCBCB"/>
</svg>
