<svg width="20" height="23" viewBox="0 0 20 23" fill="none" xmlns="http://www.w3.org/2000/svg">
<path d="M10 12.5L13 14.5M10 12.5C5.52052 15.2458 2.88172 14.2808 1 13.3508C1 15.4297 1.68122 17.1692 2.69609 18.5M10 12.5L13 7.91396M13 14.5C12.781 16.5373 11.4267 20.6851 8.1556 21.5C6.34064 21.5 4.16762 20.4296 2.69609 18.5M13 14.5L15.5978 9.5M15.5978 9.5L18.876 3.19028C19.1655 2.6134 18.9308 1.91193 18.3519 1.62349C17.7937 1.34536 17.1147 1.55196 16.8076 2.09338L13 7.91396M15.5978 9.5L13 7.91396M2.69609 18.5C3.73446 18.6667 6.28008 18.7 8.1556 17.5" stroke="#FEF2C2" stroke-width="1.5" stroke-linecap="round" stroke-linejoin="round"/>
<path d="M4 3.5L4.22108 4.09745C4.51097 4.88087 4.65592 5.27259 4.94167 5.55834C5.22741 5.84408 5.61913 5.98903 6.40255 6.27892L7 6.5L6.40255 6.72108C5.61913 7.01097 5.22741 7.15592 4.94167 7.44167C4.65592 7.72741 4.51097 8.11913 4.22108 8.90255L4 9.5L3.77892 8.90255C3.48903 8.11913 3.34408 7.72741 3.05833 7.44167C2.77259 7.15592 2.38087 7.01097 1.59745 6.72108L1 6.5L1.59745 6.27892C2.38087 5.98903 2.77259 5.84408 3.05833 5.55833C3.34408 5.27259 3.48903 4.88087 3.77892 4.09745L4 3.5Z" stroke="#FEF2C2" stroke-width="1.5" stroke-linejoin="round"/>
</svg>
