<svg width="234" height="24" viewBox="0 0 234 24" fill="none" xmlns="http://www.w3.org/2000/svg">
<path d="M151.579 0H151.526C145.186 0 140.047 5.1411 140.047 11.483V11.5354C140.047 17.8773 145.186 23.0184 151.526 23.0184H151.579C157.919 23.0184 163.058 17.8773 163.058 11.5354V11.483C163.058 5.1411 157.919 0 151.579 0Z" fill="#00E510"/>
<path d="M153.795 14.876C150.85 14.876 148.454 12.4784 148.453 9.53249C148.454 8.78572 149.062 8.17847 149.807 8.17847C149.883 8.17847 149.959 8.18492 150.032 8.19782C150.191 8.22443 150.343 8.27847 150.482 8.35992C150.503 8.37201 150.516 8.39137 150.519 8.41395L150.831 10.376C150.835 10.3994 150.827 10.422 150.812 10.4389C150.64 10.6293 150.421 10.7663 150.177 10.8349L150.059 10.868L150.103 10.9817C150.505 12.0042 151.322 12.8212 152.345 13.2244L152.459 13.2696L152.492 13.1518C152.561 12.9075 152.698 12.6881 152.888 12.5163C152.902 12.5034 152.92 12.497 152.939 12.497C152.943 12.497 152.947 12.497 152.952 12.4978L154.913 12.8091C154.937 12.8131 154.956 12.826 154.968 12.8462C155.049 12.9857 155.103 13.1381 155.13 13.2978C155.143 13.3687 155.149 13.4437 155.149 13.522C155.149 14.2679 154.542 14.8752 153.795 14.876Z" fill="#FDFDFD"/>
<path d="M159.016 10.8628C158.857 9.06769 158.035 7.40238 156.701 6.17417C155.359 4.9387 153.617 4.25806 151.796 4.25806C147.799 4.25806 144.546 7.51125 144.546 11.5096C144.546 12.8515 144.917 14.1588 145.617 15.2975L144.055 18.7571L149.057 18.2241C149.927 18.5805 150.848 18.7612 151.795 18.7612C152.044 18.7612 152.3 18.7483 152.556 18.7216C152.782 18.6974 153.01 18.662 153.234 18.6168C156.582 17.9402 159.025 14.9684 159.045 11.5483V11.5096C159.045 11.2919 159.035 11.0741 159.015 10.8628H159.016ZM149.25 16.7055L146.482 17.0007L147.309 15.1693L147.143 14.9475C147.131 14.9314 147.119 14.9152 147.105 14.8967C146.388 13.9056 146.009 12.7346 146.009 11.5104C146.009 8.31851 148.605 5.72175 151.796 5.72175C154.785 5.72175 157.319 8.0548 157.564 11.033C157.576 11.1927 157.584 11.3532 157.584 11.5112C157.584 11.5564 157.583 11.6007 157.582 11.6483C157.521 14.3185 155.656 16.5862 153.047 17.1636C152.848 17.2079 152.644 17.2418 152.441 17.2636C152.23 17.2878 152.013 17.2999 151.798 17.2999C151.031 17.2999 150.286 17.1515 149.582 16.8579C149.504 16.8265 149.427 16.7926 149.356 16.7579L149.251 16.7071L149.25 16.7055Z" fill="#FDFDFD"/>
<path d="M221.536 0H221.484C215.144 0 210.004 5.1411 210.004 11.483V11.5354C210.004 17.8773 215.144 23.0184 221.484 23.0184H221.536C227.876 23.0184 233.015 17.8773 233.015 11.5354V11.483C233.015 5.1411 227.876 0 221.536 0Z" fill="#007EBB"/>
<path d="M215.493 7.65166C215.19 7.37022 215.039 7.02183 215.039 6.60732C215.039 6.19281 215.191 5.8291 215.493 5.54684C215.796 5.26539 216.186 5.12427 216.664 5.12427C217.142 5.12427 217.517 5.26539 217.82 5.54684C218.123 5.82829 218.274 6.18232 218.274 6.60732C218.274 7.03231 218.122 7.37022 217.82 7.65166C217.517 7.93311 217.132 8.07424 216.664 8.07424C216.197 8.07424 215.796 7.93311 215.493 7.65166ZM218.019 9.26617V17.8951H215.293V9.26617H218.019Z" fill="#FEFFFC"/>
<path d="M227.092 10.1189C227.686 10.764 227.983 11.6495 227.983 12.7769V17.743H225.394V13.1269C225.394 12.5584 225.246 12.1164 224.952 11.8019C224.658 11.4874 224.261 11.3293 223.765 11.3293C223.268 11.3293 222.871 11.4866 222.577 11.8019C222.283 12.1164 222.135 12.5584 222.135 13.1269V17.743H219.531V9.24225H222.135V10.3697C222.399 9.99386 222.754 9.69709 223.201 9.47854C223.648 9.25999 224.15 9.15112 224.709 9.15112C225.704 9.15112 226.498 9.4737 227.092 10.1189Z" fill="#FEFFFC"/>
<path d="M198.005 11.4765C198.005 5.13821 192.868 0 186.532 0C180.195 0 175.059 5.13821 175.059 11.4765C175.059 17.8148 180.195 22.953 186.532 22.953C192.868 22.953 198.005 17.8148 198.005 11.4765Z" fill="#FF0209"/>
<path d="M191.404 16.5596C191.062 16.5967 190.712 16.6031 190.377 16.6023C187.761 16.5999 185.145 16.5975 182.529 16.5959C181.706 16.5959 180.81 16.5693 180.173 16.0459C179.457 15.4548 179.308 14.4298 179.25 13.5024C179.169 12.2314 179.163 10.9564 179.229 9.68465C179.265 8.98627 179.329 8.27095 179.629 7.6387C179.845 7.18467 180.206 6.77661 180.667 6.5621C181.203 6.31291 181.764 6.35726 182.341 6.35645C183.723 6.35484 185.105 6.35403 186.487 6.35242C187.924 6.35081 189.361 6.35 190.798 6.34839C191.477 6.34839 192.205 6.3621 192.759 6.75484C193.474 7.26128 193.669 8.22499 193.758 9.09675C193.923 10.7024 193.926 12.325 193.765 13.9306C193.698 14.5927 193.586 15.2927 193.15 15.7951C192.718 16.2935 192.077 16.4854 191.405 16.5588L191.404 16.5596Z" fill="white"/>
<path d="M188.871 11.4769L184.973 9.22534V13.7285L188.871 11.4769Z" fill="#FF0209"/>
<path d="M46.5437 0H46.4913C40.1513 0 35.0117 5.1411 35.0117 11.483V11.5354C35.0117 17.8773 40.1513 23.0184 46.4913 23.0184H46.5437C52.8837 23.0184 58.0233 17.8773 58.0233 11.5354V11.483C58.0233 5.1411 52.8837 0 46.5437 0Z" fill="url(#paint0_linear_973_27377)"/>
<path d="M50.0785 4.68335H42.9581C40.9909 4.68335 39.3906 6.28414 39.3906 8.25187V14.7679C39.3906 16.7357 40.9909 18.3365 42.9581 18.3365H50.0785C52.0457 18.3365 53.646 16.7357 53.646 14.7679V8.25187C53.646 6.28414 52.0457 4.68335 50.0785 4.68335ZM40.6491 8.25187C40.6491 6.97849 41.6851 5.94221 42.9581 5.94221H50.0785C51.3515 5.94221 52.3875 6.97849 52.3875 8.25187V14.7679C52.3875 16.0413 51.3515 17.0776 50.0785 17.0776H42.9581C41.6851 17.0776 40.6491 16.0413 40.6491 14.7679V8.25187Z" fill="white"/>
<path d="M46.5176 14.8283C48.3469 14.8283 49.8359 13.3397 49.8359 11.509C49.8359 9.67839 48.3477 8.1897 46.5176 8.1897C44.6875 8.1897 43.1992 9.67839 43.1992 11.509C43.1992 13.3397 44.6875 14.8283 46.5176 14.8283ZM46.5176 9.44936C47.6535 9.44936 48.5774 10.3735 48.5774 11.5098C48.5774 12.6461 47.6535 13.5703 46.5176 13.5703C45.3816 13.5703 44.4577 12.6461 44.4577 11.5098C44.4577 10.3735 45.3816 9.44936 46.5176 9.44936Z" fill="white"/>
<path d="M50.1441 8.72595C50.6367 8.72595 51.0382 8.32515 51.0382 7.8316C51.0382 7.33806 50.6375 6.93726 50.1441 6.93726C49.6507 6.93726 49.25 7.33806 49.25 7.8316C49.25 8.32515 49.6507 8.72595 50.1441 8.72595Z" fill="white"/>
<path d="M81.5554 0H81.503C75.163 0 70.0234 5.1411 70.0234 11.483V11.5354C70.0234 17.8773 75.163 23.0184 81.503 23.0184H81.5554C87.8954 23.0184 93.035 17.8773 93.035 11.5354V11.483C93.035 5.1411 87.8954 0 81.5554 0Z" fill="#FF0000"/>
<path fill-rule="evenodd" clip-rule="evenodd" d="M80.4789 14.6565C80.4652 14.7041 80.4523 14.7444 80.4418 14.7848C79.8331 17.1702 79.7654 17.7001 79.1398 18.8081C78.8415 19.3347 78.5053 19.8339 78.1336 20.3113C78.0917 20.3654 78.0522 20.4347 77.9683 20.4178C77.8764 20.3984 77.8692 20.3154 77.8595 20.242C77.7595 19.517 77.7039 18.7904 77.7281 18.0581C77.7595 17.1049 77.8772 16.7775 79.1059 11.6098C79.1236 11.5308 79.1035 11.4654 79.0777 11.3945C78.7834 10.6009 78.7254 9.79529 78.9826 8.97917C79.5388 7.21628 81.5366 7.0816 81.8857 8.53562C82.101 9.43481 81.5318 10.6122 81.0948 12.3525C80.7328 13.788 82.4226 14.809 83.8666 13.7606C85.1984 12.7945 85.7152 10.4783 85.6168 8.83643C85.4233 5.56307 81.8349 4.85581 79.559 5.90984C76.9493 7.11708 76.3559 10.3525 77.5346 11.8316C77.6838 12.0195 77.9651 12.1348 77.9159 12.3251C77.8402 12.6211 77.7732 12.9195 77.691 13.2138C77.6297 13.4332 77.2807 13.513 77.0589 13.4227C76.6244 13.2469 76.2624 12.9703 75.969 12.6057C74.9684 11.3662 74.6822 8.91465 76.0052 6.83886C77.4709 4.53969 80.1975 3.60905 82.6871 3.89131C85.6604 4.22921 87.5396 6.26145 87.8911 8.56707C88.0516 9.61706 87.9363 12.2066 86.4625 14.0372C84.7671 16.1404 82.0187 16.2799 80.7506 14.9888C80.653 14.8896 80.5748 14.7743 80.4789 14.6557V14.6565Z" fill="white"/>
<path d="M23.0116 11.5096C23.0116 17.3224 18.704 22.128 13.1081 22.9079C12.5849 22.9804 12.0496 23.0184 11.5062 23.0184C10.879 23.0184 10.263 22.9684 9.6632 22.8716C4.18422 21.9893 0 17.2378 0 11.5096C0 5.15318 5.15167 0 11.5054 0C17.8591 0 23.0116 5.15318 23.0116 11.5096Z" fill="#1877F2"/>
<path d="M13.1092 9.24111V11.7483H16.2099L15.7189 15.1257H13.1092V22.9071C12.586 22.9797 12.0507 23.0176 11.5073 23.0176C10.8801 23.0176 10.2641 22.9676 9.66431 22.8708V15.1257H6.80469V11.7483H9.66431V8.68063C9.66431 6.77742 11.2066 5.23389 13.11 5.23389V5.2355C13.1157 5.2355 13.1205 5.23389 13.1262 5.23389H16.2107V8.15483H14.1952C13.5962 8.15483 13.11 8.64112 13.11 9.2403L13.1092 9.24111Z" fill="white"/>
<path d="M128.046 11.5096C128.046 17.3224 123.738 22.128 118.142 22.9079C117.619 22.9804 117.084 23.0184 116.541 23.0184C115.913 23.0184 115.297 22.9684 114.698 22.8716C109.219 21.9893 105.035 17.2378 105.035 11.5096C105.035 5.15318 110.187 0 116.541 0C122.896 0 128.048 5.15318 128.048 11.5096H128.046Z" fill="#1C1C1B"/>
<path d="M109.701 5.07568L115.007 12.1724L109.668 17.9425H110.87L115.545 12.8909L119.322 17.9425H123.412L117.807 10.4466L122.778 5.07568H121.576L117.27 9.72806L113.792 5.07568H109.702H109.701ZM111.468 5.96116H113.347L121.643 17.057H119.765L111.468 5.96116Z" fill="white"/>
<defs>
<linearGradient id="paint0_linear_973_27377" x1="38.3736" y1="19.6555" x2="54.6662" y2="3.36848" gradientUnits="userSpaceOnUse">
<stop stop-color="#FAAD4F"/>
<stop offset="0.35" stop-color="#DD2A7B"/>
<stop offset="0.62" stop-color="#9537B0"/>
<stop offset="1" stop-color="#515BD4"/>
</linearGradient>
</defs>
</svg>
