<?xml version="1.0" encoding="UTF-8"?>
<svg id="Layer_1" data-name="Layer 1" xmlns="http://www.w3.org/2000/svg" viewBox="0 0 500 500">
  <defs>
    <style>
      .cls-1 {
        fill: #fff;
        fill-rule: evenodd;
      }

      .cls-2 {
        fill: #0b66c3;
      }
    </style>
  </defs>
  <circle class="cls-2" cx="250" cy="250" r="250"/>
  <path class="cls-1" d="M108.6,199.5h55.73v187.16h-55.73v-187.16ZM136.12,104.54c18.58,0,33.72,15.14,33.72,33.72s-15.14,33.72-33.72,33.72-33.03-15.14-33.03-33.72,14.45-33.72,33.03-33.72h0ZM197.36,199.5h55.05v26.15c11.7-17.2,30.96-28.21,52.98-28.21h15.14c35.09,0,63.3,28.9,63.3,63.3v125.92h-55.05v-17.2h0v-83.95h0c-.69-21.33-15.14-37.84-36.47-37.84h0c-21.33,0-39.22,16.51-39.91,37.84h0v101.15h-55.05v-187.16Z"/>
</svg>