<?xml version="1.0" encoding="UTF-8"?>
<svg id="Layer_1" data-name="Layer 1" xmlns="http://www.w3.org/2000/svg" viewBox="0 0 500 500">
  <defs>
    <style>
      .cls-1 {
        fill: #fff;
      }

      .cls-2 {
        fill: red;
      }
    </style>
  </defs>
  <path class="cls-2" d="M250,0C111.92,0,0,111.92,0,250c0,101.7,60.83,189.04,148,228.09-.3-7.03-.6-14.05-.37-21.1.81-24.32,3.81-32.67,35.16-164.47.46-2.01-.05-3.68-.73-5.49-7.5-20.25-8.98-40.78-2.43-61.6,14.19-44.95,65.16-48.4,74.07-11.3,5.49,22.94-9.04,52.96-20.19,97.34-9.23,36.62,33.86,62.65,70.71,35.92,33.98-24.64,47.16-83.72,44.66-125.59-4.94-83.48-96.48-101.53-154.56-74.64-66.57,30.79-81.71,113.32-51.65,151.03,3.81,4.8,6.75,7.73,5.49,12.6-1.94,7.55-3.65,15.16-5.73,22.67-1.55,5.59-6.24,7.62-11.88,5.33-11.09-4.47-20.32-11.54-27.81-20.83-25.53-31.61-32.83-94.14.92-147.07,37.39-58.65,106.95-82.36,170.46-75.17,75.85,8.63,123.8,60.45,132.78,119.25,4.09,26.78,1.14,92.83-36.45,139.51-43.25,53.64-113.37,57.2-145.72,24.27-2.49-2.52-4.49-5.48-6.93-8.49-.36,1.21-.69,2.23-.95,3.26-15.53,60.85-17.26,74.36-33.21,102.61-2.46,4.34-5.18,8.49-7.84,12.69,23.44,7.28,48.37,11.2,74.2,11.2,138.07,0,250-111.93,250-250C500,111.92,388.07,0,250,0Z"/>
  <path class="cls-1" d="M216.85,373.49c.26-1.03.59-2.05.95-3.26,2.44,3.01,4.43,5.97,6.93,8.49,32.35,32.92,102.46,29.37,145.72-24.27,37.59-46.68,40.54-112.73,36.45-139.51-8.98-58.8-56.93-110.62-132.78-119.25-63.51-7.19-133.06,16.53-170.46,75.17-33.75,52.93-26.46,115.46-.92,147.07,7.49,9.29,16.72,16.36,27.81,20.83,5.64,2.3,10.33.26,11.88-5.33,2.08-7.51,3.79-15.12,5.73-22.67,1.26-4.86-1.68-7.79-5.49-12.6-30.06-37.71-14.92-120.24,51.65-151.03,58.08-26.88,149.62-8.83,154.56,74.64,2.5,41.87-10.68,100.95-44.66,125.59-36.84,26.73-79.94.7-70.71-35.92,11.15-44.38,25.67-74.4,20.19-97.34-8.92-37.1-59.89-33.65-74.07,11.3-6.55,20.82-5.07,41.36,2.43,61.6.68,1.81,1.19,3.48.73,5.49-31.34,131.8-34.35,140.15-35.16,164.47-.23,7.05.07,14.08.37,21.1,9.02,4.05,18.24,7.74,27.8,10.7,2.66-4.2,5.38-8.35,7.84-12.69,15.95-28.24,17.68-41.75,33.21-102.6Z"/>
</svg>