<?xml version="1.0" encoding="UTF-8"?>
<svg id="Layer_1" data-name="Layer 1" xmlns="http://www.w3.org/2000/svg" xmlns:xlink="http://www.w3.org/1999/xlink" viewBox="0 0 500 500">
  <defs>
    <style>
      .cls-1 {
        fill: #fff;
        fill-rule: evenodd;
      }

      .cls-2 {
        fill: url(#linear-gradient);
      }
    </style>
    <linearGradient id="linear-gradient" x1="0" y1="250" x2="500" y2="250" gradientUnits="userSpaceOnUse">
      <stop offset="0" stop-color="#42ef62"/>
      <stop offset="1" stop-color="#19cb3c"/>
    </linearGradient>
  </defs>
  <circle class="cls-2" cx="250" cy="250" r="250"/>
  <path class="cls-1" d="M186.73,174.79c9.09-5.78,14.87-1.65,18.18,7.44l8.26,21.48s5.78,11.57-9.09,23.13q-2.48,1.65-1.65,5.78c3.3,9.91,16.52,39.66,58.66,62.79,4.13,2.48,4.96,2.48,9.09-.83,3.3-3.3,7.44-7.44,10.74-10.74,7.44-6.61,11.57-9.09,18.18-4.13,4.96,3.3,9.91,7.44,14.87,10.74,4.96,4.13,13.22,9.09,4.96,19l-7.44,9.09c-10.74,13.22-19.83,14.04-33.87,10.74-53.7-14.04-93.36-52.05-110.71-105.75-5.78-20.65,2.48-38,19.83-48.74h0ZM244.56,86.38c90.05,0,162.76,72.7,162.76,162.76s-72.7,162.76-162.76,162.76c-24.79,0-47.92-4.96-68.57-14.87l-86.75,14.87,11.57-85.92-.83-1.65c-11.57-22.31-18.18-47.92-18.18-75.18,0-90.05,72.7-162.76,162.76-162.76h0ZM142.12,375.55l23.13-4.13,14.05-2.48c19.83,10.74,41.31,16.52,65.27,16.52,75.18,0,136.32-61.14,136.32-136.32s-61.14-136.32-136.32-136.32-136.32,61.14-136.32,136.32c0,27.26,8.26,52.05,21.48,73.53l-1.65,12.39-3.3,24.79-2.48,19,19.83-3.3Z"/>
</svg>