<?xml version="1.0" encoding="UTF-8"?>
<svg id="Layer_1" data-name="Layer 1" xmlns="http://www.w3.org/2000/svg" viewBox="0 0 500 500">
  <defs>
    <style>
      .cls-1 {
        fill: #fff;
      }

      .cls-1, .cls-2 {
        fill-rule: evenodd;
      }

      .cls-3, .cls-2 {
        fill: #fe0000;
      }
    </style>
  </defs>
  <circle class="cls-3" cx="250" cy="250" r="250"/>
  <g>
    <path class="cls-1" d="M154.04,139.83c31.3-2.5,68.23-3.76,96.4-3.76h0c28.17,0,64.48,1.25,96.4,3.76,36.93,3.13,55.71,9.39,60.72,46.32,2.5,16.9,3.76,40.06,3.76,63.85h0c0,23.79-1.25,47.57-3.76,63.85-5.01,37.56-23.79,43.19-60.72,46.32-31.93,3.13-68.23,3.76-96.4,3.76h0c-28.17,0-65.1-.63-96.4-3.76-36.93-3.13-56.34-8.76-61.35-46.32-1.88-16.28-3.13-40.06-3.13-63.85h0c0-23.79,1.25-46.95,3.13-63.85,5.01-36.93,24.41-43.19,61.35-46.32h0Z"/>
    <polygon class="cls-2" points="217.89 201.8 301.77 250 217.89 298.83 217.89 201.8"/>
  </g>
</svg>